{"glyphs":{"0":{"ha":785,"x_min":62,"x_max":842,"o":"m 772 781 q 809 758 795 774 q 830 721 824 743 q 839 680 837 699 q 842 636 842 661 q 822 497 842 570 q 767 353 802 424 q 679 218 732 283 q 564 103 626 153 q 424 20 501 52 q 265 -18 347 -13 q 157 12 204 -23 q 86 101 109 47 q 62 216 62 155 q 121 446 62 326 q 265 660 180 566 q 486 830 353 757 q 690 903 618 903 q 773 867 730 903 q 815 806 815 831 q 795 790 815 797 q 772 781 775 783 m 425 186 l 561 311 q 681 476 621 378 q 741 636 741 575 q 727 691 741 664 q 688 718 713 718 q 653 705 672 718 q 621 680 635 692 q 602 667 606 667 q 591 675 594 667 q 587 692 587 684 q 426 578 497 641 q 312 452 355 515 q 246 327 269 388 q 220 211 223 267 q 220 183 219 199 q 226 148 222 167 q 239 117 230 130 q 262 104 249 104 q 345 133 291 104 q 425 186 398 161 z "},"1":{"ha":785,"x_min":210,"x_max":747,"o":"m 558 734 l 427 685 q 389 671 398 671 q 378 703 372 671 q 379 715 378 709 q 384 726 380 720 q 388 735 387 731 q 395 743 389 739 q 402 750 400 748 q 411 757 404 752 q 420 763 418 762 q 431 769 422 764 q 441 775 440 774 q 684 895 650 895 q 727 858 707 895 q 747 799 747 821 q 728 734 747 772 q 584 486 708 696 q 566 455 573 467 q 549 426 559 444 q 529 392 538 408 q 367 21 367 119 q 369 -3 367 13 q 371 -28 371 -19 q 351 -47 371 -47 q 322 -35 344 -47 q 291 -19 312 -28 q 259 -3 270 -9 q 235 14 248 3 q 215 41 221 25 q 210 77 210 56 q 243 218 210 125 q 307 363 276 311 q 561 732 409 530 l 558 734 z "},"2":{"ha":785,"x_min":53,"x_max":851,"o":"m 422 561 l 272 532 q 258 529 269 531 q 238 526 247 528 q 225 525 229 525 q 200 542 208 525 q 193 579 193 559 q 218 675 193 616 q 271 764 243 734 q 390 839 309 806 q 551 885 471 871 q 696 899 631 899 q 765 891 739 899 q 812 861 791 884 q 842 794 833 838 q 851 679 851 750 q 850 646 851 657 q 843 614 849 635 q 825 577 837 593 q 788 536 812 562 q 727 487 763 511 q 636 428 691 462 q 510 357 582 395 q 321 251 401 300 q 170 147 240 203 l 172 144 l 713 239 q 707 221 711 233 q 692 180 697 194 q 677 143 687 167 q 659 107 667 119 q 637 77 650 94 q 608 50 623 60 q 573 31 593 40 q 528 17 552 22 q 253 -18 366 -13 q 114 -3 140 -24 q 69 65 85 20 q 53 153 53 111 q 66 197 53 173 q 105 246 79 220 q 158 296 131 272 q 228 348 186 319 q 301 396 270 376 q 378 443 332 416 q 447 482 424 469 q 510 516 471 495 q 554 541 549 538 q 590 561 578 554 q 630 584 601 567 q 675 615 659 602 q 711 647 691 629 q 741 685 731 666 q 750 722 750 704 q 733 749 750 741 q 697 758 716 758 q 647 754 673 758 q 589 740 621 750 q 535 723 557 730 q 475 699 513 716 q 423 676 437 682 q 368 650 410 670 q 322 628 326 630 l 322 625 l 404 615 q 414 614 406 615 q 427 612 422 613 q 437 610 431 612 q 448 605 444 608 q 454 597 451 602 q 457 586 457 592 q 422 561 457 564 z "},"3":{"ha":785,"x_min":-43,"x_max":886,"o":"m 343 710 l 372 704 q 424 681 424 695 q 399 664 424 668 q 269 654 354 654 q 217 674 236 654 q 199 729 199 694 q 211 773 199 753 q 246 809 222 793 q 287 832 269 824 q 332 851 304 840 q 604 893 439 893 q 660 892 635 893 q 714 887 684 891 q 768 876 745 883 q 814 856 791 869 q 852 825 838 842 q 877 780 867 807 q 886 720 886 753 q 862 641 886 682 q 803 578 838 600 q 637 521 745 543 l 428 475 l 428 472 q 462 466 438 470 q 499 460 486 463 q 536 452 513 458 q 574 443 559 447 q 608 430 588 438 q 642 413 629 422 q 669 391 654 404 q 692 363 684 378 q 708 329 701 349 q 715 288 714 310 q 700 220 718 258 q 641 141 682 182 q 542 66 600 100 q 396 9 484 31 q 207 -14 308 -14 q 90 -2 141 -14 q 11 28 39 10 q -30 64 -16 46 q -43 98 -43 82 q 5 179 -43 125 q 78 233 53 233 q 92 229 85 233 q 98 216 98 224 q 87 198 98 212 q 66 175 76 184 q 201 143 146 143 q 351 162 274 143 q 485 209 429 182 q 577 263 541 235 q 614 310 614 292 q 590 348 613 332 q 537 372 568 364 q 467 385 507 380 q 402 391 427 390 q 355 392 378 392 q 232 380 297 392 q 192 375 210 375 q 171 404 166 375 q 214 508 180 473 q 322 549 248 544 q 429 564 358 551 q 582 598 499 577 q 724 650 664 618 q 785 714 785 682 q 646 771 785 772 q 642 771 643 771 q 343 713 498 771 l 343 710 z "},"4":{"ha":785,"x_min":52,"x_max":877,"o":"m 453 378 l 786 781 l 783 783 q 603 694 655 725 q 424 581 501 635 q 305 487 347 526 q 242 423 263 448 q 214 380 221 398 q 265 367 214 369 q 453 378 326 362 m 729 237 l 534 214 q 529 196 533 209 q 524 179 525 182 q 520 165 523 175 q 517 153 517 156 q 515 142 516 149 q 513 131 513 135 q 512 121 512 126 q 511 110 511 115 q 539 41 511 85 q 490 17 529 37 q 418 -20 452 -4 q 372 -36 384 -36 q 351 -22 359 -36 q 341 5 343 -8 q 339 33 339 19 q 344 85 339 57 q 356 147 349 113 q 367 203 363 181 q 285 198 337 201 q 210 194 233 195 q 157 194 187 193 q 113 201 127 195 q 93 218 99 207 q 52 342 52 294 q 105 458 52 389 q 214 575 159 528 q 543 789 340 684 q 817 893 747 893 q 853 883 837 893 q 869 854 869 873 q 840 811 869 837 q 868 749 877 793 q 832 668 863 707 q 635 389 734 546 q 688 392 652 389 q 741 396 723 396 q 791 361 791 396 q 779 322 791 347 q 749 271 766 298 q 729 237 732 243 z "},"5":{"ha":785,"x_min":-1,"x_max":899,"o":"m 253 690 l 396 843 q 414 861 406 853 q 432 875 422 869 q 447 885 441 881 q 464 892 453 889 q 479 896 475 895 q 497 898 484 897 q 516 899 511 899 q 538 899 521 899 q 564 899 556 899 l 899 899 q 825 771 839 791 q 762 720 797 730 q 679 713 735 712 l 443 715 q 325 574 372 660 q 518 603 435 603 q 680 554 614 603 q 746 414 746 505 q 696 243 746 327 q 485 58 628 130 q 142 -14 341 -14 q 74 -9 100 -14 q 33 2 48 -5 q 10 26 17 9 q 1 59 3 43 q -1 106 -1 75 q 29 172 -1 141 q 100 221 60 203 q 173 250 140 239 q 216 260 205 260 q 239 244 239 260 q 210 214 239 233 l 125 155 l 127 153 q 347 197 245 165 q 511 266 448 229 q 609 342 574 304 q 644 410 644 380 q 626 439 644 427 q 586 457 607 452 q 549 463 565 463 q 376 440 486 463 q 329 430 355 436 q 287 420 303 424 q 264 416 271 416 q 228 433 244 416 q 203 475 212 450 q 189 524 194 500 q 184 566 184 548 q 253 690 184 618 z "},"6":{"ha":785,"x_min":103,"x_max":828,"o":"m 581 705 l 390 541 l 393 538 q 426 553 402 542 q 462 570 450 564 q 495 583 475 575 q 533 593 515 590 q 570 596 551 596 q 690 542 644 596 q 736 411 736 488 q 704 280 736 347 q 625 162 673 214 q 523 68 577 111 q 421 4 469 26 q 345 -18 373 -18 q 274 2 315 -18 q 195 57 234 22 q 130 148 157 92 q 103 265 103 203 q 133 408 103 335 q 208 542 162 481 q 316 663 254 603 q 437 766 378 722 q 558 848 496 810 q 636 889 612 881 q 717 897 661 897 q 727 898 718 897 q 744 898 735 898 q 766 898 753 898 q 788 897 778 898 q 808 893 799 895 q 823 888 817 892 q 828 879 828 884 q 819 862 828 870 q 799 850 809 854 q 687 785 750 827 q 581 705 623 743 m 555 494 q 340 359 496 494 q 309 331 317 338 q 287 308 300 323 q 270 281 274 293 q 263 252 267 270 q 260 210 260 234 q 294 122 260 117 q 363 145 325 127 q 443 194 402 163 q 517 261 483 224 q 573 346 551 298 q 596 441 595 393 q 594 469 596 458 q 583 487 592 479 q 555 494 573 494 z "},"7":{"ha":785,"x_min":172,"x_max":861,"o":"m 371 406 l 665 714 q 577 715 620 717 q 504 714 534 713 q 445 710 474 714 q 398 705 416 707 q 360 699 380 704 q 331 691 341 694 q 307 682 321 688 q 288 673 294 676 q 270 664 281 670 q 253 654 259 658 q 241 647 251 653 q 223 638 231 642 q 208 635 215 635 q 184 644 196 635 q 172 665 172 653 q 212 739 172 685 q 278 821 251 792 q 343 861 302 845 q 486 887 384 876 q 750 899 589 899 q 827 873 809 899 q 849 820 837 857 q 861 764 861 782 q 857 748 861 756 q 848 733 853 739 q 834 718 844 726 q 820 704 825 709 q 804 692 814 700 q 791 682 793 684 q 664 562 720 622 q 554 428 607 501 q 462 269 502 355 q 397 85 422 182 q 431 92 416 92 q 446 78 444 92 q 409 39 447 68 q 321 -16 371 10 q 244 -43 271 -41 q 191 -20 208 -45 q 174 45 174 5 q 189 118 174 77 q 222 194 204 159 q 273 275 241 228 q 323 344 306 321 q 371 406 340 367 z "},"8":{"ha":785,"x_min":96,"x_max":901,"o":"m 722 722 l 615 730 q 443 704 507 739 q 378 619 378 668 q 402 558 378 598 q 454 492 427 519 l 722 722 m 410 334 l 293 227 q 242 169 265 201 q 218 111 218 137 q 222 94 218 100 q 234 85 225 87 q 247 82 242 83 q 265 82 252 82 q 350 97 308 82 q 424 145 393 112 q 456 221 456 178 q 448 265 456 243 q 434 298 441 286 q 410 334 427 310 m 739 632 l 509 427 q 561 334 545 382 q 578 225 576 287 q 571 170 578 198 q 542 108 564 141 q 485 50 519 75 q 392 4 451 24 q 257 -20 333 -15 q 186 -10 222 -22 q 123 29 150 1 q 96 93 96 56 q 110 152 96 120 q 144 209 125 183 q 195 269 163 235 q 249 321 227 302 q 305 371 271 340 q 350 410 340 401 q 334 430 347 414 q 317 451 321 446 q 302 470 313 456 q 287 492 291 485 q 273 512 282 498 q 261 535 264 526 q 252 557 258 544 q 244 582 246 571 q 239 606 241 593 q 237 633 237 620 q 254 712 237 675 q 300 776 271 749 q 364 824 330 804 q 437 857 398 844 q 703 907 559 898 q 810 903 760 909 q 879 890 860 897 q 896 882 891 887 q 901 864 901 876 q 893 828 901 848 q 880 799 886 809 q 860 768 874 789 q 823 722 836 732 q 783 717 809 712 q 782 679 789 692 q 739 632 775 665 z "},"9":{"ha":785,"x_min":142,"x_max":848,"o":"m 770 685 l 718 653 q 711 649 716 652 q 704 644 706 646 q 697 641 701 643 q 689 637 692 638 q 682 635 686 636 q 673 635 678 635 q 663 640 667 635 q 659 652 659 646 q 730 724 659 663 l 728 726 q 554 671 631 702 q 426 609 476 640 q 343 544 376 578 q 296 481 310 511 q 282 424 282 452 q 287 407 282 412 q 304 401 292 401 q 490 459 378 401 q 673 576 602 516 q 772 635 746 635 q 819 625 791 635 q 847 600 847 615 q 802 525 847 577 l 436 96 q 335 -2 376 26 q 250 -35 294 -31 q 228 -29 237 -36 q 220 -9 220 -22 q 224 8 220 -3 q 234 27 229 19 q 247 47 239 35 q 256 61 254 59 q 266 78 259 66 q 276 95 273 90 q 286 106 279 99 q 298 116 292 114 q 313 121 304 119 q 335 122 323 123 l 597 435 l 595 437 q 445 346 531 393 q 314 300 359 300 q 278 310 300 300 q 233 341 256 321 q 189 386 210 361 q 155 445 168 412 q 142 511 142 478 q 178 617 142 561 q 274 723 214 673 q 408 813 334 772 q 562 877 481 853 q 713 899 643 900 q 771 869 738 898 q 826 808 804 841 q 848 758 848 774 q 847 748 848 753 q 841 738 845 743 q 833 728 838 732 q 823 719 829 724 q 812 711 817 714 q 801 703 808 707 q 789 696 793 699 q 779 690 786 694 q 770 685 771 686 z "}," ":{"ha":472,"x_min":0,"x_max":0,"o":""},"!":{"ha":544,"x_min":98,"x_max":590,"o":"m 174 -16 q 122 5 146 -16 q 98 52 98 25 q 107 117 98 79 q 136 188 117 155 q 179 221 156 221 q 240 195 215 221 q 265 132 265 168 q 260 89 265 113 q 244 40 254 64 q 215 0 233 16 q 174 -16 196 -16 m 221 439 l 416 886 q 421 899 417 888 q 428 913 426 909 q 434 925 430 917 q 443 938 439 934 q 452 947 447 942 q 464 955 458 953 q 478 957 471 957 q 496 955 485 957 q 520 949 507 952 q 536 945 532 945 q 547 942 538 944 q 562 938 555 940 q 575 932 568 936 q 586 924 582 929 q 590 913 590 919 q 587 896 590 906 q 579 873 585 886 q 569 851 573 860 q 558 828 565 842 q 550 812 551 814 l 301 328 q 309 304 309 313 q 295 263 309 283 q 262 243 282 243 q 209 268 238 243 q 179 318 179 294 q 184 347 179 329 q 195 378 190 366 q 210 413 200 391 q 221 439 220 435 z "},"\"":{"ha":462,"x_min":53,"x_max":410,"o":"m 53 907 q 113 989 53 989 q 172 907 172 989 q 146 593 172 884 q 134 561 144 572 q 113 550 124 550 q 91 561 101 550 q 79 593 81 572 q 53 907 53 884 m 290 907 q 350 989 290 989 q 410 907 410 989 q 383 593 410 884 q 371 561 381 572 q 350 550 361 550 q 329 561 338 550 q 317 593 319 572 q 290 907 290 884 z "},"#":{"ha":782,"x_min":74,"x_max":840,"o":"m 184 0 l 96 0 l 205 261 l 74 261 l 94 349 l 243 349 l 325 542 l 182 542 l 204 629 l 359 629 l 469 886 l 558 886 l 449 629 l 618 629 l 726 886 l 817 886 l 708 629 l 840 629 l 818 542 l 672 542 l 590 349 l 730 349 l 708 261 l 554 261 l 443 0 l 354 0 l 464 261 l 294 261 l 184 0 m 330 349 l 500 349 l 583 542 l 414 542 l 330 349 z "},"$":{"ha":785,"x_min":-49,"x_max":924,"o":"m 395 518 l 443 677 q 336 633 408 671 q 265 572 265 595 q 395 518 265 539 m 484 401 l 439 233 q 460 240 442 235 q 492 250 479 245 q 527 262 506 255 q 563 277 548 270 q 593 294 578 285 q 616 312 608 302 q 624 330 624 321 q 598 363 624 349 q 530 389 572 377 q 484 401 487 400 m 321 218 l 372 427 q 306 438 337 433 q 261 446 275 444 q 228 452 247 448 q 187 465 210 457 q 143 541 143 481 q 160 622 143 566 q 192 701 178 677 q 247 755 208 728 q 336 802 286 782 q 426 836 386 823 q 505 860 466 849 q 515 886 507 864 q 527 919 523 909 q 540 952 530 928 q 555 988 549 975 q 573 1022 562 1001 q 593 1055 584 1043 q 615 1082 602 1067 q 640 1105 628 1097 q 667 1119 652 1114 q 697 1125 682 1125 q 725 1111 714 1125 q 736 1079 736 1097 q 710 1018 736 1048 q 663 953 677 977 q 632 880 649 929 l 761 889 q 899 872 834 894 q 919 864 913 869 q 922 846 924 859 q 905 766 917 793 q 872 725 893 739 q 807 694 852 710 q 766 679 777 684 q 736 665 755 675 q 699 642 716 654 q 653 621 671 621 q 641 625 646 621 q 636 636 636 630 q 638 643 637 640 q 644 650 640 646 q 651 658 648 654 q 661 666 654 661 q 672 675 667 671 q 686 686 677 680 q 701 697 694 692 q 718 709 707 701 q 736 722 728 717 l 733 725 l 566 703 l 505 493 q 548 479 517 489 q 602 462 580 469 q 653 440 623 454 q 701 413 682 427 q 732 379 719 399 q 746 335 746 358 q 713 236 746 283 q 632 157 681 189 q 401 61 545 99 l 370 -122 q 341 -116 364 -121 q 304 -106 318 -111 q 278 -91 291 -102 q 265 -62 265 -79 q 273 -9 265 -43 q 281 33 281 24 q 117 32 223 28 q -47 102 -42 35 q -17 170 -49 125 q 54 215 16 215 l 321 218 z "},"%":{"ha":892,"x_min":121,"x_max":907,"o":"m 440 896 q 495 874 479 895 q 511 812 511 853 q 474 672 511 748 q 374 541 437 596 q 244 485 310 485 q 155 535 189 485 q 121 643 121 585 q 141 742 121 693 q 194 829 161 791 q 264 896 226 866 q 339 942 302 926 q 404 962 376 959 q 438 950 421 964 q 454 920 454 937 q 440 896 454 910 m 339 833 q 258 749 294 804 q 222 643 222 693 q 227 617 222 633 q 233 602 231 602 q 290 616 259 597 q 347 666 321 635 q 394 730 372 696 q 429 793 416 764 q 441 833 441 821 q 434 845 441 840 q 418 850 427 850 q 391 835 406 850 q 366 821 376 821 q 339 833 355 821 m 829 401 q 884 380 868 401 q 900 318 900 359 q 878 213 900 271 q 819 106 855 156 q 733 24 783 57 q 633 -9 683 -9 q 544 41 578 -9 q 510 149 510 91 q 541 271 510 211 q 617 371 572 330 q 709 438 662 412 q 793 468 757 464 q 826 456 810 470 q 843 425 843 442 q 829 401 843 415 m 728 339 q 647 254 682 310 q 611 149 611 199 q 615 123 611 138 q 623 107 620 107 q 679 122 648 103 q 736 172 710 141 q 784 236 762 202 q 818 298 806 270 q 831 339 831 327 q 823 351 831 346 q 807 355 816 355 q 780 341 795 355 q 754 326 764 326 q 728 339 744 326 m 285 283 l 567 623 q 899 924 718 804 q 901 858 907 891 q 857 774 894 825 q 742 642 821 724 q 506 369 629 524 q 301 83 383 214 q 289 64 298 79 q 274 42 279 49 q 263 22 270 35 q 253 0 257 10 q 247 -17 249 -12 q 240 -31 245 -22 q 228 -44 235 -40 q 211 -47 221 -47 q 162 -20 183 -47 q 142 36 142 7 q 285 283 142 111 z "},"&":{"ha":808,"x_min":-16,"x_max":822,"o":"m 472 646 q 521 676 502 664 q 578 715 541 688 q 640 765 616 743 q 681 815 663 787 q 700 867 700 843 q 692 880 700 876 q 676 884 685 885 q 601 858 634 876 q 549 818 568 840 q 514 766 529 797 q 490 710 498 736 q 473 652 482 685 q 473 650 473 650 q 472 648 473 649 q 472 646 472 646 m 407 252 l 329 428 q 206 331 277 406 q 134 210 136 256 q 199 184 132 184 q 407 252 283 184 m 697 643 l 490 522 q 558 350 504 433 l 781 526 q 787 506 782 522 q 795 483 793 491 q 801 463 797 475 q 806 440 804 450 q 807 419 807 429 q 797 372 807 395 q 768 326 787 349 q 732 289 748 304 q 689 251 715 273 q 652 220 662 229 q 669 192 656 202 q 694 182 681 182 q 716 188 703 182 q 734 193 730 193 q 750 185 743 193 q 757 168 757 176 q 735 108 757 149 q 682 33 713 68 q 628 -1 650 -1 q 597 12 616 -1 q 564 39 578 25 q 530 75 550 54 q 507 100 511 96 q 470 77 501 96 q 428 52 439 58 q 389 30 416 45 q 344 8 361 14 q 302 -8 327 1 q 255 -20 277 -17 q 211 -24 233 -24 q 50 40 115 -24 q -7 195 -16 103 q 8 277 -3 239 q 34 343 20 315 q 71 398 49 372 q 114 443 93 424 q 165 480 136 461 q 221 514 195 500 q 280 546 246 528 q 298 555 292 552 q 309 682 289 621 q 368 791 328 744 q 461 874 408 838 q 572 931 514 911 q 685 953 631 951 q 780 916 737 955 q 822 825 822 878 q 697 643 822 717 z "},"'":{"ha":308,"x_min":94,"x_max":214,"o":"m 94 907 q 154 989 94 989 q 214 907 214 989 q 187 593 214 884 q 175 561 185 572 q 154 550 165 550 q 133 561 142 550 q 121 593 123 572 q 94 907 94 884 z "},"(":{"ha":452,"x_min":68,"x_max":551,"o":"m 199 564 q 235 643 214 600 q 291 749 256 686 q 360 861 326 812 q 432 945 393 910 q 501 981 471 981 q 538 966 526 981 q 551 928 551 952 q 521 861 551 905 q 317 465 409 703 q 225 54 225 226 q 236 -66 225 14 q 250 -64 241 -64 q 266 -84 261 -64 q 271 -119 271 -104 q 245 -190 271 -158 q 183 -221 220 -221 q 68 60 68 -221 q 199 564 68 272 z "},")":{"ha":452,"x_min":24,"x_max":507,"o":"m 376 196 q 340 117 361 160 q 284 11 319 73 q 215 -101 249 -52 q 143 -186 182 -151 q 74 -221 104 -221 q 37 -207 50 -221 q 24 -168 24 -193 q 54 -102 24 -146 q 258 295 166 56 q 350 705 350 534 q 339 827 350 747 q 325 823 332 823 q 309 843 314 823 q 304 879 304 863 q 330 949 304 918 q 392 981 355 981 q 507 700 507 981 q 376 196 507 488 z "},"*":{"ha":761,"x_min":160,"x_max":734,"o":"m 518 643 l 642 546 q 652 536 644 543 q 664 525 660 529 q 673 513 669 520 q 677 498 677 505 q 662 454 677 487 q 644 412 646 421 l 473 561 l 461 328 q 430 336 449 332 q 403 345 412 341 q 385 355 395 348 q 371 375 374 362 q 367 408 367 388 q 370 456 367 432 q 377 515 372 481 q 385 562 382 549 l 253 472 q 237 460 248 469 q 217 447 227 452 q 200 441 208 441 q 171 457 182 441 q 160 492 160 472 q 184 546 160 519 q 237 589 208 572 q 303 627 265 606 q 354 657 340 648 q 260 728 310 699 q 235 742 241 738 q 219 756 228 747 q 208 776 210 765 q 205 806 205 787 q 214 843 205 827 q 241 860 222 860 q 260 858 252 860 q 278 849 269 855 q 291 838 287 842 q 306 823 296 834 q 319 810 317 812 q 359 774 332 797 q 399 739 387 751 l 401 839 q 402 857 401 844 q 403 875 402 869 q 407 889 404 880 q 416 905 410 898 q 481 950 456 950 q 505 940 496 950 q 514 916 514 930 q 505 878 514 904 q 496 808 504 873 l 488 733 q 664 810 615 810 q 688 801 680 810 q 708 774 696 793 q 734 743 720 756 l 518 643 z "},"+":{"ha":891,"x_min":192,"x_max":825,"o":"m 825 319 l 553 319 l 553 16 l 465 16 l 465 319 l 192 319 l 192 403 l 465 403 l 465 682 l 553 682 l 553 403 l 825 403 l 825 319 z "},",":{"ha":418,"x_min":68,"x_max":277,"o":"m 78 60 q 120 149 78 103 q 205 195 161 195 q 277 163 277 195 q 253 83 277 136 q 211 8 230 31 q 182 -25 196 -11 q 158 -50 168 -40 q 137 -66 148 -60 q 120 -76 125 -73 q 104 -82 114 -80 q 92 -84 94 -83 q 79 -84 89 -84 q 68 -83 69 -83 q 131 11 115 -22 q 105 20 114 16 q 87 34 96 24 q 78 60 78 45 z "},"-":{"ha":444,"x_min":0,"x_max":416,"o":"m 0 444 l 416 444 l 416 322 l 0 322 l 0 444 z "},".":{"ha":418,"x_min":77,"x_max":285,"o":"m 164 -7 q 134 -2 146 -5 q 107 6 122 0 q 84 23 92 12 q 77 52 77 35 q 87 98 77 71 q 116 151 98 125 q 161 191 134 176 q 216 200 189 206 q 230 198 218 200 q 250 194 243 196 q 266 188 256 192 q 280 175 275 183 q 285 155 285 167 q 281 137 285 153 q 267 95 277 121 q 244 46 257 69 q 210 6 231 22 q 164 -7 189 -9 z "},"/":{"ha":642,"x_min":47,"x_max":737,"o":"m 688 872 l 412 425 q 259 150 305 250 q 164 -98 214 50 q 138 -129 154 -129 q 73 -101 99 -129 q 47 -35 47 -73 q 76 78 47 5 q 164 259 104 150 q 256 424 224 368 q 356 591 288 479 q 371 616 366 608 q 725 1067 559 931 q 737 990 737 1021 q 736 974 737 983 q 733 959 734 966 q 727 943 731 953 q 721 929 723 934 q 712 913 718 924 q 705 900 707 903 q 696 885 703 896 q 688 872 689 874 z "},":":{"ha":418,"x_min":66,"x_max":440,"o":"m 154 -7 q 124 -2 136 -5 q 97 6 112 0 q 74 23 82 12 q 66 52 66 35 q 84 116 66 79 q 136 181 102 153 q 207 200 170 208 q 221 198 208 200 q 240 194 233 196 q 256 188 247 192 q 271 175 266 183 q 275 155 275 167 q 271 137 275 153 q 257 95 267 121 q 234 46 248 69 q 200 6 221 22 q 154 -7 178 -9 m 319 322 q 289 327 301 324 q 262 335 277 329 q 240 352 248 340 q 232 380 232 363 q 250 445 232 408 q 302 510 268 482 q 372 529 336 537 q 387 527 374 528 q 405 523 399 525 q 421 516 412 521 q 435 504 431 512 q 440 485 440 496 q 436 467 440 483 q 422 425 432 450 q 399 375 412 399 q 365 335 386 351 q 319 322 344 319 z "},";":{"ha":418,"x_min":66,"x_max":441,"o":"m 77 60 q 118 149 77 103 q 204 195 160 195 q 275 163 275 195 q 252 83 275 136 q 210 8 229 31 q 181 -25 195 -11 q 157 -50 167 -40 q 135 -66 146 -60 q 118 -76 124 -73 q 103 -82 113 -80 q 90 -84 93 -83 q 78 -84 87 -84 q 66 -83 68 -83 q 129 11 111 -25 q 103 20 112 16 q 85 35 94 24 q 77 60 77 45 m 321 323 q 291 328 302 326 q 264 336 279 330 q 241 353 249 342 q 233 382 233 365 q 251 446 233 409 q 303 511 269 484 q 374 530 337 538 q 388 528 376 530 q 407 524 400 526 q 422 518 413 522 q 437 506 432 513 q 441 486 441 498 q 437 468 441 484 q 424 426 433 452 q 400 376 414 400 q 366 337 387 353 q 321 323 345 321 z "},"<":{"ha":900,"x_min":205,"x_max":831,"o":"m 831 5 l 205 318 l 205 403 l 831 714 l 831 621 l 292 363 l 292 359 l 831 98 l 831 5 z "},"=":{"ha":857,"x_min":158,"x_max":790,"o":"m 790 461 l 158 461 l 158 545 l 790 545 l 790 461 m 790 179 l 158 179 l 158 262 l 790 262 l 790 179 z "},">":{"ha":900,"x_min":205,"x_max":831,"o":"m 205 714 l 831 403 l 831 317 l 207 5 l 207 98 l 745 358 l 745 361 l 205 621 l 205 714 z "},"?":{"ha":648,"x_min":167,"x_max":690,"o":"m 311 760 l 325 754 q 344 747 338 749 q 358 737 350 745 q 367 721 367 730 q 358 703 367 709 q 338 696 349 696 q 313 700 333 696 l 258 708 q 244 708 256 708 q 228 709 232 709 q 215 712 224 709 q 202 718 206 714 q 195 728 199 722 q 192 745 192 735 q 204 801 192 764 q 228 857 216 838 q 305 910 245 887 q 422 942 365 932 q 521 951 480 951 q 648 919 605 951 q 690 804 690 886 q 593 562 690 677 l 412 349 q 399 334 408 344 q 387 319 391 324 q 380 306 383 315 q 376 286 376 296 q 380 268 376 280 q 385 249 385 255 q 376 225 385 234 q 354 216 368 216 q 298 250 321 216 q 275 317 275 283 q 375 489 275 395 l 534 636 q 555 654 536 638 q 579 677 573 670 q 598 699 586 684 q 616 726 611 713 q 621 751 621 739 q 614 780 621 768 q 599 798 608 791 q 576 807 591 804 q 551 810 561 810 q 524 811 541 811 q 445 802 486 811 q 385 787 405 793 q 311 760 365 780 m 241 -16 q 190 5 214 -16 q 167 52 167 25 q 176 117 167 79 q 205 188 185 155 q 248 221 224 221 q 309 195 283 221 q 334 132 334 168 q 325 72 334 104 q 293 12 315 39 q 241 -16 271 -16 z "},"@":{"ha":1103,"x_min":61,"x_max":1107,"o":"m 689 -36 l 696 -98 q 431 -155 572 -155 q 250 -123 328 -155 q 130 -33 173 -91 q 74 104 87 24 q 86 278 61 184 q 172 473 111 380 q 318 636 233 566 q 515 748 404 707 q 746 790 627 790 q 876 775 817 790 q 977 734 935 761 q 1048 671 1018 707 q 1090 590 1078 634 q 1105 495 1103 545 q 1092 392 1107 445 q 1035 256 1074 317 q 948 156 996 194 q 847 96 900 117 q 745 75 795 75 q 672 107 696 75 q 660 197 648 139 l 656 197 q 548 109 608 142 q 428 75 489 75 q 329 124 361 75 q 317 254 296 173 q 465 479 349 388 q 721 571 581 571 q 880 539 820 571 l 772 296 q 781 150 709 152 q 837 163 806 150 q 901 203 867 177 q 964 278 935 230 q 1008 386 994 326 q 1008 559 1032 483 q 909 680 984 635 q 715 725 833 725 q 587 705 654 725 q 455 647 520 686 q 333 555 389 608 q 234 433 277 503 q 172 286 191 363 q 162 129 150 198 q 215 11 175 59 q 318 -62 255 -37 q 461 -87 381 -87 q 689 -36 586 -87 m 693 342 l 757 482 q 685 493 724 493 q 528 429 604 493 q 429 275 452 364 q 433 200 418 230 q 494 170 448 170 q 604 224 545 170 q 693 342 664 279 z "},"A":{"ha":1082,"x_min":-102,"x_max":1141,"o":"m 774 484 l 962 800 l 960 803 l 558 471 l 561 468 l 774 484 m 839 319 l 751 149 q 759 132 751 138 q 777 126 766 126 q 787 127 782 126 q 798 131 791 127 q 809 137 804 134 q 824 147 814 140 q 843 161 835 155 q 868 180 850 167 q 899 203 885 193 l 924 167 q 640 -12 745 -12 q 587 11 605 -12 q 570 71 570 34 q 569 75 570 72 q 568 80 568 77 q 570 91 568 83 q 574 108 571 98 q 585 135 578 117 q 604 176 593 153 q 631 232 614 198 q 671 306 648 265 l 368 296 l 83 12 q 71 -1 83 12 q 55 -17 58 -14 q 39 -31 52 -20 q 21 -46 27 -42 q 4 -59 16 -51 q -16 -70 -7 -67 q -34 -76 -24 -73 q -53 -79 -44 -79 q -102 -49 -102 -79 q -28 68 -102 -9 q 136 176 46 144 l 244 296 q 144 295 178 291 q 110 323 110 299 q 172 410 110 347 q 285 490 234 474 q 342 506 313 500 q 393 510 372 511 q 414 500 414 509 q 389 486 414 490 q 338 477 363 481 q 313 463 313 473 q 332 450 313 450 q 416 454 399 454 l 728 713 q 1093 951 1017 951 q 1127 932 1114 951 q 1141 892 1141 913 q 1139 873 1141 884 q 1130 850 1136 863 q 1120 829 1124 837 q 1108 807 1116 822 q 1099 790 1099 791 l 926 489 q 971 490 954 489 q 990 493 988 492 q 1001 494 993 494 q 1017 492 1009 494 q 1054 484 1025 490 q 950 325 1006 427 l 839 319 z "},"B":{"ha":986,"x_min":75,"x_max":1090,"o":"m 479 452 q 545 441 493 449 q 638 427 597 433 q 734 405 679 420 q 827 374 790 391 q 891 331 865 357 q 918 272 918 304 q 898 214 918 247 q 833 142 878 180 q 727 72 789 104 q 573 15 666 39 q 374 -16 480 -9 q 294 -11 334 -18 q 217 12 254 -4 q 158 61 180 28 q 135 139 135 94 q 136 164 135 158 q 143 190 136 170 q 165 232 149 209 q 211 297 181 256 q 289 403 241 339 q 181 425 208 408 q 161 457 161 437 q 209 499 161 484 q 322 522 256 514 q 397 532 389 529 q 436 570 410 545 q 477 611 461 595 q 517 648 492 626 q 563 683 542 670 q 609 710 583 696 q 662 730 635 724 q 718 736 689 736 q 687 685 710 716 q 583 559 664 654 q 721 585 659 570 q 823 616 783 600 q 894 649 864 632 q 939 682 924 666 q 962 711 955 699 q 968 734 968 724 q 958 760 967 747 q 928 784 949 772 q 865 802 907 796 q 766 803 823 807 q 698 794 740 801 q 564 764 656 787 q 376 705 471 740 q 396 685 396 696 q 346 653 396 661 q 301 645 321 649 q 263 636 282 642 q 232 627 243 631 q 194 614 220 623 q 153 600 169 606 q 110 590 122 590 q 75 628 75 590 q 93 672 75 637 q 139 745 111 707 q 173 788 159 772 q 210 825 186 804 q 256 854 234 846 q 524 927 359 895 q 794 960 688 960 q 916 949 863 960 q 1002 922 970 939 q 1055 882 1034 905 q 1083 837 1076 859 q 1090 790 1090 814 q 1078 727 1090 758 q 1046 674 1065 697 q 995 629 1027 651 q 933 591 962 607 q 859 561 903 576 q 784 536 815 545 q 705 515 752 526 q 631 499 657 505 q 563 487 606 494 q 507 476 519 479 l 479 452 m 418 382 l 340 297 q 335 291 339 296 q 328 284 330 286 q 322 277 326 282 q 315 269 317 272 q 309 261 313 267 q 303 253 305 256 q 299 245 301 250 q 295 236 296 240 q 293 227 294 232 q 292 218 292 222 q 309 181 292 197 q 352 157 326 165 q 402 145 378 149 q 446 142 426 142 q 581 168 505 142 q 708 227 656 193 q 761 289 761 262 q 716 333 761 314 q 610 362 672 353 q 496 377 547 372 q 418 382 446 382 z "},"C":{"ha":993,"x_min":-12,"x_max":1021,"o":"m 484 440 l 586 530 q 657 585 640 585 q 671 553 680 585 l 673 550 q 833 717 770 633 q 896 838 896 801 q 886 862 896 855 q 859 865 876 869 q 846 863 858 865 q 822 857 833 861 q 789 846 810 853 q 744 825 768 838 q 690 794 721 812 q 625 747 660 775 q 550 683 589 718 q 462 597 510 647 q 364 489 414 547 q 243 298 291 403 q 196 115 196 194 q 233 -1 196 40 q 343 -41 270 -41 q 492 -5 405 -41 q 667 88 580 31 q 827 199 755 144 q 956 302 899 253 q 949 244 958 268 q 929 207 941 220 q 885 163 918 194 q 692 0 788 69 q 515 -108 595 -70 q 370 -164 435 -146 q 253 -182 305 -182 q 62 -113 136 -182 q -12 74 -12 -44 q 16 227 -12 147 q 92 380 44 307 q 191 515 139 453 q 301 632 243 577 q 419 733 350 679 q 569 841 488 787 q 734 931 651 895 q 876 966 818 966 q 978 933 940 966 q 1018 835 1015 899 q 964 671 1021 768 q 826 489 907 574 q 651 339 744 404 q 494 265 558 275 q 440 280 463 261 q 416 332 416 299 q 484 440 416 382 z "},"D":{"ha":1116,"x_min":75,"x_max":1177,"o":"m 619 661 l 313 261 q 284 215 292 235 q 278 187 277 196 q 283 167 279 178 q 363 142 299 143 q 518 158 431 141 q 682 201 604 175 q 866 285 787 239 q 988 381 944 332 q 1054 478 1033 430 q 1075 574 1075 526 q 802 754 1075 724 q 665 764 767 758 q 648 707 656 728 q 619 661 639 687 m 256 345 l 587 758 q 289 693 418 743 l 289 690 l 326 690 q 333 691 327 690 q 344 691 338 691 q 358 691 350 691 q 374 690 367 691 q 388 687 381 689 q 398 682 394 686 q 401 675 401 679 q 387 657 401 664 q 358 650 372 651 q 249 621 334 646 q 127 596 164 596 q 89 608 103 596 q 75 644 75 621 q 94 741 75 658 q 138 821 107 792 q 227 875 169 849 q 458 945 326 918 q 699 972 591 972 q 880 955 789 972 q 1031 899 970 938 q 1140 769 1103 852 q 1177 591 1177 685 q 1149 450 1177 519 q 1073 325 1121 381 q 968 223 1025 269 q 847 140 912 177 q 567 30 732 76 q 273 -16 401 -16 q 154 0 182 -16 q 122 74 122 16 q 133 147 122 111 q 168 221 144 183 q 208 282 191 260 q 256 345 224 305 z "},"E":{"ha":975,"x_min":29,"x_max":1040,"o":"m 1039 856 q 1040 826 1040 836 q 1039 804 1040 815 q 1035 787 1039 793 q 1027 775 1031 781 q 1012 765 1023 769 q 991 756 1002 760 q 962 746 981 752 q 880 711 924 733 q 807 673 836 689 q 768 656 778 657 q 759 659 764 654 q 753 669 753 663 q 785 713 753 682 q 848 768 817 743 q 669 755 755 769 q 524 720 583 741 q 420 673 464 699 q 355 625 376 648 q 338 587 335 602 q 349 565 340 572 q 779 534 401 526 q 872 504 872 534 q 854 456 872 486 q 821 414 836 427 q 689 378 798 393 q 501 333 588 361 q 358 274 414 304 q 261 211 302 243 q 203 154 221 179 q 186 113 186 129 q 216 82 186 94 q 302 68 247 70 q 631 117 446 60 q 720 153 675 130 q 826 213 764 176 q 909 264 887 251 q 901 135 915 182 q 829 41 886 88 q 785 8 811 26 q 710 -33 760 -9 q 607 -75 661 -57 q 475 -106 552 -94 q 317 -117 397 -118 q 126 -86 229 -115 q 57 -25 84 -74 q 29 71 29 24 q 45 135 29 100 q 99 213 60 170 q 197 295 138 255 q 349 374 255 334 q 561 443 444 414 l 561 447 q 400 460 469 450 q 290 485 332 470 q 224 520 249 499 q 190 561 199 541 q 180 607 180 582 q 204 696 180 650 q 281 789 229 742 q 409 872 334 836 q 596 932 484 909 q 840 956 709 956 q 858 956 842 956 q 881 956 874 956 q 906 955 888 956 q 934 954 924 955 q 960 950 944 952 q 986 945 976 949 q 1008 938 997 942 q 1026 928 1019 934 q 1036 914 1033 922 l 1039 856 z "},"F":{"ha":965,"x_min":65,"x_max":1075,"o":"m 743 237 l 505 -12 q 426 -88 475 -43 q 315 -174 376 -132 q 225 -216 254 -216 q 201 -207 210 -216 q 192 -182 192 -197 q 220 -114 192 -156 q 277 -43 249 -72 q 341 12 308 -7 q 421 45 374 31 l 583 216 l 376 200 q 335 202 362 198 q 306 218 308 205 q 342 314 296 284 q 429 353 372 334 q 529 380 486 373 l 742 421 q 843 588 785 479 q 900 742 900 696 q 897 755 900 750 q 892 763 895 761 q 881 767 889 766 q 870 768 873 768 q 856 768 867 768 l 854 769 q 850 769 853 769 q 843 769 848 769 q 829 768 838 769 q 809 766 821 768 q 780 763 798 765 q 741 757 762 760 q 273 627 471 712 l 277 624 l 349 625 q 375 612 375 625 q 373 605 375 608 q 367 600 370 602 q 358 595 363 597 q 349 592 353 593 q 340 590 346 591 q 334 589 335 589 l 172 539 q 103 524 127 526 q 72 530 78 523 q 65 551 65 537 q 106 656 65 578 q 172 764 148 734 q 236 817 197 795 q 300 846 274 838 q 382 865 327 853 q 669 925 552 904 q 833 949 786 945 q 932 953 880 953 q 1075 879 1075 953 q 998 659 1075 810 q 857 412 922 507 l 950 397 l 895 309 q 889 299 893 306 q 884 290 886 293 q 879 282 882 288 q 872 275 876 277 q 866 269 869 272 q 857 264 862 266 q 824 253 844 258 q 778 243 804 248 q 743 237 751 239 z "},"G":{"ha":968,"x_min":43,"x_max":1026,"o":"m 627 319 l 472 207 q 448 189 470 205 q 418 166 425 172 q 389 145 411 161 q 355 123 366 130 q 323 104 344 117 q 289 86 302 92 q 258 74 275 80 q 226 65 241 67 q 199 65 212 64 q 82 128 121 74 q 43 260 43 182 q 94 441 43 343 q 214 610 146 540 q 289 682 245 645 q 402 764 333 720 q 549 845 471 808 q 731 912 627 882 q 945 954 835 942 q 1002 930 981 958 q 1019 889 1013 916 q 1026 842 1026 863 q 1011 801 1026 817 q 970 766 997 784 q 737 640 776 640 q 724 646 729 640 q 720 660 720 652 q 757 700 720 673 l 815 747 l 812 750 q 620 673 713 721 q 456 574 526 626 q 328 466 387 522 q 234 361 269 410 q 180 275 198 312 q 165 220 161 237 q 182 181 172 195 q 214 167 193 167 q 309 210 253 167 l 817 596 q 848 614 834 614 q 900 590 862 614 q 935 553 935 572 q 916 504 935 542 q 853 392 888 450 q 755 238 819 334 q 661 94 691 141 l 664 92 l 970 289 q 963 237 968 250 q 886 158 951 207 q 787 89 850 131 l 564 -62 q 496 -144 540 -95 q 398 -244 452 -193 q 290 -332 345 -296 q 203 -368 236 -368 q 165 -352 178 -368 q 151 -310 153 -335 q 225 -160 149 -242 q 407 -26 301 -78 q 629 317 562 172 l 627 319 z "},"H":{"ha":1251,"x_min":89,"x_max":1354,"o":"m 818 241 l 562 208 l 418 39 q 406 22 415 35 q 391 0 397 9 q 376 -19 385 -8 q 357 -35 366 -29 q 338 -40 347 -40 q 292 -22 314 -40 q 269 20 269 -3 q 326 112 269 42 q 387 192 382 182 q 280 200 315 186 q 245 249 245 214 q 272 315 245 276 q 323 354 298 354 q 339 349 328 354 q 355 345 350 345 q 364 346 359 345 q 382 351 369 347 q 416 360 395 355 q 480 374 436 365 q 583 395 525 384 q 859 693 675 485 q 917 789 917 755 q 901 812 917 806 q 868 819 886 819 q 686 781 812 819 q 392 673 560 743 q 411 653 411 665 q 376 619 411 630 q 314 596 338 606 q 280 582 290 587 q 239 561 269 577 q 186 533 210 545 q 131 514 146 514 q 99 534 109 514 q 89 578 89 554 q 103 657 89 609 q 136 730 118 706 q 497 889 191 792 q 704 939 587 918 q 907 960 821 960 q 979 948 948 960 q 1026 917 1009 937 q 1050 873 1042 897 q 1057 823 1057 850 q 1046 765 1057 795 q 1013 706 1035 736 q 974 656 991 675 q 930 607 957 636 q 918 595 922 599 l 761 428 l 975 453 l 1226 768 q 1331 868 1301 868 q 1354 836 1354 868 q 1335 764 1354 800 q 1240 637 1315 728 l 1090 453 q 1158 451 1139 452 q 1215 442 1178 450 q 1279 418 1253 434 q 1112 232 1178 338 q 971 241 1047 247 q 945 202 968 237 q 910 141 922 166 q 899 98 899 117 q 901 73 899 87 q 908 41 903 60 q 914 16 913 23 q 836 -8 892 20 q 762 -31 780 -37 q 737 39 728 -19 q 818 241 749 113 z "},"I":{"ha":684,"x_min":69,"x_max":781,"o":"m 256 517 l 290 524 q 343 532 337 532 q 352 528 348 532 q 355 518 355 524 q 350 503 355 511 q 340 491 345 495 q 326 479 336 487 q 314 471 315 472 q 297 458 313 470 q 271 438 281 446 q 244 420 260 431 q 217 404 229 410 q 197 399 205 399 q 121 437 174 399 q 72 501 69 475 q 139 662 79 578 q 284 812 200 747 q 467 920 369 877 q 643 962 564 962 q 745 919 710 962 q 781 807 781 875 q 755 681 781 756 q 693 531 730 605 q 608 373 656 457 q 520 230 559 290 q 444 117 482 171 q 439 51 455 90 q 394 -14 422 13 q 345 -43 366 -41 q 292 -24 319 -45 q 265 22 265 -3 q 289 77 265 43 q 559 507 460 322 q 659 749 659 692 q 649 787 659 769 q 621 806 640 806 q 432 706 557 798 q 256 517 308 614 z "},"J":{"ha":755,"x_min":-46,"x_max":831,"o":"m 479 131 l 197 -196 q 144 -254 172 -226 q 75 -314 117 -283 q 8 -346 33 -346 q -31 -325 -16 -346 q -46 -281 -46 -304 q 53 -93 -46 -200 q 379 149 153 15 l 578 482 q 708 840 684 662 q 435 645 554 788 q 286 339 317 502 q 380 395 376 395 q 390 391 386 395 q 393 383 393 388 q 384 364 393 377 q 364 340 374 351 q 340 315 354 329 q 325 298 327 300 q 312 284 323 296 q 297 268 302 273 q 282 251 293 263 q 264 234 271 239 q 247 218 258 228 q 227 203 236 208 q 208 192 218 198 q 189 184 198 186 q 170 182 179 182 q 144 189 155 182 q 127 207 133 197 q 119 233 122 217 q 116 260 116 250 q 115 286 115 271 q 144 438 115 351 q 212 596 174 524 q 313 740 254 675 q 430 844 372 804 q 548 912 488 884 q 653 951 608 940 q 730 962 699 962 q 799 930 766 962 q 831 873 831 899 q 820 792 831 836 q 781 675 810 748 q 693 489 753 602 q 543 224 633 376 l 546 221 l 707 292 l 725 248 l 479 131 z "},"K":{"ha":1166,"x_min":98,"x_max":1329,"o":"m 210 79 l 416 346 q 404 365 408 359 q 397 381 400 371 q 393 404 393 392 q 417 467 393 441 q 481 513 441 492 l 628 589 l 762 800 q 573 746 658 775 q 433 691 489 716 q 262 609 378 666 q 221 589 235 595 q 142 562 167 562 q 110 573 122 562 q 98 604 98 585 q 134 734 98 631 q 140 753 137 745 q 146 767 144 761 q 154 779 149 772 q 161 788 159 785 q 171 797 163 791 q 181 805 178 803 q 194 815 184 808 q 210 827 205 823 l 286 884 q 329 904 317 904 q 343 889 343 904 q 343 882 343 884 q 336 873 342 881 q 318 856 330 866 q 279 822 306 845 l 282 819 q 357 849 291 823 q 477 895 423 876 q 615 934 530 914 q 774 958 701 954 q 809 954 799 960 q 839 925 820 947 q 879 847 879 875 q 877 832 879 840 q 870 816 875 825 q 863 802 865 807 q 853 787 860 798 q 844 774 846 776 l 774 671 l 777 668 l 1219 878 q 1303 909 1293 909 q 1329 884 1329 909 q 1320 860 1329 878 q 1293 819 1311 842 q 1254 776 1276 796 q 1205 746 1233 756 q 1150 743 1177 736 l 640 489 q 608 437 608 467 q 612 422 608 429 q 625 408 616 414 q 640 397 633 401 q 658 387 646 393 q 672 379 669 381 l 1023 175 q 1070 146 1052 159 q 1110 113 1089 133 q 1141 70 1131 94 q 1152 17 1152 45 q 1144 -29 1152 -7 q 1117 -52 1136 -52 q 1047 -21 1098 -52 l 498 281 l 387 147 q 325 43 388 100 q 218 -14 262 -14 q 192 -6 203 -14 q 180 17 180 2 q 210 79 180 43 z "},"L":{"ha":972,"x_min":-78,"x_max":1032,"o":"m 106 40 l 75 26 q 43 14 66 23 q 1 -1 20 4 q -35 -7 -18 -7 q -78 22 -78 -7 q -72 45 -78 31 q -53 78 -65 60 q -32 108 -41 96 q -8 139 -23 120 q 8 160 6 158 q 37 193 27 186 q 52 199 44 197 q 145 213 83 206 q 231 225 206 220 l 635 705 q 697 773 656 731 q 789 861 739 814 q 888 940 839 907 q 962 972 937 972 q 1014 944 996 972 q 1032 882 1032 916 q 1012 802 1032 850 q 971 715 992 753 q 916 622 949 677 q 873 551 882 567 q 899 532 899 548 q 821 452 899 505 q 802 438 818 450 q 775 418 786 427 q 748 400 764 410 q 720 385 732 390 q 700 379 707 379 q 668 421 668 379 q 687 505 668 458 q 737 598 706 551 q 796 681 768 646 q 854 751 824 717 q 862 764 860 758 q 863 774 865 770 q 857 778 862 778 q 625 546 828 778 l 347 228 q 905 110 700 159 l 832 36 q 769 -20 787 -9 q 675 -35 736 -41 q 476 1 630 -31 q 106 40 273 45 z "},"M":{"ha":1587,"x_min":58,"x_max":1670,"o":"m 650 216 l 745 340 q 884 533 838 462 q 970 679 931 605 q 984 714 981 701 q 984 734 987 728 q 972 739 981 739 q 929 710 955 739 l 596 349 l 387 68 q 378 55 386 66 q 367 41 370 45 q 356 27 364 37 q 344 13 349 18 q 331 2 339 9 q 316 -8 323 -5 q 301 -14 310 -12 q 285 -17 293 -17 q 258 -8 271 -17 q 236 13 245 1 q 218 44 227 24 q 203 77 208 64 q 192 111 199 90 q 183 136 185 132 l 473 503 q 571 791 635 791 q 528 775 560 791 q 353 691 430 730 q 240 633 276 653 q 179 599 204 614 q 143 580 153 585 q 123 574 132 576 q 96 572 115 572 q 68 586 78 572 q 62 624 58 600 q 70 667 64 635 q 78 712 75 699 q 85 745 81 725 q 92 774 89 765 q 98 787 95 784 q 121 812 109 802 q 227 889 142 829 q 261 908 250 908 q 272 904 267 908 q 278 895 278 900 q 204 814 278 878 l 207 811 l 364 884 q 405 902 365 884 q 484 936 444 920 q 566 967 523 953 q 627 981 610 981 q 641 978 635 981 q 652 974 648 976 q 660 966 656 972 q 666 958 665 961 q 673 947 668 956 q 679 936 677 939 l 713 878 q 729 825 729 846 q 687 695 729 798 q 643 583 646 593 l 646 581 l 867 794 q 991 899 926 850 q 1093 949 1056 948 q 1133 941 1111 949 q 1175 909 1155 932 q 1194 852 1194 886 q 1180 783 1194 823 q 1136 691 1165 743 q 1086 607 1107 640 q 1029 519 1066 574 q 987 457 992 465 l 990 454 q 1149 595 1049 505 q 1336 759 1250 684 q 1503 897 1422 833 q 1517 910 1503 898 q 1536 926 1531 922 q 1553 936 1542 930 q 1573 942 1565 942 q 1634 894 1599 942 q 1670 822 1670 846 q 1666 806 1670 815 q 1658 789 1662 797 q 1646 770 1654 782 q 1633 753 1638 759 q 1620 737 1629 748 q 1610 725 1611 726 l 1394 463 q 1235 147 1235 267 q 1247 101 1235 123 q 1283 79 1260 79 q 1403 139 1317 79 q 1618 323 1489 199 l 1624 271 q 1555 179 1611 236 q 1431 69 1499 121 q 1289 -22 1362 16 q 1173 -61 1215 -61 q 1080 -12 1109 -61 q 1050 107 1050 38 q 1058 172 1050 138 q 1078 237 1067 207 q 1112 307 1090 267 q 1150 372 1134 346 q 1195 439 1166 398 q 1239 499 1225 480 q 1285 558 1254 519 q 1324 608 1316 598 l 1321 611 q 1227 531 1249 549 q 1153 467 1205 513 q 1080 400 1100 420 q 1018 339 1059 380 q 948 263 977 298 q 878 180 918 229 q 790 72 837 132 q 756 32 774 52 q 711 -11 738 12 q 668 -33 684 -33 q 625 -5 643 -33 q 601 53 608 22 q 595 107 595 83 q 605 148 595 125 q 624 182 616 170 q 650 216 633 195 z "},"N":{"ha":1161,"x_min":66,"x_max":1239,"o":"m 764 265 l 1000 700 l 997 703 q 667 368 776 492 q 605 290 649 347 q 490 137 561 232 q 406 24 419 42 q 393 6 397 12 q 379 -7 389 1 q 361 -16 369 -16 q 294 17 336 -16 q 252 72 252 49 q 265 103 252 81 q 460 443 331 204 q 589 732 589 682 q 584 754 589 747 q 567 761 580 761 q 415 702 530 761 q 134 532 301 642 q 92 514 110 514 q 66 575 66 514 q 92 675 66 623 q 154 769 117 727 q 231 847 191 812 q 303 902 271 882 q 349 921 336 921 q 359 918 354 921 q 364 909 364 914 q 360 901 364 907 q 338 872 357 894 q 289 821 319 850 l 292 818 q 360 856 341 846 q 434 893 380 866 q 523 933 489 920 q 601 958 556 946 q 677 970 645 970 q 743 949 716 970 q 766 892 769 928 q 721 732 761 817 q 545 410 680 648 q 525 374 532 386 l 528 371 q 746 626 651 519 q 884 774 840 732 q 947 831 927 817 q 978 852 956 836 q 1020 881 1001 868 q 1060 907 1038 893 q 1099 929 1082 922 q 1125 937 1116 937 q 1165 919 1138 937 q 1215 868 1192 901 q 1239 806 1239 836 q 1208 721 1239 776 q 1135 608 1177 667 q 1031 455 1092 549 q 928 275 971 361 q 885 161 885 189 q 921 104 885 104 q 1056 195 958 104 q 1198 342 1154 286 q 1202 306 1200 326 q 1204 279 1204 286 q 1189 248 1204 267 q 1050 87 1118 156 q 932 -17 983 19 q 845 -70 882 -53 q 783 -86 808 -86 q 712 -51 735 -86 q 689 35 689 -16 q 764 265 689 127 z "},"O":{"ha":887,"x_min":45,"x_max":939,"o":"m 768 764 l 770 762 q 895 750 849 785 q 937 640 935 718 q 914 496 939 572 q 845 349 889 420 q 738 212 801 277 q 605 98 675 146 q 454 21 535 50 q 296 -7 373 -7 q 229 2 261 -6 q 165 32 197 11 q 109 84 133 53 q 69 165 85 115 q 49 277 52 214 q 77 428 45 349 q 167 577 110 507 q 299 713 224 648 q 454 829 374 779 q 615 911 534 878 q 762 954 696 945 q 811 944 785 958 q 854 910 836 930 q 885 871 873 890 q 897 843 897 852 q 891 825 897 833 q 873 811 885 817 q 854 802 861 805 q 833 795 847 800 q 829 794 831 795 q 768 764 812 788 m 406 486 q 402 481 405 486 q 398 476 399 477 q 393 470 396 474 q 388 464 390 466 q 382 458 385 461 q 375 453 378 455 q 369 450 372 452 q 363 449 366 449 q 356 450 359 449 q 351 455 353 452 q 348 460 349 458 q 346 467 347 463 q 344 474 345 472 q 343 481 344 477 q 343 488 343 486 q 233 342 277 421 q 189 184 189 264 q 207 119 189 144 q 262 94 225 94 q 395 129 318 94 q 519 203 473 163 q 733 435 654 317 q 815 632 812 553 q 802 679 817 659 q 761 700 787 700 q 565 632 673 700 q 406 486 457 564 z "},"P":{"ha":1030,"x_min":64,"x_max":1099,"o":"m 294 231 l 237 136 q 264 111 264 130 q 201 9 264 94 q 193 -1 196 2 q 171 -31 180 -20 q 144 -54 162 -41 q 111 -66 127 -66 q 64 -17 64 -66 q 81 45 64 4 q 116 117 99 87 q 163 198 133 148 q 196 254 193 248 q 150 294 167 273 q 134 343 134 314 q 142 375 134 359 q 168 402 151 390 q 202 425 185 415 q 244 444 218 435 q 286 458 270 453 q 326 470 301 463 q 355 479 350 477 l 576 771 q 406 755 494 770 q 261 723 318 740 q 157 692 204 706 q 98 677 110 677 q 77 692 77 677 q 179 863 77 723 q 211 891 191 879 q 244 907 231 903 q 285 920 258 912 q 659 968 453 968 q 872 948 785 968 q 1008 890 960 929 q 1078 802 1057 852 q 1099 685 1099 753 q 1058 519 1099 597 q 943 383 1017 441 q 769 284 870 325 q 549 230 669 243 q 294 231 429 218 m 627 699 l 481 497 q 529 501 498 497 q 575 504 561 505 q 589 490 589 503 q 559 469 589 478 q 493 453 530 460 q 449 440 457 446 l 418 395 q 561 380 488 376 q 712 409 639 385 q 837 468 785 433 q 928 543 889 503 q 984 619 967 582 q 997 682 1002 656 q 948 733 991 711 q 844 765 904 755 q 736 779 783 774 q 657 783 689 783 q 650 739 656 756 q 627 699 643 722 z "},"Q":{"ha":948,"x_min":26,"x_max":1015,"o":"m 642 -39 l 178 33 q 153 16 174 31 q 120 -5 131 1 q 92 -19 110 -12 q 60 -26 74 -26 q 35 -20 43 -26 q 26 4 26 -13 q 55 119 26 58 q 117 203 83 180 q 144 214 128 211 q 174 217 161 218 q 213 216 186 217 q 256 215 240 215 q 490 354 382 281 q 671 488 599 427 q 795 607 743 550 q 870 705 846 664 q 893 770 893 745 q 835 800 893 800 q 727 778 804 800 q 542 708 650 756 q 355 603 435 660 l 355 600 q 387 601 371 600 q 414 602 404 601 q 436 603 425 602 q 454 603 448 603 q 468 602 461 603 q 478 600 474 602 q 484 596 481 599 q 488 589 487 593 q 489 579 489 585 q 461 555 489 562 q 241 478 352 536 q 190 477 202 460 q 178 578 178 494 q 176 646 175 617 q 191 692 178 675 q 349 802 227 739 q 613 911 471 865 q 843 957 756 957 q 966 907 917 957 q 1015 782 1015 858 q 1002 714 1015 749 q 970 647 989 679 q 919 579 951 616 q 856 513 886 542 q 782 448 827 484 q 706 388 737 412 q 625 331 674 364 q 551 281 576 298 q 480 235 525 264 q 424 199 436 207 q 689 149 614 161 q 810 136 764 136 q 880 145 834 136 q 933 154 926 153 q 857 -21 904 60 q 791 -52 842 -48 q 642 -39 741 -55 z "},"R":{"ha":1118,"x_min":65,"x_max":1189,"o":"m 602 627 l 498 469 l 844 559 q 933 593 880 569 q 1037 654 986 616 q 1088 722 1088 691 q 1047 752 1088 741 q 967 764 1006 762 q 907 764 928 766 l 650 746 q 649 728 650 737 q 647 712 648 719 q 642 697 646 706 q 636 683 637 688 q 628 668 634 678 q 620 655 622 658 q 611 641 618 652 q 602 627 603 629 m 833 17 l 319 207 l 200 33 q 171 -33 212 0 q 97 -66 130 -66 q 74 -59 83 -66 q 65 -37 65 -51 q 89 31 65 -9 l 218 243 q 171 262 193 249 q 151 294 148 276 q 217 393 161 352 q 366 437 274 435 l 571 734 q 466 716 505 724 q 372 694 427 709 q 272 663 316 680 l 272 660 q 299 657 285 659 q 322 656 313 656 q 340 654 331 655 q 356 653 350 654 q 368 652 362 653 q 377 650 374 651 q 382 647 380 648 q 386 642 385 645 q 387 636 387 640 q 378 625 387 629 q 361 621 368 621 l 253 610 q 214 605 241 608 q 164 598 186 601 q 123 596 141 596 q 89 604 104 596 q 74 629 74 612 q 98 715 74 661 q 144 798 121 769 q 388 903 194 857 q 790 949 582 949 q 853 948 823 949 q 924 942 882 947 q 1001 930 966 937 q 1072 908 1036 922 q 1133 874 1108 893 q 1173 825 1157 854 q 1189 758 1189 795 q 1159 636 1189 704 q 1089 536 1130 569 q 1053 509 1069 521 q 1014 487 1037 498 q 973 469 991 476 q 921 453 956 462 q 860 438 886 444 q 779 421 833 432 q 681 403 724 410 q 556 380 638 395 q 406 353 473 366 l 406 350 l 781 231 q 868 200 829 215 q 932 174 907 186 q 973 154 956 163 q 999 136 989 144 q 1011 123 1008 127 q 1018 113 1015 119 l 1021 107 q 1039 46 1034 82 q 1036 -18 1044 10 q 1006 -46 1028 -46 q 956 -34 989 -46 q 883 -4 923 -22 q 833 17 844 13 z "},"S":{"ha":989,"x_min":8,"x_max":1055,"o":"m 342 595 q 347 578 342 583 q 627 494 371 556 q 711 475 666 486 q 864 402 812 451 q 917 300 917 354 q 889 195 917 243 q 817 115 861 147 q 710 58 772 83 q 586 18 648 33 q 455 -6 524 3 q 333 -18 386 -15 q 232 -21 280 -21 q 8 60 8 -21 q 34 122 8 80 q 79 183 60 165 q 137 209 92 193 q 199 224 182 224 q 210 214 210 224 q 186 187 210 201 q 163 167 178 182 l 163 164 q 354 165 264 160 q 505 181 443 170 q 619 207 568 192 q 702 238 671 222 q 755 269 734 254 q 786 295 777 284 q 794 311 794 306 q 359 446 794 378 q 343 449 347 448 q 291 460 313 454 q 247 480 269 467 q 213 514 225 492 q 201 566 201 536 q 215 663 201 602 q 245 750 229 723 q 316 812 262 778 q 446 878 369 846 q 629 931 522 909 q 844 953 736 953 q 1019 933 925 953 q 1049 919 1042 928 q 1055 888 1055 910 q 1049 824 1055 849 q 1027 781 1043 799 q 992 753 1011 764 q 939 729 973 743 q 876 702 895 713 q 814 661 856 691 q 779 647 789 647 q 757 668 757 647 q 766 683 757 671 q 800 718 774 694 q 859 765 825 742 l 856 768 q 666 749 755 765 q 520 711 577 732 q 421 666 463 690 q 361 624 379 642 q 342 595 342 606 z "},"T":{"ha":940,"x_min":81,"x_max":1044,"o":"m 224 595 l 143 593 q 119 593 127 593 q 101 597 111 594 q 85 609 90 601 q 81 631 81 617 q 93 711 81 640 q 97 733 94 719 q 107 781 103 767 q 121 814 111 795 q 149 844 132 832 q 197 869 167 856 q 717 961 399 961 q 926 943 850 961 q 967 929 951 937 q 994 905 983 922 q 1010 877 1005 889 q 1024 835 1015 865 q 1042 785 1034 804 q 1044 769 1043 776 q 1040 753 1044 763 q 1033 735 1036 743 q 1022 717 1029 728 q 1011 700 1016 707 q 1000 684 1006 692 q 990 669 994 675 l 664 175 l 667 172 q 688 173 677 178 q 699 153 699 168 q 640 54 699 127 q 623 31 640 54 q 597 -1 606 9 q 572 -28 589 -11 q 543 -52 556 -45 q 517 -60 529 -60 q 465 -44 488 -60 q 441 -1 441 -28 q 459 79 441 31 q 513 186 477 126 q 579 293 549 245 q 660 407 610 340 q 729 500 709 474 q 787 575 749 526 l 926 753 q 224 646 549 747 l 224 643 q 242 640 227 642 q 272 634 258 637 q 301 627 286 631 q 326 616 317 623 q 335 602 335 610 q 321 587 335 589 q 275 591 307 586 q 224 595 243 595 z "},"U":{"ha":1213,"x_min":64,"x_max":1296,"o":"m 810 288 l 924 481 l 921 484 q 332 -5 406 -18 q 234 43 267 6 q 201 138 201 80 q 216 197 201 163 q 245 257 230 231 q 292 323 260 282 q 335 378 323 365 q 376 427 346 391 q 473 538 425 484 q 548 621 521 592 q 596 675 574 650 q 627 712 618 700 q 635 730 635 724 q 631 741 635 736 q 621 745 627 745 q 609 742 617 745 q 591 734 601 739 q 581 729 582 730 q 536 710 564 722 q 498 694 507 699 q 466 680 489 690 q 417 656 444 669 q 350 624 391 644 q 244 572 309 604 q 103 528 156 528 q 73 533 83 528 q 66 557 64 539 q 91 635 73 594 q 142 721 109 677 q 218 803 175 766 q 323 870 261 841 q 454 909 385 899 q 592 940 478 913 q 753 966 707 966 q 802 950 782 966 q 830 909 822 934 q 838 856 838 884 q 831 803 838 827 q 810 756 823 779 q 788 720 798 733 q 755 677 779 707 q 721 635 731 648 q 529 410 656 567 q 401 222 401 253 q 429 197 401 197 q 599 308 466 197 q 799 485 732 418 q 919 603 857 542 q 1016 700 981 665 q 1088 772 1050 735 q 1145 827 1125 808 q 1184 861 1164 845 q 1214 882 1203 877 q 1234 888 1225 888 q 1276 858 1261 888 q 1291 799 1291 828 q 1273 745 1296 782 q 1149 568 1250 708 q 1026 396 1075 465 q 946 269 976 326 q 908 188 916 212 q 901 150 901 164 q 917 110 901 126 q 954 94 932 94 q 997 105 971 94 q 1045 130 1023 116 q 1100 167 1067 143 q 1151 205 1133 191 q 1199 245 1168 220 q 1234 273 1230 270 q 1240 228 1240 234 q 1195 171 1240 213 q 1089 85 1150 129 q 959 6 1029 41 q 847 -28 889 -28 q 768 3 798 -28 q 737 82 737 33 q 755 181 737 136 q 810 288 774 227 z "},"V":{"ha":970,"x_min":71,"x_max":1091,"o":"m 262 542 l 340 546 q 350 547 342 546 q 365 547 359 547 q 379 546 372 547 q 392 541 387 545 q 396 532 396 538 q 391 521 396 526 q 377 513 386 516 q 361 509 369 511 q 346 506 354 507 q 335 504 337 505 q 226 473 280 493 q 141 438 172 452 q 102 424 110 424 q 78 449 85 424 q 71 497 71 475 q 89 595 71 548 q 142 675 106 642 q 432 844 203 730 q 733 960 662 958 q 797 917 766 960 q 827 851 827 873 q 774 746 827 827 q 475 186 481 280 q 481 127 472 155 q 511 106 491 100 q 538 119 526 111 q 582 157 551 127 q 651 238 612 188 q 755 385 690 289 q 904 612 821 481 q 927 714 897 653 q 999 817 958 776 q 1061 851 1040 859 q 1086 820 1081 844 q 1076 744 1091 795 q 1025 621 1061 692 q 915 438 988 549 q 741 195 842 328 q 717 164 737 191 q 684 121 697 137 q 648 76 671 104 q 606 28 625 47 q 567 -9 588 10 q 526 -38 545 -28 q 492 -47 507 -47 q 443 -32 471 -47 q 391 9 416 -16 q 351 71 367 34 q 335 144 334 107 q 345 204 336 171 q 379 305 353 238 q 468 487 406 372 q 623 755 530 602 l 619 758 q 490 695 536 718 q 377 630 444 672 q 260 545 310 588 l 262 542 z "},"W":{"ha":1358,"x_min":73,"x_max":1470,"o":"m 812 411 l 618 201 q 439 28 505 79 q 328 -24 374 -24 q 271 8 301 -24 q 221 81 240 41 q 207 144 203 121 q 209 158 207 146 q 213 176 211 171 q 225 201 215 181 q 251 242 235 222 q 296 302 266 262 q 368 390 327 342 q 471 508 409 437 q 612 665 534 579 q 625 680 614 668 q 641 697 636 691 q 651 714 646 703 q 656 733 656 724 q 642 760 656 751 q 607 768 627 768 q 408 710 553 768 q 197 611 264 651 q 104 578 144 578 q 92 581 98 578 q 79 595 85 584 q 73 625 73 606 q 82 678 73 643 q 111 758 91 713 q 122 779 116 769 q 133 794 127 788 q 146 808 138 800 q 160 820 155 816 q 177 833 165 824 q 195 847 189 842 l 290 922 q 321 937 305 937 q 327 935 324 937 q 330 926 330 933 q 323 909 330 920 l 285 865 l 288 863 q 353 886 296 866 q 429 912 409 907 q 492 931 448 918 q 571 948 536 943 q 642 953 606 952 q 684 951 668 953 q 720 941 700 949 q 753 916 740 932 q 783 848 769 893 q 796 775 796 804 q 792 742 796 758 q 768 687 789 727 q 709 594 747 648 q 595 447 671 541 q 411 228 519 353 q 410 176 376 187 q 491 234 419 172 q 702 435 563 296 q 993 749 840 575 q 1020 782 998 754 q 1058 827 1042 809 q 1101 861 1074 844 q 1152 878 1127 878 q 1195 844 1177 878 q 1213 787 1213 810 q 1165 701 1213 770 q 970 401 1083 587 q 857 161 857 215 q 863 145 856 152 q 876 140 869 138 q 982 211 923 162 q 1103 327 1041 259 q 1228 486 1166 394 q 1335 675 1290 578 q 1328 726 1328 696 q 1371 814 1328 760 q 1432 869 1414 869 q 1460 843 1450 869 q 1468 796 1470 817 q 1433 631 1466 722 q 1350 453 1400 540 q 1237 283 1300 367 q 1111 135 1174 199 q 988 28 1048 71 q 886 -20 928 -14 q 826 -6 861 -23 q 763 46 791 12 q 734 118 734 80 q 745 192 734 148 q 763 262 755 236 q 792 345 772 288 q 815 408 813 401 l 812 411 z "},"X":{"ha":956,"x_min":64,"x_max":1080,"o":"m 762 642 l 989 854 q 999 864 990 855 q 1013 876 1008 872 q 1026 886 1018 880 q 1042 895 1035 892 q 1055 897 1049 897 q 1080 868 1080 897 q 1041 770 1080 827 q 961 718 1001 713 l 751 517 l 724 193 q 722 176 724 189 q 720 156 720 162 q 721 140 720 151 q 726 125 722 130 q 738 117 730 121 q 757 113 745 113 q 807 126 779 113 q 877 169 836 140 q 921 200 918 198 l 946 164 q 863 78 915 124 q 748 -6 812 32 q 642 -45 685 -45 q 594 -27 612 -45 q 571 18 576 -9 q 565 74 567 44 q 566 128 564 104 q 567 139 567 136 l 578 350 l 314 102 q 127 -33 171 -33 q 100 -22 110 -33 q 90 7 90 -12 q 131 97 90 46 q 225 185 172 148 q 321 231 279 222 l 587 484 l 602 798 q 525 772 579 790 q 441 744 471 754 q 368 716 412 733 q 286 683 323 700 q 214 647 248 666 l 214 644 q 237 643 225 644 q 258 642 250 642 q 275 641 267 642 q 288 641 283 641 q 299 640 294 641 q 307 638 304 640 q 311 636 309 637 q 314 633 313 635 q 315 628 315 631 q 310 620 315 623 q 290 611 305 616 q 256 601 275 606 q 201 585 238 595 q 127 562 165 574 q 109 557 118 559 q 88 556 99 556 q 71 563 77 557 q 64 582 64 570 q 98 681 64 610 q 155 771 132 751 q 404 895 235 840 q 686 950 574 950 q 756 933 733 950 q 781 886 779 916 q 779 814 783 856 l 762 642 z "},"Y":{"ha":1030,"x_min":63,"x_max":1099,"o":"m 831 461 l 463 143 q 421 108 436 120 q 376 73 407 96 q 319 38 345 50 q 273 26 293 26 q 204 56 237 26 q 178 119 172 85 l 179 132 q 182 149 181 144 q 191 172 184 154 q 207 206 197 190 q 235 252 216 222 q 279 315 254 282 q 341 396 303 349 q 425 500 378 444 q 579 690 554 655 q 608 750 608 732 q 604 760 609 756 q 590 765 598 764 q 302 614 463 702 q 135 524 141 527 q 113 513 127 518 q 90 507 98 507 q 66 519 70 507 q 75 575 63 532 l 96 650 q 125 707 106 687 q 182 751 143 727 q 459 891 294 820 q 713 962 624 962 q 782 944 753 962 q 810 886 810 925 q 804 857 810 873 q 787 820 799 840 q 766 783 776 800 q 738 742 755 766 q 711 706 720 718 q 684 671 702 694 q 664 646 667 649 q 580 540 622 592 q 514 457 538 488 q 466 398 490 427 q 431 353 443 368 q 410 323 420 338 q 397 299 401 308 q 393 281 394 290 q 401 264 393 271 q 428 262 410 258 q 467 283 446 266 q 574 370 526 333 q 688 465 623 407 q 956 707 753 522 q 971 721 958 708 q 992 740 984 733 q 1014 755 1001 747 q 1034 762 1026 762 q 1078 733 1058 762 q 1099 679 1099 703 q 1092 653 1099 667 q 1063 608 1084 638 q 1017 545 1042 578 q 941 441 991 511 q 838 297 890 372 q 690 81 714 121 q 673 12 650 14 q 684 14 679 12 q 701 23 689 16 q 729 41 713 31 q 781 71 745 51 q 860 113 816 90 q 909 135 887 126 q 947 146 932 143 q 973 148 962 149 q 988 142 983 146 q 993 131 993 138 q 960 86 993 116 q 908 45 928 56 q 727 -101 827 -16 q 582 -241 628 -186 q 512 -312 536 -294 q 456 -335 481 -335 q 411 -315 428 -335 q 395 -267 395 -296 q 448 -114 395 -218 q 579 104 502 -10 q 722 311 656 219 q 833 458 789 403 l 831 461 z "},"Z":{"ha":894,"x_min":75,"x_max":971,"o":"m 469 296 l 325 232 q 253 199 283 214 q 216 178 224 184 q 201 171 208 173 q 184 168 195 168 q 163 187 163 168 q 166 205 163 191 q 179 245 170 219 q 199 300 188 272 q 202 309 199 302 q 205 317 204 315 q 208 325 205 319 q 212 332 210 330 q 215 338 213 334 q 220 345 218 342 q 227 351 223 348 q 235 358 231 355 q 350 425 269 384 q 509 502 431 466 q 595 542 587 538 q 775 648 736 620 q 814 710 814 676 q 797 737 814 726 q 764 747 781 747 q 518 685 663 747 q 83 456 373 623 q 91 557 85 516 q 109 638 96 598 q 143 708 121 678 q 200 768 165 739 q 285 827 235 798 q 512 917 375 878 q 750 956 648 956 q 971 789 971 956 q 954 705 971 744 q 912 639 937 666 q 847 584 887 612 q 774 540 807 557 q 696 499 742 523 q 625 461 650 476 q 751 411 709 446 q 803 298 792 376 q 874 316 850 314 q 902 314 899 318 q 904 302 905 310 q 904 301 904 302 q 899 284 904 291 q 872 267 895 278 q 803 239 850 256 q 575 -115 768 55 q 379 -244 509 -175 q 192 -314 250 -314 q 120 -284 165 -314 q 75 -228 75 -254 q 98 -164 75 -202 q 170 -76 121 -126 q 288 27 219 -26 q 457 140 356 81 q 676 252 559 199 q 671 280 676 266 q 652 307 666 294 q 615 325 637 320 q 555 324 593 330 q 469 296 517 317 m 657 167 q 488 67 571 124 q 351 -38 405 11 q 263 -126 296 -87 q 229 -178 229 -164 q 235 -188 229 -183 q 245 -192 241 -192 q 340 -156 278 -192 q 465 -69 401 -121 q 584 48 528 -17 q 657 167 639 114 z "},"[":{"ha":528,"x_min":77,"x_max":783,"o":"m 488 -182 l 77 -182 l 378 981 l 783 981 l 746 859 l 524 859 l 286 -60 l 526 -60 l 488 -182 z "},"\\":{"ha":464,"x_min":196,"x_max":396,"o":"m 396 -54 l 300 -54 l 196 935 l 290 935 l 396 -54 z "},"]":{"ha":528,"x_min":-66,"x_max":640,"o":"m 229 981 l 640 981 l 339 -182 l -66 -182 l -29 -60 l 193 -60 l 431 859 l 191 859 l 229 981 z "},"^":{"ha":897,"x_min":232,"x_max":839,"o":"m 839 332 l 745 332 l 533 796 l 322 332 l 232 332 l 493 884 l 578 884 l 839 332 z "},"_":{"ha":694,"x_min":0,"x_max":694,"o":"m 0 -104 l 694 -104 l 694 -174 l 0 -174 l 0 -104 z "},"`":{"ha":486,"x_min":59,"x_max":427,"o":"m 138 718 l 220 693 q 387 633 358 652 q 414 608 401 624 q 427 576 427 591 q 407 564 427 564 q 361 575 389 564 q 229 604 315 592 q 111 610 165 612 q 64 614 70 607 q 62 667 59 622 q 63 681 63 671 q 64 695 64 690 q 66 707 64 701 q 72 718 68 714 q 80 724 75 721 q 94 726 86 726 q 138 718 111 726 z "},"a":{"ha":676,"x_min":-44,"x_max":686,"o":"m 429 385 q 264 326 334 355 q 156 271 195 296 q 94 220 117 246 q 65 174 71 193 q 58 131 58 154 q 61 119 60 125 q 70 107 63 114 q 86 103 77 101 q 136 121 114 109 q 432 382 220 168 l 429 385 m 354 197 l 227 94 q 79 1 110 1 q 32 27 60 1 q -19 92 3 52 q -43 165 -41 132 q -7 268 -44 215 q 91 365 31 321 q 220 444 151 408 q 358 499 290 479 q 473 521 425 519 q 539 497 515 522 q 564 454 564 473 q 515 419 564 435 q 555 363 555 403 q 525 306 555 345 q 465 225 495 268 q 435 155 435 183 q 447 130 435 138 q 478 122 460 122 q 535 138 505 122 q 617 191 566 153 q 675 233 669 229 l 686 182 q 527 44 634 122 q 372 -35 419 -35 q 322 -14 339 -35 q 306 39 306 7 q 357 195 306 91 l 354 197 z "},"b":{"ha":555,"x_min":0,"x_max":621,"o":"m 326 475 l 110 262 q 103 182 98 218 q 126 127 107 147 q 171 110 144 106 q 195 116 184 112 q 217 131 205 121 q 233 145 229 142 q 250 165 237 149 q 264 182 263 181 q 244 236 244 215 q 275 327 244 275 q 352 416 306 378 q 437 453 398 453 q 470 435 460 453 q 479 392 479 416 q 470 338 479 366 q 438 268 460 310 q 412 218 416 227 q 467 221 439 214 q 513 239 494 228 q 559 269 532 250 l 574 224 q 475 157 529 177 q 351 135 421 136 q 103 -12 210 -12 q 58 3 77 -12 q 28 39 39 18 q 11 90 17 61 q 2 142 4 119 q 0 189 0 165 q 192 643 0 414 q 406 846 276 744 q 581 947 536 947 q 610 932 600 947 q 621 896 621 918 q 598 811 621 860 q 544 719 575 763 q 468 623 512 674 q 392 540 423 572 q 326 475 361 508 m 504 828 q 160 410 273 633 l 163 407 q 308 557 245 489 q 402 664 370 626 q 459 740 434 701 q 490 789 485 779 q 507 825 495 799 l 504 828 z "},"c":{"ha":498,"x_min":-4,"x_max":526,"o":"m 269 349 l 153 261 q 111 223 125 241 q 97 179 97 205 q 125 128 97 151 q 203 104 153 104 q 280 118 240 104 q 369 163 321 132 q 439 210 418 195 q 510 264 461 226 l 526 210 q 450 135 490 171 q 359 63 410 100 q 255 4 309 26 q 154 -18 201 -18 q 66 12 102 -18 q 13 86 29 41 q -4 184 -4 131 q 11 281 -4 241 q 52 348 26 321 q 127 412 77 374 q 266 495 183 455 q 401 534 348 534 q 464 471 464 534 q 435 390 464 435 q 371 317 406 346 q 317 288 336 288 q 283 307 295 288 q 269 349 271 326 z "},"d":{"ha":696,"x_min":-9,"x_max":757,"o":"m 697 648 l 555 429 q 535 398 552 424 q 512 363 519 373 q 492 329 506 353 q 472 290 478 305 q 458 255 466 275 q 446 215 450 234 q 443 178 443 196 q 475 109 443 109 q 538 136 496 109 q 632 203 581 163 q 694 250 683 243 l 704 204 q 395 -14 507 -14 q 339 17 358 -14 q 321 86 321 47 q 332 192 321 123 q 283 148 322 184 q 216 87 245 113 q 150 39 186 62 q 92 16 113 16 q 38 52 63 16 q 2 129 14 87 q -9 197 -9 170 q 20 292 -9 244 q 95 376 50 339 q 195 442 141 412 q 298 489 248 472 q 385 507 349 505 q 399 506 393 508 q 413 499 406 505 q 422 492 420 494 q 433 480 425 490 q 443 468 441 470 q 478 535 452 483 q 530 633 505 587 q 586 727 555 678 q 651 806 618 777 q 713 835 684 835 q 745 819 732 835 q 757 782 757 802 q 697 648 757 741 m 396 386 q 273 341 323 362 q 193 302 224 320 q 145 261 163 283 q 122 219 128 239 q 113 168 115 199 q 117 151 111 159 q 134 142 122 144 q 179 167 140 140 q 262 231 217 194 q 348 313 308 269 q 396 386 389 357 z "},"e":{"ha":496,"x_min":-13,"x_max":515,"o":"m 503 260 l 515 207 q 411 103 467 151 q 280 16 355 54 q 140 -22 205 -22 q 30 31 69 -22 q -11 160 -9 85 q 21 294 -13 227 q 107 412 54 361 q 230 495 161 463 q 366 526 299 527 q 465 460 465 526 q 450 402 465 432 q 399 339 434 373 q 295 269 363 304 q 131 201 226 233 l 127 171 q 150 117 125 134 q 214 100 176 100 q 255 104 234 100 q 302 122 277 109 q 344 143 328 135 q 390 173 360 151 q 429 202 420 195 q 470 234 437 208 q 503 260 502 259 m 139 269 q 245 323 195 288 q 319 388 295 359 q 343 431 344 418 q 338 443 343 438 q 326 446 333 448 q 219 383 272 431 q 139 269 166 335 z "},"f":{"ha":430,"x_min":-119,"x_max":504,"o":"m 31 -232 q 136 -113 97 -188 q 167 37 176 -39 q 66 49 108 34 q 3 -109 10 -47 q 31 -232 -4 -165 m 432 603 l 172 240 q 193 224 184 233 q 210 202 202 215 q 222 181 218 189 q 234 155 227 172 q 244 131 241 137 l 432 248 l 447 196 q 268 64 339 98 q 269 -12 272 43 q 243 -109 266 -60 q 186 -197 220 -157 q 112 -269 152 -237 q 32 -321 71 -302 q -37 -346 -7 -341 q -77 -331 -60 -349 q -102 -283 -94 -313 q -115 -228 -111 -254 q -119 -180 -119 -201 q -114 -127 -119 -155 q -95 -63 -109 -100 q -74 -11 -81 -26 q -46 50 -68 5 q -22 98 -24 96 q -53 137 -43 120 q -62 178 -62 154 q -60 197 -62 188 q -56 213 -58 206 q -48 226 -54 219 q -39 236 -41 233 q -26 246 -36 240 q -14 254 -17 252 q 1 263 -11 256 q 16 271 13 269 q 110 347 73 302 q 184 460 148 391 q 236 554 208 503 q 313 682 265 604 q 403 809 360 759 q 471 859 446 859 q 504 798 504 859 q 480 698 504 759 q 432 603 457 637 z "},"g":{"ha":615,"x_min":-14,"x_max":633,"o":"m 273 11 l 371 201 l 368 204 q 232 85 318 149 q 96 22 146 22 q 47 39 68 22 q 14 81 26 55 q -3 133 3 106 q -8 184 -8 159 q 24 288 -8 236 q 105 380 56 340 q 211 452 155 420 q 318 503 267 484 q 401 524 368 521 q 429 522 414 524 q 460 512 445 520 q 475 489 475 503 q 429 432 475 463 l 271 346 q 238 329 260 340 q 203 311 215 317 q 173 293 192 304 q 144 272 154 281 q 121 250 134 263 q 103 223 109 236 q 94 193 97 210 q 93 158 91 176 q 115 144 95 144 q 200 166 146 141 q 292 231 254 191 l 440 395 q 445 401 441 396 q 451 408 449 406 q 457 414 453 410 q 463 420 460 418 q 470 425 466 422 q 477 430 474 428 q 485 432 481 431 q 493 433 489 433 q 529 408 513 433 q 546 363 546 383 q 542 345 546 355 q 535 327 538 334 q 525 307 532 321 q 517 292 517 292 l 412 97 l 415 94 l 627 245 l 633 187 l 340 -32 q 153 -272 240 -192 q 18 -353 65 -353 q -5 -343 4 -353 q -14 -319 -14 -334 q 19 -235 -14 -285 q 102 -137 52 -185 q 195 -51 152 -88 q 273 11 238 -14 z "},"h":{"ha":614,"x_min":-14,"x_max":623,"o":"m 87 229 l 87 175 q 146 223 96 182 q 236 297 195 264 q 330 368 277 330 q 422 429 382 407 q 485 452 463 452 q 530 430 509 452 q 551 385 551 409 q 549 373 551 380 q 543 360 546 366 q 533 344 539 353 q 522 329 527 335 q 510 313 517 323 q 498 299 502 304 q 487 287 494 295 q 479 278 480 279 q 420 202 439 229 q 399 171 401 176 q 397 155 397 165 q 406 134 397 142 q 428 126 415 126 q 460 134 441 126 q 503 155 479 141 q 544 180 527 169 q 586 208 562 191 q 615 228 610 224 l 623 171 q 598 152 618 168 q 566 127 578 136 q 532 102 555 119 q 492 74 509 85 q 454 47 476 62 q 414 23 431 33 q 377 4 396 14 q 342 -9 358 -5 q 314 -14 326 -14 q 267 8 284 -14 q 250 60 250 30 q 259 112 250 85 q 289 172 268 139 q 321 222 310 205 q 363 277 333 239 q 396 318 394 315 l 393 321 q 246 204 314 266 q 144 103 178 143 q 83 37 110 64 q 41 11 56 11 q 13 27 24 11 q -4 70 1 44 q -12 115 -9 96 q -14 151 -14 135 q 7 270 -14 217 q 71 393 28 323 q 209 587 128 489 q 359 753 289 685 q 484 864 429 821 q 558 907 540 907 q 598 898 579 907 q 618 869 618 888 q 549 744 618 837 q 384 544 481 652 q 210 355 287 437 q 87 229 132 273 z "},"i":{"ha":386,"x_min":-18,"x_max":425,"o":"m 379 233 l 392 180 q 334 116 365 147 q 264 52 304 85 q 182 -1 224 19 q 102 -21 139 -21 q 35 6 63 -21 q -6 70 6 34 q -18 144 -18 106 q 10 268 -18 205 q 79 376 39 331 q 163 450 119 421 q 239 479 208 479 q 280 470 261 479 q 300 440 300 460 q 231 320 300 394 q 104 207 163 247 q 178 119 87 119 q 234 133 203 119 q 284 160 264 146 q 336 200 304 174 q 379 233 368 225 m 314 507 q 274 525 290 507 q 258 567 258 542 q 297 641 258 608 q 379 673 336 673 q 412 661 398 673 q 425 631 425 649 q 391 547 425 587 q 314 507 357 507 z "},"j":{"ha":498,"x_min":-85,"x_max":515,"o":"m 509 186 l 212 11 q 165 -65 202 -3 q 96 -175 127 -126 q 23 -266 64 -224 q -46 -309 -18 -309 q -75 -292 -66 -309 q -85 -253 -85 -275 q -62 -175 -85 -218 q -5 -94 -40 -133 q 64 -24 30 -55 q 131 31 98 7 l 309 375 q 166 323 268 363 q 7 272 65 283 q 37 356 24 315 q 56 408 50 398 q 83 430 62 418 q 122 449 104 442 q 175 468 140 455 q 219 485 182 471 q 281 507 256 498 q 337 524 305 516 q 386 532 368 532 q 447 481 447 529 q 415 396 447 458 l 271 117 l 273 114 l 500 248 l 509 186 m 404 571 q 364 588 380 571 q 349 631 349 606 q 388 705 349 672 q 469 737 427 737 q 502 725 488 737 q 515 694 515 713 q 481 611 515 651 q 404 571 448 571 z "},"k":{"ha":673,"x_min":-20,"x_max":693,"o":"m 663 871 q 582 741 663 838 q 406 548 501 644 q 207 349 311 452 q 83 224 103 245 l 81 186 q 174 267 121 222 q 303 371 227 311 q 446 470 379 431 q 545 509 512 509 q 597 476 577 509 q 616 408 616 443 q 602 348 616 378 q 565 297 587 319 q 511 253 544 276 q 451 215 477 230 q 389 182 425 201 q 336 153 353 163 q 355 127 350 134 q 372 111 361 121 q 396 96 384 100 q 427 92 409 92 q 679 248 480 89 l 693 191 q 659 160 688 186 q 613 119 630 134 q 565 79 596 105 q 510 37 533 52 q 459 3 487 21 q 407 -22 431 -14 q 364 -31 383 -31 q 314 -19 339 -31 q 271 7 289 -7 q 231 48 252 22 q 198 91 210 75 q 170 134 187 107 q 165 142 167 140 q 92 47 128 108 q 70 17 81 28 q 41 5 59 5 q 12 26 24 5 q -7 78 -1 47 q -17 133 -14 108 q -20 174 -20 157 q -15 218 -20 195 q -4 256 -9 241 q 15 298 1 272 q 35 333 29 323 q 60 372 41 342 q 83 408 79 402 q 275 640 153 518 q 496 835 396 762 q 628 907 597 909 q 653 896 643 905 q 663 871 663 886 m 297 193 l 428 283 q 440 292 429 285 q 455 303 450 300 q 469 315 460 307 q 482 329 477 323 q 491 342 487 334 q 494 357 494 350 q 488 365 494 362 q 476 368 482 368 q 355 315 439 368 q 244 224 271 261 q 297 193 274 214 z "},"l":{"ha":416,"x_min":-8,"x_max":472,"o":"m 151 395 l 154 392 q 285 546 225 458 q 364 696 345 634 q 259 590 315 672 q 151 395 203 508 m 422 248 l 441 205 q 405 167 412 174 q 365 129 397 160 q 317 85 333 97 q 271 49 302 73 q 218 15 239 25 q 168 -4 196 5 q 115 -14 140 -14 q 53 2 79 -14 q 15 46 28 18 q -3 103 3 75 q -8 167 -8 132 q 34 385 -8 274 q 144 581 75 495 q 325 780 239 699 q 443 861 410 861 q 465 844 458 861 q 471 810 472 827 q 460 730 467 765 q 431 645 452 694 q 373 544 410 595 q 274 420 337 492 q 123 264 212 349 q 112 220 114 246 q 114 168 109 193 q 183 109 137 109 q 422 248 269 109 z "},"m":{"ha":986,"x_min":-16,"x_max":1004,"o":"m 690 286 l 469 83 q 449 64 467 82 q 423 38 431 45 q 398 19 414 31 q 368 1 382 6 q 340 -4 354 -4 q 298 13 315 -4 q 279 54 280 29 q 306 138 279 84 q 401 296 333 191 q 407 304 404 298 q 410 314 410 311 q 400 323 410 323 q 346 281 389 323 q 131 40 197 123 q 71 1 98 1 q 30 19 47 1 q 2 62 12 36 q -11 114 -7 89 q -16 160 -16 138 q 25 302 -15 225 q 121 427 66 378 q 216 471 176 476 q 228 470 218 471 q 242 468 238 469 q 255 465 247 467 q 268 459 264 463 q 276 451 273 456 q 279 439 279 446 q 278 428 279 434 q 273 416 276 422 q 266 404 271 411 q 258 391 262 396 q 249 379 255 387 q 240 368 243 372 q 231 358 237 365 q 224 350 224 351 q 188 312 216 341 q 147 265 159 283 q 135 250 144 261 q 121 232 125 238 q 112 214 116 225 q 107 193 107 203 q 110 185 107 191 q 117 180 113 180 q 144 203 122 180 q 226 284 181 241 q 337 386 271 328 q 460 483 402 445 q 550 521 519 521 q 592 503 577 521 q 607 457 607 485 q 583 387 607 430 q 523 295 558 345 q 478 229 487 245 l 481 227 l 789 469 q 854 509 838 509 q 865 500 859 509 q 877 481 871 492 q 884 469 883 470 q 889 460 884 468 q 897 448 895 452 q 902 438 899 445 q 907 425 905 431 q 908 414 908 419 q 865 343 908 389 q 769 228 789 260 q 747 170 749 196 q 757 144 746 157 q 781 135 768 132 q 812 144 800 140 q 869 176 824 149 q 996 258 915 203 l 1004 193 q 981 175 1002 192 q 951 151 960 159 q 917 124 941 143 q 878 95 892 106 q 838 66 863 84 q 797 38 814 49 q 758 15 780 28 q 720 -5 736 2 q 688 -17 704 -12 q 661 -22 673 -22 q 611 2 631 -22 q 590 58 590 27 q 596 101 590 78 q 617 153 602 123 q 641 197 633 183 q 670 247 648 212 q 693 283 692 283 l 690 286 z "},"n":{"ha":639,"x_min":-22,"x_max":661,"o":"m 567 205 l 650 275 l 661 214 q 596 151 645 199 q 511 70 547 102 q 427 7 475 37 q 343 -22 378 -22 q 286 4 306 -22 q 265 69 265 31 q 272 112 265 89 q 285 153 278 136 q 309 197 292 170 q 333 236 326 224 q 361 276 340 247 q 385 309 382 304 l 382 311 q 168 98 267 227 q 89 16 117 34 q 58 4 71 4 q 21 18 37 4 q -3 54 5 32 q -15 98 -12 77 q -20 139 -19 119 q 29 298 -22 208 q 144 443 80 389 q 168 457 157 454 q 199 460 179 460 q 237 456 221 459 q 260 451 252 454 q 271 444 267 449 q 275 437 275 439 q 275 431 275 435 q 275 429 275 430 q 248 375 275 411 q 188 307 220 340 q 127 243 155 275 q 100 201 100 212 q 104 191 100 195 q 115 186 109 186 q 143 205 127 186 q 287 347 195 271 q 454 471 378 423 q 550 518 529 518 q 572 492 562 518 q 593 416 588 452 q 575 379 593 401 q 532 330 557 356 q 483 277 507 304 q 440 219 458 250 q 422 161 422 188 q 430 144 422 152 q 447 136 437 136 q 567 205 484 136 z "},"o":{"ha":550,"x_min":-19,"x_max":567,"o":"m 553 267 l 567 208 q 468 122 519 148 q 342 96 417 96 q 127 -8 240 -8 q 29 46 71 -8 q -17 191 -13 100 q 14 320 -19 264 q 110 424 47 375 q 235 496 165 469 q 370 526 305 523 q 421 515 397 528 q 446 476 446 502 q 440 459 446 467 q 430 448 435 451 q 414 439 425 444 q 453 411 443 431 q 464 357 464 391 q 463 332 464 344 q 457 307 461 319 q 451 284 454 294 q 442 260 448 275 q 432 239 435 245 q 421 215 429 233 q 410 193 412 198 q 453 196 431 189 q 487 213 474 203 q 522 241 500 222 q 553 267 544 260 m 297 375 q 268 358 290 371 q 233 338 245 346 q 202 319 221 331 q 169 296 184 307 q 143 273 155 285 q 103 213 119 250 q 86 146 86 177 q 147 93 86 93 q 189 102 169 93 q 221 120 210 111 q 254 149 233 130 q 237 212 237 189 q 254 284 237 243 q 284 349 270 324 q 297 375 298 374 z "},"p":{"ha":677,"x_min":-142,"x_max":689,"o":"m 304 143 l 403 260 q 437 328 437 303 q 422 347 437 347 q 315 292 399 347 q 187 157 255 248 q 304 143 250 161 m 93 24 l -37 -232 q -65 -272 -48 -254 q -100 -290 -82 -290 q -131 -271 -121 -290 q -140 -228 -140 -252 q -54 -8 -142 -133 q 170 349 25 104 l 167 351 l -53 142 l -58 207 l 310 603 q 328 624 314 608 q 349 646 342 640 q 368 662 355 652 q 393 675 380 671 q 421 679 406 679 q 464 671 442 679 q 485 646 485 663 q 478 624 485 637 q 458 596 471 611 q 434 569 445 581 q 408 543 422 557 q 390 525 393 529 q 272 361 305 435 l 275 358 q 422 450 343 407 q 550 493 500 493 q 593 474 577 493 q 608 428 608 456 q 554 296 608 370 q 383 118 500 222 q 420 117 404 117 q 451 118 437 117 q 480 123 466 118 q 506 132 495 128 q 534 146 517 135 q 562 164 551 157 q 596 190 574 172 q 633 221 618 208 q 679 260 649 234 l 689 196 q 606 122 645 153 q 519 59 568 90 q 418 12 471 28 q 311 -4 365 -4 q 212 24 267 -4 q 149 16 170 16 q 93 24 130 16 z "},"q":{"ha":627,"x_min":-22,"x_max":637,"o":"m 319 17 l 231 -107 q 167 -237 184 -173 q 303 -140 232 -210 q 374 -16 374 -70 q 371 14 374 -5 q 319 17 354 14 m 621 253 l 637 200 l 475 57 q 340 -207 487 -54 q 203 -320 283 -267 q 98 -374 124 -374 q 58 -341 74 -374 q 41 -281 41 -309 q 46 -253 41 -268 q 57 -230 52 -239 q 72 -205 62 -221 q 86 -183 83 -189 q 177 -48 125 -119 q 296 109 229 22 q 397 241 363 196 l 395 244 q 333 188 382 234 q 245 108 284 142 q 159 43 206 73 q 85 12 112 12 q 15 57 52 12 q -22 163 -22 102 q -8 239 -22 204 q 26 300 6 275 q 82 357 47 325 q 276 475 157 426 q 497 525 394 525 q 503 525 498 525 q 509 525 508 525 q 515 525 511 525 q 520 525 519 525 q 526 524 522 524 q 532 522 530 523 q 536 519 534 521 q 542 516 539 518 q 546 513 544 515 q 556 496 551 507 q 561 478 561 485 q 539 443 561 465 q 563 424 554 438 q 572 393 572 410 q 539 316 572 366 q 460 213 505 267 q 404 140 415 159 q 478 151 437 127 q 621 253 519 174 m 469 411 l 468 412 q 167 282 288 364 q 101 220 119 250 q 79 135 83 191 q 247 201 142 132 q 469 411 351 271 z "},"r":{"ha":483,"x_min":-75,"x_max":503,"o":"m 241 334 l 97 301 q 49 239 75 267 q -14 179 23 212 q -69 129 -51 147 l -75 191 q 17 292 -27 230 q -13 303 -5 294 q -21 335 -21 313 q 2 408 -21 370 q 54 472 24 446 q 113 517 84 499 q 154 534 141 534 q 172 528 164 534 q 179 511 179 521 q 170 472 179 494 q 240 483 198 476 q 301 492 282 489 q 343 496 320 494 q 376 497 366 498 q 390 490 386 495 q 424 416 420 452 q 415 379 424 396 q 396 353 406 361 q 366 326 387 344 q 257 168 257 233 q 270 140 257 152 q 300 129 283 129 q 360 150 326 129 q 441 211 395 171 q 493 254 488 250 l 503 203 q 445 144 479 177 q 368 74 410 111 q 282 14 325 38 q 211 -11 239 -11 q 143 21 169 -11 q 117 96 117 54 q 120 131 117 113 q 129 162 124 149 q 143 194 133 176 q 159 223 153 212 q 180 252 165 234 q 200 278 194 271 q 223 306 207 286 q 244 330 239 325 l 241 334 z "},"s":{"ha":498,"x_min":-125,"x_max":497,"o":"m 211 397 l 11 210 q 45 202 29 209 q 75 180 60 195 q 98 156 90 165 q 119 127 105 147 q 205 196 184 168 q 229 283 227 224 q 211 397 224 321 m 400 175 l 484 239 l 497 186 q 422 117 461 150 q 335 50 382 83 q 238 -2 287 17 q 150 -20 189 -22 q 11 25 75 -16 q -71 139 -53 67 q -102 121 -89 121 q -118 129 -111 121 q -125 147 -125 138 q -124 155 -125 151 q -120 163 -123 159 q -115 171 -117 168 q -109 178 -113 174 q -103 184 -105 182 q -97 191 -101 186 q -92 196 -92 195 l 210 472 q 233 536 212 509 q 289 562 254 562 q 329 552 319 562 q 343 511 340 541 q 357 438 345 492 q 370 350 370 385 q 318 208 370 272 q 189 97 267 144 q 225 94 208 94 q 257 96 243 94 q 289 105 271 98 q 316 118 306 113 q 345 135 327 123 q 371 153 362 146 q 400 175 380 160 z "},"t":{"ha":406,"x_min":-77,"x_max":482,"o":"m 396 586 l 482 579 q 468 550 477 569 q 431 478 444 499 q 394 435 418 457 q 337 407 370 412 q 253 406 305 402 q 126 147 126 243 q 168 98 126 98 q 183 100 176 98 q 200 105 191 101 q 218 113 210 109 q 239 125 226 117 q 262 140 252 133 q 291 160 273 146 q 323 183 309 173 q 362 211 337 193 q 407 243 388 229 l 414 182 q 385 155 412 180 q 349 122 357 130 q 314 91 341 115 q 272 57 286 67 q 232 27 258 47 q 188 -1 206 8 q 147 -21 170 -10 q 103 -37 124 -33 q 64 -41 83 -41 q 0 -16 23 -41 q -24 52 -24 9 q 12 191 -24 112 l 9 193 l -61 136 l -77 189 q 135 411 71 302 q 96 411 114 411 q 73 412 79 412 q 57 412 67 412 q 37 410 47 412 q 3 406 26 409 l 18 431 q 86 530 66 509 q 172 574 118 564 q 253 581 201 578 q 273 609 259 589 q 293 638 286 629 q 314 663 300 648 q 340 684 328 677 q 369 697 351 691 q 406 703 386 703 q 450 676 450 703 q 441 649 450 665 q 414 610 432 633 q 396 586 397 587 z "},"u":{"ha":663,"x_min":-22,"x_max":684,"o":"m 257 245 l 395 370 l 422 395 q 469 438 450 420 q 517 478 489 455 q 565 515 545 502 q 595 528 585 528 q 607 524 602 528 q 618 503 612 521 q 627 452 624 485 q 617 418 628 437 q 596 391 606 400 q 570 367 587 382 q 475 261 524 326 q 427 154 427 195 q 461 123 427 123 q 675 254 512 123 l 684 195 q 644 155 678 189 q 591 104 609 121 q 536 56 572 87 q 475 9 500 26 q 418 -20 450 -7 q 363 -33 387 -33 q 303 -6 326 -33 q 281 58 281 20 q 310 175 281 98 l 307 178 q 248 117 297 169 q 158 35 198 64 q 83 5 118 5 q 7 49 36 5 q -22 143 -22 93 q 37 332 -22 237 q 171 475 97 427 q 232 490 196 490 q 248 491 234 490 q 272 492 262 492 q 294 489 282 492 q 312 480 307 487 q 317 461 318 473 q 295 423 315 446 q 261 387 276 399 q 198 320 216 336 q 155 288 182 307 q 98 234 117 260 q 79 168 79 208 q 90 147 79 147 q 161 176 111 147 q 257 245 211 204 z "},"v":{"ha":590,"x_min":-12,"x_max":608,"o":"m 371 403 q 398 437 387 424 q 429 472 408 450 q 470 506 450 494 q 507 518 490 518 q 538 506 528 518 q 549 472 549 494 q 510 362 549 435 q 433 237 471 290 q 481 220 454 220 q 599 275 518 220 l 608 216 q 525 143 566 168 q 431 118 484 118 q 415 120 422 118 q 399 126 407 121 q 386 134 391 131 q 371 144 381 136 q 358 154 361 151 q 241 49 321 111 q 125 -12 161 -12 q 26 51 65 -12 q -12 197 -12 115 q 6 304 -12 252 q 51 395 24 357 q 109 463 78 433 q 165 507 139 492 q 207 522 191 522 q 229 521 217 522 q 255 517 240 520 q 280 508 271 515 q 290 490 290 500 q 225 368 290 449 q 110 245 160 287 q 104 227 109 241 q 97 204 100 214 q 91 184 94 195 q 89 164 89 172 q 122 110 89 110 q 181 138 140 110 q 250 192 222 167 q 301 239 277 216 q 316 319 298 281 q 371 403 335 357 z "},"w":{"ha":882,"x_min":-16,"x_max":900,"o":"m 260 224 l 457 427 q 536 503 518 503 q 577 493 551 503 q 603 473 603 484 q 571 404 603 456 q 490 262 534 346 q 446 144 446 178 q 453 124 446 132 q 472 117 460 117 q 514 135 490 117 q 571 185 539 153 q 607 220 604 216 q 605 267 604 245 q 621 316 606 288 q 671 390 635 345 q 789 488 746 488 q 822 465 811 488 q 833 418 833 442 q 809 321 833 366 q 739 222 784 276 q 751 215 742 221 q 763 208 760 210 q 773 205 766 207 q 787 203 780 203 q 799 204 793 203 q 812 209 805 205 q 825 214 819 212 q 839 222 831 216 q 852 230 848 228 q 865 240 856 233 q 877 249 874 247 q 888 258 879 250 l 897 265 l 900 204 q 826 143 862 165 q 747 121 791 121 q 706 127 722 121 q 664 149 690 133 q 612 103 648 136 q 547 45 576 71 q 482 -2 518 19 q 419 -24 446 -24 q 370 3 393 -24 q 365 8 370 3 q 360 15 361 14 q 356 21 359 16 q 351 31 352 27 q 348 42 351 34 q 345 57 346 50 q 343 76 345 64 q 342 100 342 87 q 343 129 342 113 q 345 165 343 146 q 300 120 332 154 q 244 62 269 87 q 188 18 219 38 q 132 -1 156 -3 q 28 53 71 2 q -14 184 -16 104 q 16 308 -12 256 q 102 416 44 359 q 216 520 183 498 q 273 541 248 542 q 355 496 355 537 q 328 432 355 471 q 258 352 300 393 q 182 282 215 311 q 119 231 149 253 q 112 198 116 224 q 109 151 109 172 q 123 121 109 121 q 186 160 138 121 q 260 224 235 199 z "},"x":{"ha":483,"x_min":-47,"x_max":501,"o":"m 364 354 l 268 258 l 267 200 q 317 135 264 135 q 351 143 332 135 q 392 166 370 151 q 428 194 413 182 q 466 225 444 205 q 493 249 488 244 l 501 193 q 441 136 485 179 q 364 62 397 92 q 287 4 331 31 q 211 -22 243 -22 q 182 -16 194 -22 q 163 2 170 -10 q 152 26 156 14 q 147 57 148 39 q 146 88 146 75 q 146 119 146 100 q 147 144 147 137 l 66 66 q -25 7 2 7 q -41 12 -35 7 q -47 26 -47 18 q 1 109 -47 46 q 34 139 19 130 q 75 155 49 148 l 149 221 l 147 387 q 108 367 127 377 q 77 351 88 357 q 55 339 66 345 q 38 330 43 333 q 26 325 32 328 q 18 322 21 323 q 14 322 16 322 q -1 340 -1 324 q 51 404 -1 354 q 163 499 103 454 q 243 545 223 545 q 261 537 254 545 q 270 516 268 530 q 271 494 271 501 q 271 472 271 486 l 267 346 l 390 458 q 469 505 440 505 q 488 484 484 505 q 479 449 490 473 q 451 403 468 426 q 409 365 433 380 q 364 354 385 350 z "},"y":{"ha":614,"x_min":-11,"x_max":646,"o":"m 646 229 l 228 -231 q 217 -243 226 -233 q 202 -262 209 -254 q 185 -279 195 -270 q 167 -294 176 -289 q 153 -300 159 -300 q 122 -267 134 -300 q 111 -208 111 -234 q 149 -125 111 -188 l 335 189 l 332 192 q 178 70 244 118 q 100 22 112 22 q 29 70 65 25 q -9 186 -7 115 q 13 285 -11 233 q 73 379 37 337 q 148 456 109 421 q 218 510 186 491 q 261 530 249 530 q 299 506 277 530 q 321 467 321 481 q 246 353 321 432 q 118 233 171 275 q 92 153 94 199 q 144 166 118 155 q 198 198 171 178 q 243 233 225 218 q 290 275 262 249 q 369 349 327 309 q 436 414 411 389 q 487 461 462 438 q 526 495 511 484 q 549 507 541 506 q 575 484 564 510 q 586 437 586 458 q 529 315 586 400 l 323 9 l 326 7 l 635 281 l 646 229 z "},"z":{"ha":511,"x_min":-96,"x_max":529,"o":"m 529 231 l 307 37 q 269 -86 298 -26 q 200 -188 239 -145 q 117 -264 161 -231 q 34 -316 73 -298 q -33 -336 -5 -334 q -78 -318 -60 -339 q -96 -269 -96 -298 q -86 -216 -96 -242 q -54 -166 -75 -191 q -15 -126 -32 -142 q 29 -89 2 -111 l 210 56 q 183 110 200 96 q 121 136 166 123 q 108 139 119 137 q 92 143 96 142 q 81 149 88 145 q 72 158 74 153 q 71 171 69 163 q 100 213 73 191 q 196 283 127 235 q 323 380 264 332 l 321 383 l 151 354 l -7 182 l -22 228 l 75 346 q 37 383 37 353 q 96 476 37 420 q 189 532 155 532 q 216 517 208 532 q 224 484 224 503 q 312 501 271 491 q 375 517 353 511 q 408 524 397 524 q 439 479 425 524 q 453 414 453 434 q 411 359 453 387 l 233 231 q 306 121 290 189 l 525 290 l 529 231 m 208 -29 l 49 -154 q -4 -206 15 -180 q -26 -267 -22 -232 q 121 -174 47 -247 q 208 -29 195 -102 z "},"{":{"ha":486,"x_min":79,"x_max":635,"o":"m 353 227 l 279 -29 q 266 -130 260 -96 q 307 -182 272 -163 l 306 -184 q 169 -184 217 -190 q 103 -158 121 -178 q 79 -100 79 -134 q 104 -3 84 -53 l 175 250 q 187 350 193 315 q 146 399 181 385 l 147 399 l 147 401 q 217 449 193 417 q 260 550 240 481 l 321 774 q 334 819 329 803 q 347 859 338 836 q 365 895 356 882 q 386 924 373 907 q 415 949 399 941 q 452 966 430 957 q 500 977 473 975 q 560 980 526 980 q 635 977 594 981 l 635 974 q 564 925 590 960 q 519 823 538 890 l 454 587 q 401 457 430 497 q 322 400 372 417 l 321 400 l 321 397 q 374 340 370 384 q 353 227 378 313 z "},"|":{"ha":562,"x_min":317,"x_max":427,"o":"m 317 1044 l 427 1044 l 427 -347 l 317 -347 l 317 1044 z "},"}":{"ha":486,"x_min":-45,"x_max":511,"o":"m 237 570 l 311 825 q 325 926 330 892 q 283 978 319 960 l 285 981 q 421 980 374 986 q 488 954 469 975 q 511 896 511 930 q 486 799 507 849 l 415 546 q 403 447 397 481 q 444 397 409 412 l 443 397 l 443 395 q 373 347 397 380 q 330 245 350 315 l 269 22 q 256 -23 261 -7 q 243 -63 252 -39 q 225 -99 234 -86 q 204 -128 217 -111 q 175 -153 191 -144 q 138 -170 160 -161 q 90 -181 117 -178 q 30 -184 64 -184 q -45 -180 -4 -184 l -45 -178 q 26 -129 0 -163 q 71 -28 52 -94 l 136 208 q 189 339 161 299 q 268 396 218 379 l 269 396 l 269 399 q 216 456 220 412 q 237 570 212 483 z "},"~":{"ha":831,"x_min":121,"x_max":774,"o":"m 724 439 l 774 390 q 591 261 701 261 q 537 269 564 261 q 492 286 509 277 q 432 317 475 294 q 392 339 407 331 q 354 354 377 347 q 309 361 330 361 q 236 336 267 361 q 172 264 205 311 l 121 311 q 205 405 153 370 q 317 440 257 440 q 353 437 335 440 q 388 427 370 434 q 415 416 405 420 q 443 401 425 411 q 467 389 461 391 q 476 383 470 387 q 517 361 503 368 q 551 348 530 354 q 591 342 571 342 q 662 365 631 342 q 724 439 692 389 z "},"":{"ha":472,"x_min":0,"x_max":0,"o":""},"":{"ha":544,"x_min":-12,"x_max":479,"o":"m 404 600 q 456 580 432 600 q 479 533 479 559 q 470 468 479 506 q 441 397 461 430 q 399 364 422 364 q 338 391 363 364 q 313 453 313 417 q 318 497 313 473 q 334 545 323 521 q 363 584 345 568 q 404 600 382 600 m 357 144 l 161 -302 q 156 -315 160 -305 q 150 -329 152 -325 q 143 -342 148 -334 q 135 -355 139 -351 q 125 -364 131 -359 q 114 -372 120 -370 q 100 -374 107 -374 q 66 -367 90 -374 q 41 -361 42 -361 q 31 -358 39 -360 q 16 -354 22 -356 q 3 -349 10 -352 q -8 -340 -4 -345 q -12 -329 -12 -335 q -9 -312 -12 -322 q -1 -289 -7 -302 q 9 -268 5 -277 q 20 -245 13 -258 q 28 -229 26 -232 l 277 256 q 269 279 269 271 q 282 320 269 300 q 315 340 296 340 q 369 315 340 340 q 399 265 399 290 q 393 236 399 254 q 383 205 388 218 q 368 170 378 192 q 357 144 358 149 z "},"":{"ha":785,"x_min":147,"x_max":741,"o":"m 359 392 l 433 564 q 316 515 357 547 q 269 440 275 483 q 359 392 262 389 m 624 596 l 546 590 l 469 414 q 516 423 479 416 q 577 437 553 430 q 621 454 602 444 q 659 469 650 469 q 677 401 677 469 q 668 355 677 376 q 640 319 659 334 q 602 292 621 303 q 554 271 583 280 q 505 256 524 261 q 455 243 486 250 q 412 233 424 236 q 399 72 399 169 q 372 78 391 74 q 346 83 353 81 q 327 91 340 85 q 310 104 315 97 q 301 123 306 111 q 297 151 297 135 q 313 235 297 174 q 188 274 229 241 q 147 387 147 307 q 180 516 147 452 q 264 628 212 580 q 286 647 275 638 q 313 664 298 656 q 338 678 328 672 q 368 690 349 684 q 395 701 387 697 q 426 710 403 704 q 454 718 448 716 q 485 726 460 720 q 514 733 511 732 q 536 775 522 748 q 555 811 551 802 q 570 838 559 820 q 586 862 581 857 q 600 877 590 867 q 616 890 609 888 q 633 897 623 892 q 656 902 644 901 q 682 903 667 903 q 695 902 692 903 q 704 898 699 902 q 708 886 708 895 q 664 811 708 859 q 639 783 646 793 q 624 750 633 774 q 635 750 626 750 q 649 750 645 750 q 661 750 652 750 q 674 748 669 749 q 685 746 679 747 q 697 741 692 744 q 707 734 703 739 q 731 695 722 722 q 741 646 741 669 q 731 609 741 619 q 694 586 721 598 q 688 583 690 584 l 671 574 q 643 560 654 565 q 624 555 631 555 q 614 559 618 555 q 610 568 610 562 q 624 596 610 582 z "},"":{"ha":833,"x_min":-176,"x_max":972,"o":"m -56 212 l 140 241 l 241 367 q 74 363 178 381 q 101 404 92 391 q 126 428 111 417 q 161 441 142 439 q 211 441 180 444 l 297 436 l 361 521 l 653 889 q 791 1024 728 984 q 890 1060 854 1064 q 949 1027 925 1056 q 972 968 972 999 q 943 855 972 920 q 862 707 913 791 q 799 603 810 624 q 804 602 800 602 q 809 600 807 601 q 813 598 810 600 q 817 596 816 597 q 821 594 819 595 q 823 591 823 593 q 825 586 824 589 q 825 581 825 584 q 814 555 825 570 q 783 524 803 541 q 747 494 764 507 q 709 467 730 481 q 685 449 688 452 q 672 439 683 448 q 654 427 661 431 q 638 418 648 422 q 621 414 628 414 q 587 467 587 414 q 633 605 587 519 q 724 745 678 690 q 779 850 808 850 q 770 847 775 850 q 762 842 765 844 q 753 834 759 839 q 746 828 747 829 q 635 701 692 770 q 511 549 578 632 q 406 419 445 466 q 451 410 428 416 q 498 389 475 404 q 522 354 522 374 q 513 332 522 340 q 489 325 503 325 q 458 330 479 325 q 432 336 437 336 l 349 353 l 256 245 q 440 217 342 240 q 649 164 538 195 q 831 119 760 133 q 787 72 815 104 q 739 17 759 39 q 687 -23 718 -5 q 624 -41 656 -41 q 541 -31 593 -41 q 358 11 412 -1 q 200 37 304 23 q 14 49 97 51 q -18 33 7 46 q -60 13 -44 20 q -98 -2 -77 5 q -134 -9 -120 -9 q -163 -1 -151 -9 q -176 22 -176 7 q -161 67 -176 39 q -128 119 -145 96 q -86 174 -111 142 q -56 212 -61 205 z "},"":{"ha":964,"x_min":261,"x_max":851,"o":"m 851 175 l 793 118 l 705 222 q 555 170 642 170 q 406 220 464 170 l 319 118 l 261 175 l 353 269 q 290 452 290 345 q 307 551 290 502 q 353 632 324 600 l 261 724 l 321 781 l 406 681 q 555 734 465 734 q 708 681 651 734 l 794 781 l 851 724 l 760 632 q 806 551 789 600 q 823 452 823 503 q 805 353 823 404 q 757 271 786 302 l 851 175 m 557 652 l 554 652 q 434 595 483 652 q 385 452 385 538 q 434 308 385 363 q 557 253 483 253 q 679 309 629 253 q 729 452 729 364 q 679 595 729 539 q 557 652 629 652 z "},"":{"ha":1124,"x_min":51,"x_max":1333,"o":"m 960 468 l 1035 475 q 1088 478 1068 477 q 1145 479 1107 479 q 1206 471 1183 479 q 1235 449 1229 463 q 1229 426 1239 435 q 1199 412 1219 416 q 1162 407 1179 408 q 1124 405 1145 405 q 1103 404 1103 404 l 900 387 q 881 357 893 378 q 861 326 869 337 l 929 334 q 1002 339 966 338 q 1080 333 1038 340 q 1129 307 1122 326 q 1123 284 1133 294 q 1093 271 1113 275 q 1056 265 1073 267 q 1018 263 1039 263 q 997 262 998 262 l 817 245 l 815 244 l 707 53 q 659 -18 701 14 q 570 -50 616 -51 q 522 -35 542 -50 q 503 -1 503 -19 q 534 87 503 27 q 619 220 566 146 q 447 178 527 205 q 483 237 467 218 q 531 269 500 256 q 625 294 562 282 l 675 304 q 696 333 682 315 q 717 361 710 351 q 551 321 649 351 q 578 369 568 353 q 608 399 588 385 q 655 422 627 414 q 730 439 683 431 l 779 447 q 1017 681 878 573 l 1011 682 l 571 439 q 533 418 543 423 q 491 396 524 413 q 438 371 458 379 q 391 354 418 363 q 343 345 363 346 q 284 347 315 342 q 234 365 254 353 q 218 392 214 377 q 220 400 218 393 q 223 411 221 408 q 232 427 224 415 q 250 451 239 439 q 282 484 260 463 q 332 528 304 505 q 405 587 361 552 q 504 663 449 622 q 548 695 524 677 q 588 724 572 713 q 622 749 603 735 q 652 772 640 763 q 676 791 663 781 q 695 808 688 801 q 709 821 703 814 q 717 833 715 828 q 720 842 720 838 q 711 848 720 846 q 696 848 702 850 q 142 644 311 717 q 89 631 117 634 q 58 635 64 629 q 66 671 51 647 l 87 722 q 119 761 97 746 q 189 794 141 775 q 534 917 340 854 q 838 989 728 980 q 924 984 887 994 q 962 951 960 975 q 950 922 963 940 q 913 881 938 904 q 870 843 888 857 q 823 805 852 828 q 793 781 793 781 q 677 689 736 734 q 586 619 618 643 q 527 573 554 595 q 489 539 499 551 q 478 518 478 527 q 489 509 478 512 q 522 510 500 506 q 568 528 543 514 q 698 594 640 566 q 834 667 756 623 q 1153 851 912 711 q 1172 862 1156 853 q 1198 877 1187 871 q 1223 889 1208 883 q 1247 896 1238 895 q 1303 882 1277 899 q 1332 848 1330 865 q 1325 831 1333 841 q 1295 800 1318 821 q 1244 753 1272 779 q 1162 676 1215 727 q 1051 568 1108 625 q 960 468 983 500 z "},"":{"ha":562,"x_min":317,"x_max":425,"o":"m 317 940 l 425 940 l 425 453 l 317 453 l 317 940 m 317 243 l 425 243 l 425 -241 l 317 -241 l 317 243 z "},"":{"ha":764,"x_min":68,"x_max":802,"o":"m 802 888 l 753 796 q 585 836 690 836 q 464 810 515 836 q 403 742 413 785 q 430 676 393 701 q 567 619 466 651 q 722 534 677 582 q 747 404 767 486 q 607 241 724 312 q 637 188 629 222 q 636 122 645 153 q 585 25 623 67 q 497 -40 547 -17 q 395 -75 447 -64 q 293 -86 344 -86 q 68 -29 143 -86 l 122 61 q 201 24 149 41 q 310 8 252 8 q 431 35 376 8 q 500 113 487 61 q 477 184 512 157 q 345 240 441 210 q 286 260 311 250 q 236 281 260 269 q 195 306 212 294 q 165 335 179 319 q 146 369 151 351 q 140 409 142 387 q 146 456 138 431 q 197 545 157 501 q 298 612 237 588 q 271 665 278 633 q 271 730 263 696 q 387 880 294 827 q 603 932 479 932 q 802 888 722 932 m 269 476 l 269 475 q 289 406 259 433 q 400 353 318 379 q 546 293 505 319 q 595 333 574 309 q 624 385 617 357 q 608 457 635 428 q 513 509 581 486 q 359 566 404 545 q 269 476 283 529 z "},"":{"ha":622,"x_min":185,"x_max":627,"o":"m 275 619 q 215 633 245 619 q 187 673 185 648 q 194 702 188 684 q 213 739 201 720 q 245 771 224 759 q 290 779 266 783 q 315 775 306 777 q 338 768 325 773 q 356 753 351 763 q 361 730 362 744 q 334 656 357 694 q 275 619 311 619 m 539 619 q 479 633 509 619 q 452 673 450 648 q 459 702 452 684 q 477 739 465 720 q 509 771 488 759 q 554 779 530 783 q 579 775 570 777 q 602 768 589 773 q 621 753 615 763 q 625 730 627 744 q 598 657 621 694 q 539 619 574 619 z "},"":{"ha":1208,"x_min":86,"x_max":1122,"o":"m 343 939 q 403 974 343 939 q 604 1008 463 1008 q 865 939 746 1008 q 1053 751 984 870 q 1122 490 1122 632 q 1053 230 1122 349 q 865 42 984 111 q 604 -28 745 -28 q 344 42 463 -28 q 155 230 224 111 q 86 490 86 349 q 155 751 86 632 q 343 939 224 870 m 604 878 q 412 825 502 878 q 270 682 323 772 q 216 490 216 593 q 270 298 216 388 q 412 156 323 209 q 604 103 502 103 q 752 135 681 103 q 876 218 824 166 q 960 342 928 271 q 991 490 991 414 q 960 638 991 567 q 876 762 928 710 q 752 846 824 814 q 604 878 681 878 m 857 586 l 721 586 q 720 597 721 593 q 717 606 720 602 q 713 614 715 611 q 705 624 711 616 q 696 636 700 631 q 607 671 659 671 q 507 624 539 671 q 475 497 475 578 q 507 370 475 416 q 607 323 539 323 q 687 349 653 323 q 721 408 721 374 l 857 408 q 777 253 840 302 q 608 201 718 208 q 412 276 489 193 q 335 497 335 359 q 412 718 335 635 q 608 793 489 800 q 778 738 718 785 q 857 586 839 691 z "},"":{"ha":533,"x_min":120,"x_max":587,"o":"m 378 755 l 297 694 q 278 680 296 693 q 250 658 261 667 q 223 642 238 650 q 201 633 209 633 q 152 669 182 633 q 122 736 123 705 q 183 836 120 785 q 325 918 245 887 q 458 950 404 949 q 501 936 485 951 q 517 909 517 920 q 485 889 517 900 q 511 856 511 878 q 472 797 511 843 q 432 730 432 751 q 460 711 432 711 q 492 719 473 711 q 523 734 510 726 q 555 755 535 742 q 582 772 576 769 l 587 741 q 491 663 560 709 q 392 616 422 616 q 360 629 371 616 q 349 661 349 642 q 382 754 349 693 l 380 753 l 378 755 m 429 865 l 427 868 q 321 832 366 850 q 252 800 277 814 q 214 769 228 785 q 196 742 199 753 q 192 715 192 730 q 205 703 192 703 q 429 865 253 703 m 122 561 l 587 561 l 587 515 l 122 515 l 122 561 z "},"":{"ha":530,"x_min":49,"x_max":525,"o":"m 239 157 q 186 178 220 157 q 121 228 152 199 q 70 289 90 256 q 53 343 49 322 q 59 374 53 358 q 72 399 65 389 q 92 425 79 409 q 128 482 104 446 q 170 548 152 517 q 203 611 189 579 q 219 578 206 602 q 240 534 233 553 q 248 497 248 514 q 245 486 248 492 q 239 473 243 479 q 233 463 235 467 q 223 452 230 459 q 216 443 217 444 q 178 389 201 427 q 154 338 154 352 q 161 322 154 332 q 186 299 168 312 q 232 278 205 286 q 274 254 258 271 q 290 211 290 237 q 276 172 290 186 q 239 157 262 157 m 473 157 q 420 178 454 157 q 356 228 387 199 q 304 289 325 256 q 288 343 283 322 q 294 374 288 358 q 307 399 300 389 q 326 425 313 409 q 362 482 338 446 q 405 548 387 517 q 437 611 423 579 q 454 578 441 602 q 475 534 467 553 q 482 497 482 514 q 480 487 482 492 q 477 477 479 481 q 471 468 475 473 q 465 459 467 462 q 457 450 463 456 q 452 443 452 444 q 412 389 436 426 q 389 338 389 352 q 395 322 389 332 q 421 299 402 312 q 467 278 440 286 q 509 254 492 271 q 525 211 525 237 q 511 172 525 186 q 473 157 497 157 z "},"":{"ha":854,"x_min":154,"x_max":787,"o":"m 787 146 l 701 146 l 701 446 l 154 446 l 154 529 l 787 529 l 787 146 z "},"":{"ha":444,"x_min":0,"x_max":416,"o":"m 0 444 l 416 444 l 416 322 l 0 322 l 0 444 z "},"":{"ha":1208,"x_min":86,"x_max":1122,"o":"m 343 939 q 403 974 343 939 q 604 1008 463 1008 q 865 939 746 1008 q 1053 751 984 870 q 1122 490 1122 632 q 1053 230 1122 349 q 865 42 984 111 q 604 -28 745 -28 q 344 42 463 -28 q 155 230 224 111 q 86 490 86 349 q 155 751 86 632 q 343 939 224 870 m 604 103 q 752 135 681 103 q 876 219 824 166 q 960 343 928 271 q 991 490 991 414 q 960 638 991 567 q 876 762 928 710 q 752 846 824 814 q 604 878 681 878 q 412 825 502 878 q 270 682 323 772 q 216 490 216 593 q 270 299 216 389 q 412 156 323 210 q 604 103 502 103 m 711 465 l 823 250 l 684 250 l 579 465 l 513 465 l 513 250 l 390 250 l 390 760 l 639 760 q 689 759 673 760 q 733 753 705 759 q 778 737 761 748 q 839 604 839 700 q 806 504 839 536 q 711 465 774 471 m 513 554 l 635 554 q 696 567 675 554 q 717 616 717 580 q 709 643 717 632 q 693 659 702 654 q 667 667 684 665 q 641 670 650 670 q 614 671 631 671 l 513 671 l 513 554 z "},"":{"ha":472,"x_min":94,"x_max":570,"o":"m 155 677 q 280 670 215 671 q 436 671 345 669 q 570 673 528 673 l 570 671 q 557 642 565 671 q 539 584 550 612 q 514 555 528 555 q 94 555 269 568 q 97 574 95 558 q 100 598 98 591 q 104 622 101 606 q 111 645 107 637 q 121 662 115 653 q 136 675 127 671 q 155 677 144 679 z "},"":{"ha":668,"x_min":231,"x_max":607,"o":"m 418 908 l 419 908 q 554 851 501 908 q 607 711 607 795 q 552 570 607 623 q 418 517 498 517 q 285 570 340 517 q 231 711 231 623 q 286 853 231 798 q 418 908 340 908 m 418 850 l 416 850 q 336 812 367 850 q 304 713 304 774 q 337 613 304 652 q 421 574 370 574 q 503 611 473 574 q 533 710 533 649 q 504 811 533 772 q 418 850 474 850 z "},"":{"ha":913,"x_min":212,"x_max":846,"o":"m 844 419 l 572 419 l 572 142 l 486 142 l 486 419 l 212 419 l 212 503 l 486 503 l 486 766 l 572 766 l 572 503 l 844 503 l 844 419 m 846 -4 l 214 -4 l 214 77 l 846 77 l 846 -4 z "},"":{"ha":521,"x_min":117,"x_max":631,"o":"m 357 755 l 260 739 q 229 734 236 734 q 213 745 218 734 q 208 766 208 755 q 224 824 208 789 q 258 878 241 859 q 381 940 295 916 q 534 964 468 964 q 590 954 570 964 q 620 915 609 945 q 631 827 631 884 q 618 770 631 790 q 570 722 605 751 q 388 621 541 700 q 195 509 235 541 l 197 505 l 546 562 q 538 542 543 555 q 527 511 531 521 q 514 486 523 502 q 496 464 505 471 q 471 446 487 456 q 433 432 454 436 q 382 422 412 427 q 314 414 353 416 q 225 410 275 411 q 213 409 224 410 q 196 409 201 409 q 180 410 190 410 q 164 413 171 411 q 154 419 158 416 q 127 460 137 434 q 117 511 117 487 q 125 538 117 524 q 150 567 134 552 q 185 597 167 583 q 231 628 204 612 q 278 657 257 644 q 329 685 300 669 q 374 708 357 700 q 414 729 391 717 q 443 743 438 741 q 461 753 446 745 q 486 766 477 761 q 511 780 495 770 q 536 797 526 789 q 556 814 546 804 q 571 833 566 823 q 576 852 576 843 q 574 860 576 857 q 566 863 571 863 q 556 864 561 864 q 545 863 551 864 q 536 863 539 863 q 292 796 446 863 l 292 793 l 346 789 q 355 787 348 788 q 367 785 363 786 q 375 780 371 783 q 379 771 379 777 q 357 755 379 759 z "},"":{"ha":565,"x_min":86,"x_max":692,"o":"m 338 846 l 355 843 q 376 839 363 843 q 389 829 389 836 q 383 822 389 825 q 374 819 378 819 q 289 814 346 814 q 255 826 267 814 q 243 859 243 838 q 251 885 243 873 q 274 906 258 897 q 300 921 289 916 q 329 932 312 926 q 507 954 392 954 q 549 953 532 954 q 590 949 567 952 q 630 939 614 946 q 661 921 646 932 q 684 893 676 911 q 692 852 692 876 q 675 806 692 830 q 636 768 659 781 q 628 764 634 767 q 621 760 623 760 q 613 756 619 759 q 603 752 608 753 q 589 748 597 751 q 568 743 580 745 q 540 737 556 741 q 502 728 524 733 q 454 718 480 724 q 392 705 428 713 l 392 703 q 509 680 477 691 q 579 593 578 652 q 566 547 579 572 q 526 499 553 523 q 460 455 498 475 q 367 423 422 435 q 249 411 311 411 q 129 433 172 411 q 86 481 86 455 q 117 529 86 497 q 164 561 148 561 q 174 558 170 561 q 178 551 178 555 q 177 547 178 548 q 172 541 176 545 q 157 526 168 536 q 244 513 195 513 q 373 530 309 513 q 473 569 437 547 q 510 607 510 591 q 490 634 510 623 q 439 649 470 645 q 386 655 408 654 q 345 657 363 657 q 265 648 303 657 q 252 647 261 648 q 239 646 242 646 q 225 664 225 646 q 253 726 225 694 q 323 758 277 753 q 394 767 357 762 q 489 784 431 772 q 585 812 548 795 q 623 848 623 829 q 530 885 623 885 q 338 848 444 885 l 338 846 z "},"":{"ha":486,"x_min":157,"x_max":524,"o":"m 364 694 l 446 720 q 489 728 473 728 q 503 725 497 728 q 512 719 509 722 q 517 709 515 715 q 519 697 519 702 q 520 682 519 692 q 521 668 520 673 q 519 616 524 623 q 472 611 513 608 q 354 606 418 614 q 222 576 268 593 q 176 566 195 566 q 157 578 157 566 q 169 609 157 593 q 196 635 182 625 q 364 694 224 653 z "},"":{"ha":663,"x_min":-310,"x_max":750,"o":"m 323 245 l 461 370 l 488 395 q 536 438 516 420 q 583 478 555 455 q 631 515 611 502 q 661 528 652 528 q 673 524 669 528 q 684 503 678 521 q 693 452 690 485 q 683 418 694 437 q 663 391 672 400 q 636 367 654 382 q 542 261 591 326 q 493 154 493 195 q 528 123 493 123 q 742 254 579 123 l 750 195 q 710 155 745 189 q 657 104 675 121 q 603 56 639 87 q 542 9 567 26 q 485 -20 516 -7 q 429 -33 454 -33 q 370 -6 392 -33 q 347 58 347 20 q 376 175 347 98 l 374 178 q 314 117 363 169 q 224 35 264 64 q 150 5 184 5 q 58 65 106 5 q -92 -159 -18 -89 q -216 -203 -165 -230 q -172 -53 -310 -153 q -66 64 -128 -22 q 66 286 -4 150 q 237 475 127 403 q 298 490 262 490 q 315 491 300 490 q 339 492 329 492 q 361 489 349 492 q 379 480 373 487 q 383 461 385 473 q 362 423 381 446 q 328 387 342 399 q 313 371 323 382 q 300 356 303 359 q 290 345 298 353 q 279 333 283 336 q 269 323 275 330 q 256 312 262 317 q 241 301 250 308 q 222 288 233 295 q 169 234 192 266 q 146 168 146 201 q 157 146 146 149 q 228 176 178 147 q 323 245 278 205 z "},"":{"ha":912,"x_min":235,"x_max":807,"o":"m 612 -66 l 519 -66 l 519 355 l 503 355 q 426 365 463 355 q 353 395 388 374 q 293 446 319 416 q 251 521 267 476 q 236 619 235 566 q 249 718 236 673 q 292 801 262 763 q 368 866 322 840 q 481 907 413 892 q 635 922 549 922 q 807 909 741 922 l 807 -66 l 713 -66 l 713 833 l 612 833 l 612 -66 z "},"":{"ha":418,"x_min":172,"x_max":380,"o":"m 260 205 q 230 210 241 208 q 203 218 218 212 q 180 235 188 224 q 172 264 172 247 q 190 328 172 291 q 242 393 208 366 q 313 412 276 420 q 327 410 315 412 q 346 406 339 408 q 361 400 352 404 q 376 388 371 395 q 380 368 380 380 q 376 350 380 366 q 362 308 372 334 q 339 258 353 282 q 305 219 326 235 q 260 205 284 203 z "},"":{"ha":472,"x_min":1,"x_max":302,"o":"m 211 0 l 172 -77 q 231 -80 203 -75 q 280 -104 258 -85 q 302 -154 302 -123 q 259 -229 302 -205 q 160 -249 216 -252 q 105 -241 140 -248 q 36 -218 70 -234 q 1 -183 1 -202 q 5 -173 1 -178 q 14 -168 9 -168 q 54 -183 22 -168 q 110 -199 87 -199 q 158 -185 136 -199 q 180 -149 180 -172 q 102 -103 180 -103 l 154 0 l 211 0 z "},"":{"ha":493,"x_min":228,"x_max":576,"o":"m 453 863 l 368 833 q 343 825 344 825 q 339 827 340 825 q 337 831 337 828 q 336 836 336 833 q 336 841 336 838 q 336 844 336 844 q 348 869 338 861 q 378 886 358 878 q 422 910 380 888 q 494 945 465 932 q 534 958 523 958 q 561 940 549 958 q 576 901 576 913 q 509 771 576 877 l 435 657 q 329 435 329 495 q 330 420 329 430 q 332 406 332 410 q 319 395 332 395 q 300 401 310 395 q 280 411 292 406 q 260 420 267 416 q 244 431 252 425 q 232 447 236 437 q 228 468 228 456 q 249 550 228 496 q 290 640 270 604 l 404 799 l 456 860 l 453 863 z "},"":{"ha":465,"x_min":122,"x_max":519,"o":"m 511 794 l 519 760 q 456 707 490 723 q 374 692 422 692 q 235 625 304 625 q 171 659 197 625 q 142 749 144 693 q 161 826 141 793 q 222 889 182 859 q 392 950 299 945 q 426 944 410 951 q 441 920 441 936 q 441 916 441 918 q 439 912 440 913 q 437 908 439 910 q 435 906 436 907 q 432 903 434 905 q 428 901 429 902 q 425 899 427 901 q 421 897 422 898 q 446 881 439 892 q 453 848 453 869 q 452 833 453 841 q 449 818 451 826 q 445 804 446 810 q 438 790 443 799 q 432 778 434 781 q 425 763 431 774 q 418 750 419 753 q 446 752 431 747 q 468 762 460 756 q 491 779 476 767 q 511 794 507 791 m 345 859 l 342 860 q 312 843 334 855 q 273 820 290 831 q 244 799 256 810 q 220 763 230 785 q 211 722 211 741 q 220 700 211 705 q 248 694 229 694 q 317 724 283 694 q 306 762 306 743 q 311 791 306 774 q 323 819 317 807 q 336 844 329 831 q 345 859 344 858 m 122 561 l 519 561 l 519 515 l 122 515 l 122 561 z "},"":{"ha":530,"x_min":90,"x_max":568,"o":"m 376 611 q 450 577 403 611 q 532 498 497 544 q 562 425 568 453 q 556 395 562 410 q 543 369 550 379 q 524 343 536 359 q 487 287 511 323 q 445 219 463 250 q 412 157 427 189 q 396 190 409 165 q 376 234 383 214 q 368 271 368 254 q 370 281 368 275 q 374 290 372 286 q 380 300 376 294 q 386 309 384 306 q 393 318 388 312 q 399 325 398 323 q 437 379 414 341 q 461 431 461 416 q 454 447 461 437 q 429 470 448 456 q 383 490 410 483 q 341 514 357 497 q 325 557 325 530 q 339 596 325 581 q 376 611 353 611 m 142 611 q 215 577 168 611 q 298 498 262 544 q 328 425 333 453 q 321 395 328 410 q 309 369 315 379 q 289 343 302 359 q 253 287 277 323 q 210 219 229 250 q 178 157 192 189 q 161 190 174 165 q 141 234 149 214 q 134 271 134 254 q 135 281 134 275 q 139 290 137 286 q 145 300 141 294 q 151 309 149 306 q 158 318 153 312 q 164 325 163 323 q 203 379 179 341 q 227 431 227 416 q 220 447 227 437 q 194 470 213 456 q 149 490 175 483 q 106 514 123 497 q 90 557 90 530 q 104 596 90 581 q 142 611 118 611 z "},"":{"ha":1101,"x_min":131,"x_max":1036,"o":"m 897 0 l 790 0 l 822 129 l 542 129 l 557 191 l 918 536 l 1031 536 l 947 204 l 1036 204 l 1018 129 l 929 129 l 897 0 m 842 204 l 878 351 q 903 433 887 392 l 899 435 q 836 368 865 397 l 657 205 l 659 204 l 842 204 m 221 -14 l 131 -14 l 882 900 l 971 900 l 221 -14 m 336 363 l 222 363 l 332 800 l 329 800 l 220 758 l 215 835 l 368 895 l 468 895 l 336 363 z "},"":{"ha":1158,"x_min":131,"x_max":1127,"o":"m 221 -14 l 131 -14 l 882 900 l 971 900 l 221 -14 m 336 363 l 222 363 l 332 800 l 329 800 l 220 758 l 215 835 l 368 895 l 468 895 l 336 363 m 616 0 l 633 65 l 754 149 q 926 277 875 231 q 989 366 977 323 q 978 425 996 399 q 903 450 959 450 q 827 437 867 450 q 760 408 787 425 l 746 482 q 954 539 849 539 q 1086 494 1045 539 q 1109 382 1127 450 q 1093 339 1104 360 q 1071 302 1082 318 q 1038 265 1060 286 q 1001 232 1015 244 q 954 197 987 220 q 905 163 922 174 q 848 125 889 152 l 790 89 l 789 86 l 1046 86 l 1023 0 l 616 0 z "},"":{"ha":1206,"x_min":98,"x_max":1141,"o":"m 1003 0 l 897 0 l 930 129 l 648 129 l 664 191 l 1023 536 l 1136 536 l 1054 204 l 1141 204 l 1124 129 l 1035 129 l 1003 0 m 949 204 l 986 351 q 1010 433 994 382 l 1007 435 q 943 367 968 394 l 764 205 l 765 204 l 949 204 m 328 -14 l 237 -14 l 989 900 l 1078 900 l 328 -14 m 250 786 l 243 860 q 435 901 324 901 q 570 865 529 901 q 596 771 610 828 q 546 696 586 728 q 449 647 506 663 l 447 644 q 538 600 507 636 q 555 515 568 564 q 463 401 539 447 q 273 355 386 355 q 170 366 218 355 q 98 392 122 376 l 143 469 q 200 447 161 457 q 278 436 238 436 q 386 460 342 436 q 439 521 429 484 q 408 585 448 562 q 294 608 369 608 l 250 608 l 267 679 l 313 679 q 422 701 374 679 q 478 755 470 722 q 463 802 484 783 q 386 822 441 822 q 250 786 320 822 z "},"":{"ha":648,"x_min":-9,"x_max":515,"o":"m 370 -182 l 355 -176 q 337 -170 343 -172 q 322 -159 330 -167 q 314 -143 314 -152 q 323 -125 314 -132 q 343 -118 332 -118 q 368 -122 348 -118 l 422 -131 q 436 -131 425 -131 q 452 -132 448 -132 q 466 -134 457 -132 q 478 -140 475 -136 q 486 -151 482 -144 q 489 -167 489 -157 q 477 -223 489 -186 q 453 -279 465 -260 q 376 -332 435 -309 q 258 -364 316 -355 q 160 -374 201 -374 q 33 -341 76 -374 q -9 -227 -9 -308 q 87 16 -9 -98 l 268 229 q 281 244 272 235 q 293 258 290 254 q 301 272 297 263 q 304 292 304 281 q 300 310 304 298 q 296 329 296 323 q 326 361 296 361 q 382 328 359 361 q 406 261 406 294 q 306 89 406 183 l 146 -58 q 125 -76 144 -60 q 101 -99 107 -92 q 82 -121 94 -106 q 64 -148 69 -135 q 60 -174 60 -161 q 66 -202 60 -191 q 81 -220 73 -214 q 104 -229 90 -226 q 130 -233 119 -232 q 157 -233 140 -233 q 235 -225 195 -233 q 296 -209 275 -216 q 370 -182 317 -201 m 440 595 q 492 574 468 595 q 515 528 515 554 q 506 462 515 500 q 477 391 497 424 q 435 358 458 358 q 374 385 399 358 q 349 447 349 411 q 354 491 349 467 q 370 539 359 515 q 399 579 380 563 q 440 595 418 595 z "},"":{"ha":1082,"x_min":-102,"x_max":1141,"o":"m 774 484 l 962 800 l 960 803 l 558 471 l 561 468 l 774 484 m 839 319 l 751 149 q 759 132 751 138 q 777 126 766 126 q 787 127 782 126 q 798 131 791 127 q 809 137 804 134 q 824 147 814 140 q 843 161 835 155 q 868 180 850 167 q 899 203 885 193 l 924 167 q 640 -12 745 -12 q 587 11 605 -12 q 570 71 570 34 q 569 75 570 72 q 568 80 568 77 q 570 91 568 83 q 574 108 571 98 q 585 135 578 117 q 604 176 593 153 q 631 232 614 198 q 671 306 648 265 l 368 296 l 83 12 q 71 -1 83 12 q 55 -17 58 -14 q 39 -31 52 -20 q 21 -46 27 -42 q 4 -59 16 -51 q -16 -70 -7 -67 q -34 -76 -24 -73 q -53 -79 -44 -79 q -102 -49 -102 -79 q -28 68 -102 -9 q 136 176 46 144 l 244 296 q 144 295 178 291 q 110 323 110 299 q 172 410 110 347 q 285 490 234 474 q 342 506 313 500 q 393 510 372 511 q 414 500 414 509 q 389 486 414 490 q 338 477 363 481 q 313 463 313 473 q 332 450 313 450 q 416 454 399 454 l 728 713 q 1093 951 1017 951 q 1127 932 1114 951 q 1141 892 1141 913 q 1139 873 1141 884 q 1130 850 1136 863 q 1120 829 1124 837 q 1108 807 1116 822 q 1099 790 1099 791 l 926 489 q 971 490 954 489 q 990 493 988 492 q 1001 494 993 494 q 1017 492 1009 494 q 1054 484 1025 490 q 950 325 1006 427 l 839 319 m 852 1165 l 935 1140 q 1103 1080 1074 1099 q 1129 1055 1117 1072 q 1141 1023 1141 1038 q 1122 1011 1141 1011 q 1076 1022 1103 1011 q 945 1051 1031 1039 q 827 1057 878 1060 q 780 1062 785 1055 q 778 1114 774 1069 q 779 1131 779 1118 q 780 1148 779 1143 q 784 1160 781 1153 q 793 1171 787 1168 q 810 1174 800 1174 q 852 1165 823 1174 z "},"":{"ha":1082,"x_min":-102,"x_max":1240,"o":"m 774 484 l 962 800 l 960 803 l 558 471 l 561 468 l 774 484 m 839 319 l 751 149 q 759 132 751 138 q 777 126 766 126 q 787 127 782 126 q 798 131 791 127 q 809 137 804 134 q 824 147 814 140 q 843 161 835 155 q 868 180 850 167 q 899 203 885 193 l 924 167 q 640 -12 745 -12 q 587 11 605 -12 q 570 71 570 34 q 569 75 570 72 q 568 80 568 77 q 570 91 568 83 q 574 108 571 98 q 585 135 578 117 q 604 176 593 153 q 631 232 614 198 q 671 306 648 265 l 368 296 l 83 12 q 71 -1 83 12 q 55 -17 58 -14 q 39 -31 52 -20 q 21 -46 27 -42 q 4 -59 16 -51 q -16 -70 -7 -67 q -34 -76 -24 -73 q -53 -79 -44 -79 q -102 -49 -102 -79 q -28 68 -102 -9 q 136 176 46 144 l 244 296 q 144 295 178 291 q 110 323 110 299 q 172 410 110 347 q 285 490 234 474 q 342 506 313 500 q 393 510 372 511 q 414 500 414 509 q 389 486 414 490 q 338 477 363 481 q 313 463 313 473 q 332 450 313 450 q 416 454 399 454 l 728 713 q 1093 951 1017 951 q 1127 932 1114 951 q 1141 892 1141 913 q 1139 873 1141 884 q 1130 850 1136 863 q 1120 829 1124 837 q 1108 807 1116 822 q 1099 790 1099 791 l 926 489 q 971 490 954 489 q 990 493 988 492 q 1001 494 993 494 q 1017 492 1009 494 q 1054 484 1025 490 q 950 325 1006 427 l 839 319 m 1079 1114 l 1161 1139 q 1204 1147 1190 1147 q 1218 1145 1213 1147 q 1227 1139 1224 1142 q 1232 1128 1230 1135 q 1235 1117 1234 1122 q 1235 1102 1235 1112 q 1236 1088 1236 1093 q 1234 1036 1240 1043 q 1187 1031 1229 1028 q 1069 1025 1137 1034 q 937 996 982 1013 q 892 985 910 985 q 872 997 872 985 q 884 1028 872 1012 q 911 1054 897 1045 q 1079 1114 939 1072 z "},"":{"ha":1082,"x_min":-102,"x_max":1295,"o":"m 774 484 l 962 800 l 960 803 l 558 471 l 561 468 l 774 484 m 839 319 l 751 149 q 759 132 751 138 q 777 126 766 126 q 787 127 782 126 q 798 131 791 127 q 809 137 804 134 q 824 147 814 140 q 843 161 835 155 q 868 180 850 167 q 899 203 885 193 l 924 167 q 640 -12 745 -12 q 587 11 605 -12 q 570 71 570 34 q 569 75 570 72 q 568 80 568 77 q 570 91 568 83 q 574 108 571 98 q 585 135 578 117 q 604 176 593 153 q 631 232 614 198 q 671 306 648 265 l 368 296 l 83 12 q 71 -1 83 12 q 55 -17 58 -14 q 39 -31 52 -20 q 21 -46 27 -42 q 4 -59 16 -51 q -16 -70 -7 -67 q -34 -76 -24 -73 q -53 -79 -44 -79 q -102 -49 -102 -79 q -28 68 -102 -9 q 136 176 46 144 l 244 296 q 144 295 178 291 q 110 323 110 299 q 172 410 110 347 q 285 490 234 474 q 342 506 313 500 q 393 510 372 511 q 414 500 414 509 q 389 486 414 490 q 338 477 363 481 q 313 463 313 473 q 332 450 313 450 q 416 454 399 454 l 728 713 q 1093 951 1017 951 q 1127 932 1114 951 q 1141 892 1141 913 q 1139 873 1141 884 q 1130 850 1136 863 q 1120 829 1124 837 q 1108 807 1116 822 q 1099 790 1099 791 l 926 489 q 971 490 954 489 q 990 493 988 492 q 1001 494 993 494 q 1017 492 1009 494 q 1054 484 1025 490 q 950 325 1006 427 l 839 319 m 1036 1046 l 914 994 q 867 977 873 977 q 854 996 854 977 q 942 1076 854 1042 l 1054 1121 q 1168 1153 1137 1153 q 1180 1151 1174 1153 q 1194 1145 1187 1149 q 1205 1137 1200 1141 q 1218 1127 1211 1134 q 1228 1117 1225 1120 q 1238 1105 1231 1114 q 1247 1096 1246 1097 q 1259 1085 1249 1095 q 1275 1069 1269 1076 q 1288 1053 1282 1063 q 1295 1036 1295 1043 q 1290 1019 1295 1027 q 1280 1007 1284 1011 q 1265 997 1276 1004 q 1238 977 1243 983 q 1197 1009 1223 985 q 1147 1051 1171 1033 q 1105 1069 1124 1069 q 1036 1046 1096 1069 z "},"":{"ha":1082,"x_min":-102,"x_max":1190,"o":"m 774 484 l 962 800 l 960 803 l 558 471 l 561 468 l 774 484 m 839 319 l 751 149 q 759 132 751 138 q 777 126 766 126 q 787 127 782 126 q 798 131 791 127 q 809 137 804 134 q 824 147 814 140 q 843 161 835 155 q 868 180 850 167 q 899 203 885 193 l 924 167 q 640 -12 745 -12 q 587 11 605 -12 q 570 71 570 34 q 569 75 570 72 q 568 80 568 77 q 570 91 568 83 q 574 108 571 98 q 585 135 578 117 q 604 176 593 153 q 631 232 614 198 q 671 306 648 265 l 368 296 l 83 12 q 71 -1 83 12 q 55 -17 58 -14 q 39 -31 52 -20 q 21 -46 27 -42 q 4 -59 16 -51 q -16 -70 -7 -67 q -34 -76 -24 -73 q -53 -79 -44 -79 q -102 -49 -102 -79 q -28 68 -102 -9 q 136 176 46 144 l 244 296 q 144 295 178 291 q 110 323 110 299 q 172 410 110 347 q 285 490 234 474 q 342 506 313 500 q 393 510 372 511 q 414 500 414 509 q 389 486 414 490 q 338 477 363 481 q 313 463 313 473 q 332 450 313 450 q 416 454 399 454 l 728 713 q 1093 951 1017 951 q 1127 932 1114 951 q 1141 892 1141 913 q 1139 873 1141 884 q 1130 850 1136 863 q 1120 829 1124 837 q 1108 807 1116 822 q 1099 790 1099 791 l 926 489 q 971 490 954 489 q 990 493 988 492 q 1001 494 993 494 q 1017 492 1009 494 q 1054 484 1025 490 q 950 325 1006 427 l 839 319 m 932 1125 l 1112 1107 l 1116 1109 q 1067 1158 1067 1143 q 1073 1172 1067 1165 q 1084 1178 1078 1178 q 1149 1138 1107 1178 q 1190 1061 1190 1097 q 1175 1018 1190 1033 q 1131 1003 1159 1003 q 1045 1013 1103 1003 q 958 1022 987 1023 q 971 1011 964 1017 q 980 1003 977 1005 q 986 998 983 1000 q 989 993 989 995 q 991 989 990 991 q 991 983 991 987 q 987 974 991 978 q 978 970 983 970 q 940 989 966 970 q 924 999 937 991 q 906 1011 911 1008 q 893 1023 901 1015 q 882 1040 885 1031 q 879 1060 879 1049 q 890 1109 879 1093 q 932 1125 901 1125 z "},"":{"ha":1082,"x_min":-102,"x_max":1274,"o":"m 774 484 l 962 800 l 960 803 l 558 471 l 561 468 l 774 484 m 839 319 l 751 149 q 759 132 751 138 q 777 126 766 126 q 787 127 782 126 q 798 131 791 127 q 809 137 804 134 q 824 147 814 140 q 843 161 835 155 q 868 180 850 167 q 899 203 885 193 l 924 167 q 640 -12 745 -12 q 587 11 605 -12 q 570 71 570 34 q 569 75 570 72 q 568 80 568 77 q 570 91 568 83 q 574 108 571 98 q 585 135 578 117 q 604 176 593 153 q 631 232 614 198 q 671 306 648 265 l 368 296 l 83 12 q 71 -1 83 12 q 55 -17 58 -14 q 39 -31 52 -20 q 21 -46 27 -42 q 4 -59 16 -51 q -16 -70 -7 -67 q -34 -76 -24 -73 q -53 -79 -44 -79 q -102 -49 -102 -79 q -28 68 -102 -9 q 136 176 46 144 l 244 296 q 144 295 178 291 q 110 323 110 299 q 172 410 110 347 q 285 490 234 474 q 342 506 313 500 q 393 510 372 511 q 414 500 414 509 q 389 486 414 490 q 338 477 363 481 q 313 463 313 473 q 332 450 313 450 q 416 454 399 454 l 728 713 q 1093 951 1017 951 q 1127 932 1114 951 q 1141 892 1141 913 q 1139 873 1141 884 q 1130 850 1136 863 q 1120 829 1124 837 q 1108 807 1116 822 q 1099 790 1099 791 l 926 489 q 971 490 954 489 q 990 493 988 492 q 1001 494 993 494 q 1017 492 1009 494 q 1054 484 1025 490 q 950 325 1006 427 l 839 319 m 922 1025 q 862 1039 892 1025 q 835 1079 833 1053 q 842 1107 836 1090 q 860 1145 848 1125 q 892 1177 871 1164 q 937 1185 913 1189 q 963 1181 954 1183 q 985 1174 972 1179 q 1004 1159 998 1168 q 1008 1136 1010 1149 q 981 1062 1004 1100 q 922 1025 958 1025 m 1186 1025 q 1126 1039 1156 1025 q 1099 1079 1097 1053 q 1106 1107 1099 1090 q 1124 1145 1112 1125 q 1157 1177 1136 1164 q 1202 1185 1177 1189 q 1227 1181 1217 1183 q 1249 1174 1236 1179 q 1268 1159 1262 1168 q 1272 1136 1274 1149 q 1245 1062 1268 1100 q 1186 1025 1221 1025 z "},"":{"ha":1082,"x_min":-102,"x_max":1278,"o":"m 774 484 l 962 800 l 960 803 l 558 471 l 561 468 l 774 484 m 839 319 l 751 149 q 759 132 751 138 q 777 126 766 126 q 787 127 782 126 q 798 131 791 127 q 809 137 804 134 q 824 147 814 140 q 843 161 835 155 q 868 180 850 167 q 899 203 885 193 l 924 167 q 640 -12 745 -12 q 587 11 605 -12 q 570 71 570 34 q 569 75 570 72 q 568 80 568 77 q 570 91 568 83 q 574 108 571 98 q 585 135 578 117 q 604 176 593 153 q 631 232 614 198 q 671 306 648 265 l 368 296 l 83 12 q 71 -1 83 12 q 55 -17 58 -14 q 39 -31 52 -20 q 21 -46 27 -42 q 4 -59 16 -51 q -16 -70 -7 -67 q -34 -76 -24 -73 q -53 -79 -44 -79 q -102 -49 -102 -79 q -28 68 -102 -9 q 136 176 46 144 l 244 296 q 144 295 178 291 q 110 323 110 299 q 172 410 110 347 q 285 490 234 474 q 342 506 313 500 q 393 510 372 511 q 414 500 414 509 q 389 486 414 490 q 338 477 363 481 q 313 463 313 473 q 332 450 313 450 q 416 454 399 454 l 728 713 q 1093 951 1017 951 q 1127 932 1114 951 q 1141 892 1141 913 q 1139 873 1141 884 q 1130 850 1136 863 q 1120 829 1124 837 q 1108 807 1116 822 q 1099 790 1099 791 l 926 489 q 971 490 954 489 q 990 493 988 492 q 1001 494 993 494 q 1017 492 1009 494 q 1054 484 1025 490 q 950 325 1006 427 l 839 319 m 1214 1206 l 1264 1178 q 1278 1135 1278 1164 q 1266 1062 1278 1096 q 1226 1005 1255 1029 q 1158 981 1198 981 q 1086 1010 1118 981 q 1054 1080 1054 1040 q 1101 1177 1054 1128 q 1173 1225 1147 1225 q 1184 1223 1178 1225 q 1194 1218 1190 1221 q 1204 1212 1198 1215 q 1214 1206 1211 1208 m 1187 1156 q 1139 1105 1154 1131 q 1124 1040 1124 1079 q 1127 1033 1124 1038 q 1131 1026 1131 1028 q 1176 1072 1166 1058 q 1192 1121 1192 1093 q 1187 1156 1192 1139 z "},"":{"ha":1779,"x_min":-102,"x_max":1844,"o":"m 1841 949 l 1843 890 q 1844 860 1844 871 q 1844 839 1844 850 q 1839 822 1843 827 q 1831 810 1835 816 q 1816 799 1827 804 q 1796 791 1806 795 q 1767 781 1786 787 q 1684 745 1729 768 q 1610 706 1639 722 q 1572 690 1581 690 q 1561 694 1566 690 q 1557 704 1557 698 q 1579 737 1557 714 q 1626 781 1602 760 q 1650 803 1649 802 l 1650 800 l 1653 800 l 1653 803 q 1473 790 1559 804 q 1328 755 1387 777 q 1224 708 1268 733 q 1159 660 1179 683 q 1141 623 1139 637 q 1154 600 1144 606 q 1584 568 1204 562 q 1676 539 1676 568 q 1658 492 1676 522 q 1625 449 1640 462 q 1493 412 1601 428 q 1305 368 1392 396 q 1162 308 1218 339 q 1066 245 1106 277 q 1008 189 1025 214 q 990 147 990 163 q 1020 117 990 128 q 1107 103 1050 105 q 1435 151 1251 96 q 1524 188 1480 165 q 1630 248 1569 210 q 1714 298 1691 286 q 1705 170 1719 216 q 1633 77 1690 123 q 1397 -44 1538 -3 q 1121 -82 1255 -85 q 930 -52 1034 -80 q 862 8 889 -40 q 838 89 834 56 q 726 13 762 32 q 640 -12 677 -12 q 587 11 605 -12 q 570 71 570 34 q 569 75 570 72 q 568 80 568 77 q 570 91 568 83 q 574 108 571 98 q 585 135 578 117 q 604 176 593 153 q 631 232 614 198 q 671 306 648 265 l 368 296 l 83 12 q 71 -1 83 12 q 55 -17 58 -14 q 39 -31 52 -20 q 21 -46 27 -42 q 4 -59 16 -51 q -16 -70 -7 -67 q -34 -76 -24 -73 q -53 -79 -44 -79 q -102 -49 -102 -79 q -28 68 -102 -9 q 136 176 46 144 l 244 296 q 144 295 178 291 q 110 323 110 299 q 172 410 110 347 q 285 490 234 474 q 342 506 313 500 q 393 510 372 511 q 414 500 414 509 q 389 486 414 490 q 338 477 363 481 q 313 463 313 473 q 332 450 313 450 q 416 454 399 454 l 728 713 q 1093 951 1017 951 q 1133 928 1117 951 q 1132 861 1148 904 l 1135 859 q 1367 959 1243 930 q 1645 987 1491 987 q 1668 988 1648 987 q 1700 988 1688 988 q 1733 987 1712 987 q 1769 983 1754 986 q 1800 977 1784 981 q 1826 965 1815 972 q 1841 949 1836 958 m 559 471 l 562 468 l 774 484 l 961 799 l 958 802 l 559 471 m 989 603 l 925 490 q 977 493 964 494 q 1004 479 989 492 q 909 325 948 410 l 838 321 l 790 231 q 758 132 746 146 q 774 127 762 127 q 848 168 804 127 l 860 178 q 941 288 886 237 q 1067 374 996 338 q 1212 433 1139 409 q 1367 472 1286 456 l 1367 475 l 1147 505 q 1051 541 1088 520 q 989 603 1014 561 z "},"":{"ha":993,"x_min":-12,"x_max":1021,"o":"m 484 440 l 586 530 q 657 585 640 585 q 671 553 680 585 l 673 550 q 833 717 770 633 q 896 838 896 801 q 886 862 896 855 q 859 865 876 869 q 846 863 858 865 q 822 857 833 861 q 789 846 810 853 q 744 825 768 838 q 690 794 721 812 q 625 747 660 775 q 550 683 589 718 q 462 597 510 647 q 364 489 414 547 q 243 298 291 403 q 196 115 196 194 q 233 -1 196 40 q 343 -41 270 -41 q 492 -5 405 -41 q 667 88 580 31 q 827 199 755 144 q 956 302 899 253 q 949 244 958 268 q 929 207 941 220 q 885 163 918 194 q 606 -57 741 23 q 361 -165 471 -138 l 336 -215 q 395 -218 367 -213 q 445 -243 422 -224 q 467 -293 467 -262 q 423 -367 467 -344 q 323 -387 380 -391 q 285 -382 309 -387 q 233 -370 260 -378 q 185 -349 205 -362 q 165 -322 165 -336 q 169 -312 165 -317 q 178 -307 173 -307 q 218 -322 186 -307 q 273 -338 250 -338 q 322 -325 299 -338 q 345 -288 345 -311 q 265 -241 345 -241 l 297 -178 q 253 -182 273 -182 q 62 -113 136 -182 q -12 74 -12 -44 q 16 227 -12 147 q 92 380 44 307 q 191 515 139 453 q 301 632 243 577 q 419 733 350 679 q 569 841 488 787 q 734 931 651 895 q 876 966 818 966 q 978 933 940 966 q 1018 835 1015 899 q 964 671 1021 768 q 826 489 907 574 q 651 339 744 404 q 494 265 558 275 q 440 280 463 261 q 416 332 416 299 q 484 440 416 382 z "},"":{"ha":975,"x_min":29,"x_max":1040,"o":"m 1039 856 q 1040 826 1040 836 q 1039 804 1040 815 q 1035 787 1039 793 q 1027 775 1031 781 q 1012 765 1023 769 q 991 756 1002 760 q 962 746 981 752 q 880 711 924 733 q 807 673 836 689 q 768 656 778 657 q 759 659 764 654 q 753 669 753 663 q 785 713 753 682 q 848 768 817 743 q 669 755 755 769 q 524 720 583 741 q 420 673 464 699 q 355 625 376 648 q 338 587 335 602 q 349 565 340 572 q 779 534 401 526 q 872 504 872 534 q 854 456 872 486 q 821 414 836 427 q 689 378 798 393 q 501 333 588 361 q 358 274 414 304 q 261 211 302 243 q 203 154 221 179 q 186 113 186 129 q 216 82 186 94 q 302 68 247 70 q 631 117 446 60 q 720 153 675 130 q 826 213 764 176 q 909 264 887 251 q 901 135 915 182 q 829 41 886 88 q 785 8 811 26 q 710 -33 760 -9 q 607 -75 661 -57 q 475 -106 552 -94 q 317 -117 397 -118 q 126 -86 229 -115 q 57 -25 84 -74 q 29 71 29 24 q 45 135 29 100 q 99 213 60 170 q 197 295 138 255 q 349 374 255 334 q 561 443 444 414 l 561 447 q 400 460 469 450 q 290 485 332 470 q 224 520 249 499 q 190 561 199 541 q 180 607 180 582 q 204 696 180 650 q 281 789 229 742 q 409 872 334 836 q 596 932 484 909 q 840 956 709 956 q 858 956 842 956 q 881 956 874 956 q 906 955 888 956 q 934 954 924 955 q 960 950 944 952 q 986 945 976 949 q 1008 938 997 942 q 1026 928 1019 934 q 1036 914 1033 922 l 1039 856 m 576 1152 l 659 1126 q 827 1067 798 1085 q 853 1041 841 1058 q 865 1010 865 1025 q 846 997 865 997 q 800 1008 829 997 q 668 1038 755 1025 q 550 1043 604 1046 q 503 1048 509 1040 q 501 1100 498 1055 q 502 1114 502 1105 q 503 1129 503 1124 q 505 1141 503 1134 q 510 1151 507 1147 q 519 1157 513 1154 q 533 1160 525 1160 q 576 1152 549 1160 z "},"":{"ha":975,"x_min":29,"x_max":1040,"o":"m 1039 856 q 1040 826 1040 836 q 1039 804 1040 815 q 1035 787 1039 793 q 1027 775 1031 781 q 1012 765 1023 769 q 991 756 1002 760 q 962 746 981 752 q 880 711 924 733 q 807 673 836 689 q 768 656 778 657 q 759 659 764 654 q 753 669 753 663 q 785 713 753 682 q 848 768 817 743 q 669 755 755 769 q 524 720 583 741 q 420 673 464 699 q 355 625 376 648 q 338 587 335 602 q 349 565 340 572 q 779 534 401 526 q 872 504 872 534 q 854 456 872 486 q 821 414 836 427 q 689 378 798 393 q 501 333 588 361 q 358 274 414 304 q 261 211 302 243 q 203 154 221 179 q 186 113 186 129 q 216 82 186 94 q 302 68 247 70 q 631 117 446 60 q 720 153 675 130 q 826 213 764 176 q 909 264 887 251 q 901 135 915 182 q 829 41 886 88 q 785 8 811 26 q 710 -33 760 -9 q 607 -75 661 -57 q 475 -106 552 -94 q 317 -117 397 -118 q 126 -86 229 -115 q 57 -25 84 -74 q 29 71 29 24 q 45 135 29 100 q 99 213 60 170 q 197 295 138 255 q 349 374 255 334 q 561 443 444 414 l 561 447 q 400 460 469 450 q 290 485 332 470 q 224 520 249 499 q 190 561 199 541 q 180 607 180 582 q 204 696 180 650 q 281 789 229 742 q 409 872 334 836 q 596 932 484 909 q 840 956 709 956 q 858 956 842 956 q 881 956 874 956 q 906 955 888 956 q 934 954 924 955 q 960 950 944 952 q 986 945 976 949 q 1008 938 997 942 q 1026 928 1019 934 q 1036 914 1033 922 l 1039 856 m 733 1114 l 815 1139 q 859 1147 844 1147 q 872 1145 867 1147 q 881 1139 878 1142 q 886 1128 884 1135 q 889 1117 888 1122 q 889 1102 889 1112 q 890 1088 890 1093 q 888 1036 894 1043 q 842 1031 883 1028 q 724 1025 791 1034 q 591 996 636 1013 q 546 985 564 985 q 526 997 526 985 q 539 1028 526 1012 q 566 1054 551 1044 q 733 1114 595 1073 z "},"":{"ha":975,"x_min":29,"x_max":1040,"o":"m 1039 856 q 1040 826 1040 836 q 1039 804 1040 815 q 1035 787 1039 793 q 1027 775 1031 781 q 1012 765 1023 769 q 991 756 1002 760 q 962 746 981 752 q 880 711 924 733 q 807 673 836 689 q 768 656 778 657 q 759 659 764 654 q 753 669 753 663 q 785 713 753 682 q 848 768 817 743 q 669 755 755 769 q 524 720 583 741 q 420 673 464 699 q 355 625 376 648 q 338 587 335 602 q 349 565 340 572 q 779 534 401 526 q 872 504 872 534 q 854 456 872 486 q 821 414 836 427 q 689 378 798 393 q 501 333 588 361 q 358 274 414 304 q 261 211 302 243 q 203 154 221 179 q 186 113 186 129 q 216 82 186 94 q 302 68 247 70 q 631 117 446 60 q 720 153 675 130 q 826 213 764 176 q 909 264 887 251 q 901 135 915 182 q 829 41 886 88 q 785 8 811 26 q 710 -33 760 -9 q 607 -75 661 -57 q 475 -106 552 -94 q 317 -117 397 -118 q 126 -86 229 -115 q 57 -25 84 -74 q 29 71 29 24 q 45 135 29 100 q 99 213 60 170 q 197 295 138 255 q 349 374 255 334 q 561 443 444 414 l 561 447 q 400 460 469 450 q 290 485 332 470 q 224 520 249 499 q 190 561 199 541 q 180 607 180 582 q 204 696 180 650 q 281 789 229 742 q 409 872 334 836 q 596 932 484 909 q 840 956 709 956 q 858 956 842 956 q 881 956 874 956 q 906 955 888 956 q 934 954 924 955 q 960 950 944 952 q 986 945 976 949 q 1008 938 997 942 q 1026 928 1019 934 q 1036 914 1033 922 l 1039 856 m 690 1046 l 568 994 q 521 977 527 977 q 509 996 509 977 q 596 1076 509 1042 l 708 1121 q 822 1153 791 1153 q 834 1151 828 1153 q 848 1145 841 1149 q 860 1137 854 1141 q 872 1127 865 1134 q 882 1117 879 1120 q 892 1105 885 1114 q 901 1096 900 1097 q 913 1085 903 1095 q 929 1069 923 1076 q 942 1053 936 1063 q 949 1036 949 1043 q 944 1019 949 1027 q 934 1007 939 1011 q 920 997 930 1004 q 892 977 897 983 q 851 1009 878 985 q 802 1051 825 1033 q 760 1069 778 1069 q 690 1046 750 1069 z "},"":{"ha":975,"x_min":29,"x_max":1040,"o":"m 1039 856 q 1040 826 1040 836 q 1039 804 1040 815 q 1035 787 1039 793 q 1027 775 1031 781 q 1012 765 1023 769 q 991 756 1002 760 q 962 746 981 752 q 880 711 924 733 q 807 673 836 689 q 768 656 778 657 q 759 659 764 654 q 753 669 753 663 q 785 713 753 682 q 848 768 817 743 q 669 755 755 769 q 524 720 583 741 q 420 673 464 699 q 355 625 376 648 q 338 587 335 602 q 349 565 340 572 q 779 534 401 526 q 872 504 872 534 q 854 456 872 486 q 821 414 836 427 q 689 378 798 393 q 501 333 588 361 q 358 274 414 304 q 261 211 302 243 q 203 154 221 179 q 186 113 186 129 q 216 82 186 94 q 302 68 247 70 q 631 117 446 60 q 720 153 675 130 q 826 213 764 176 q 909 264 887 251 q 901 135 915 182 q 829 41 886 88 q 785 8 811 26 q 710 -33 760 -9 q 607 -75 661 -57 q 475 -106 552 -94 q 317 -117 397 -118 q 126 -86 229 -115 q 57 -25 84 -74 q 29 71 29 24 q 45 135 29 100 q 99 213 60 170 q 197 295 138 255 q 349 374 255 334 q 561 443 444 414 l 561 447 q 400 460 469 450 q 290 485 332 470 q 224 520 249 499 q 190 561 199 541 q 180 607 180 582 q 204 696 180 650 q 281 789 229 742 q 409 872 334 836 q 596 932 484 909 q 840 956 709 956 q 858 956 842 956 q 881 956 874 956 q 906 955 888 956 q 934 954 924 955 q 960 950 944 952 q 986 945 976 949 q 1008 938 997 942 q 1026 928 1019 934 q 1036 914 1033 922 l 1039 856 m 646 1025 q 586 1039 615 1025 q 558 1079 556 1053 q 565 1107 559 1090 q 584 1145 572 1125 q 616 1177 595 1164 q 661 1185 637 1189 q 686 1181 677 1183 q 709 1174 696 1179 q 727 1159 722 1168 q 732 1136 733 1149 q 704 1062 728 1100 q 646 1025 681 1025 m 909 1025 q 849 1039 879 1025 q 822 1079 820 1053 q 829 1107 823 1090 q 847 1145 836 1125 q 880 1177 859 1164 q 925 1185 901 1189 q 950 1181 941 1183 q 972 1174 960 1179 q 991 1159 985 1168 q 996 1136 997 1149 q 968 1062 991 1100 q 909 1025 945 1025 z "},"":{"ha":684,"x_min":69,"x_max":781,"o":"m 256 517 l 290 524 q 343 532 337 532 q 352 528 348 532 q 355 518 355 524 q 350 503 355 511 q 340 491 345 495 q 326 479 336 487 q 314 471 315 472 q 297 458 313 470 q 271 438 281 446 q 244 420 260 431 q 217 404 229 410 q 197 399 205 399 q 121 437 174 399 q 72 501 69 475 q 139 662 79 578 q 284 812 200 747 q 467 920 369 877 q 643 962 564 962 q 745 919 710 962 q 781 807 781 875 q 755 681 781 756 q 693 531 730 605 q 608 373 656 457 q 520 230 559 290 q 444 117 482 171 q 439 51 455 90 q 394 -14 422 13 q 345 -43 366 -41 q 292 -24 319 -45 q 265 22 265 -3 q 289 77 265 43 q 559 507 460 322 q 659 749 659 692 q 649 787 659 769 q 621 806 640 806 q 432 706 557 798 q 256 517 308 614 m 407 1165 l 489 1140 q 657 1080 629 1099 q 684 1055 671 1072 q 696 1023 696 1038 q 676 1011 696 1011 q 631 1022 658 1011 q 498 1051 586 1039 q 380 1057 431 1060 q 334 1062 339 1055 q 332 1114 328 1069 q 333 1128 332 1118 q 334 1143 333 1138 q 336 1155 334 1147 q 341 1165 338 1162 q 350 1171 344 1168 q 364 1174 356 1174 q 407 1165 378 1174 z "},"":{"ha":684,"x_min":69,"x_max":781,"o":"m 256 517 l 290 524 q 343 532 337 532 q 352 528 348 532 q 355 518 355 524 q 350 503 355 511 q 340 491 345 495 q 326 479 336 487 q 314 471 315 472 q 297 458 313 470 q 271 438 281 446 q 244 420 260 431 q 217 404 229 410 q 197 399 205 399 q 121 437 174 399 q 72 501 69 475 q 139 662 79 578 q 284 812 200 747 q 467 920 369 877 q 643 962 564 962 q 745 919 710 962 q 781 807 781 875 q 755 681 781 756 q 693 531 730 605 q 608 373 656 457 q 520 230 559 290 q 444 117 482 171 q 439 51 455 90 q 394 -14 422 13 q 345 -43 366 -41 q 292 -24 319 -45 q 265 22 265 -3 q 289 77 265 43 q 559 507 460 322 q 659 749 659 692 q 649 787 659 769 q 621 806 640 806 q 432 706 557 798 q 256 517 308 614 m 589 1114 l 671 1139 q 714 1147 700 1147 q 728 1145 722 1147 q 737 1139 734 1142 q 742 1128 740 1135 q 744 1117 744 1122 q 745 1102 745 1112 q 746 1088 745 1093 q 744 1036 749 1043 q 697 1031 739 1028 q 579 1025 646 1034 q 447 996 492 1013 q 401 985 420 985 q 382 997 382 985 q 394 1028 382 1012 q 421 1054 407 1044 q 589 1114 450 1073 z "},"":{"ha":684,"x_min":69,"x_max":804,"o":"m 256 517 l 290 524 q 343 532 337 532 q 352 528 348 532 q 355 518 355 524 q 350 503 355 511 q 340 491 345 495 q 326 479 336 487 q 314 471 315 472 q 297 458 313 470 q 271 438 281 446 q 244 420 260 431 q 217 404 229 410 q 197 399 205 399 q 121 437 174 399 q 72 501 69 475 q 139 662 79 578 q 284 812 200 747 q 467 920 369 877 q 643 962 564 962 q 745 919 710 962 q 781 807 781 875 q 755 681 781 756 q 693 531 730 605 q 608 373 656 457 q 520 230 559 290 q 444 117 482 171 q 439 51 455 90 q 394 -14 422 13 q 345 -43 366 -41 q 292 -24 319 -45 q 265 22 265 -3 q 289 77 265 43 q 559 507 460 322 q 659 749 659 692 q 649 787 659 769 q 621 806 640 806 q 432 706 557 798 q 256 517 308 614 m 546 1046 l 424 994 q 376 977 382 977 q 364 996 364 977 q 452 1076 364 1042 l 564 1121 q 677 1153 647 1153 q 690 1151 684 1153 q 703 1145 696 1149 q 715 1137 710 1141 q 727 1127 720 1134 q 738 1117 734 1120 q 748 1105 741 1114 q 757 1096 755 1097 q 768 1085 758 1095 q 785 1069 779 1076 q 798 1053 791 1063 q 804 1036 804 1043 q 799 1019 804 1027 q 790 1007 794 1011 q 775 997 785 1004 q 747 977 753 983 q 707 1009 733 985 q 657 1051 681 1033 q 615 1069 633 1069 q 546 1046 605 1069 z "},"":{"ha":684,"x_min":69,"x_max":828,"o":"m 256 517 l 290 524 q 343 532 337 532 q 352 528 348 532 q 355 518 355 524 q 350 503 355 511 q 340 491 345 495 q 326 479 336 487 q 314 471 315 472 q 297 458 313 470 q 271 438 281 446 q 244 420 260 431 q 217 404 229 410 q 197 399 205 399 q 121 437 174 399 q 72 501 69 475 q 139 662 79 578 q 284 812 200 747 q 467 920 369 877 q 643 962 564 962 q 745 919 710 962 q 781 807 781 875 q 755 681 781 756 q 693 531 730 605 q 608 373 656 457 q 520 230 559 290 q 444 117 482 171 q 439 51 455 90 q 394 -14 422 13 q 345 -43 366 -41 q 292 -24 319 -45 q 265 22 265 -3 q 289 77 265 43 q 559 507 460 322 q 659 749 659 692 q 649 787 659 769 q 621 806 640 806 q 432 706 557 798 q 256 517 308 614 m 476 1025 q 416 1039 446 1025 q 389 1079 387 1053 q 396 1107 389 1090 q 414 1145 402 1125 q 447 1177 426 1164 q 492 1185 467 1189 q 517 1181 507 1183 q 539 1174 526 1179 q 558 1159 552 1168 q 562 1136 564 1149 q 535 1062 558 1100 q 476 1025 511 1025 m 741 1025 q 681 1039 710 1025 q 653 1079 651 1053 q 660 1107 654 1090 q 678 1145 667 1125 q 710 1177 690 1164 q 755 1185 731 1189 q 781 1181 772 1183 q 803 1174 790 1179 q 822 1159 817 1168 q 827 1136 828 1149 q 799 1062 823 1100 q 741 1025 776 1025 z "},"":{"ha":1116,"x_min":75,"x_max":1177,"o":"m 421 404 l 313 261 q 294 235 299 243 q 284 214 289 227 q 279 184 279 200 q 363 142 279 142 q 521 158 433 142 q 682 201 608 175 q 866 286 788 239 q 988 381 944 332 q 1054 478 1033 431 q 1075 574 1075 526 q 802 754 1075 724 q 665 764 767 758 q 648 707 656 728 q 619 661 639 687 l 484 484 l 558 486 q 643 476 618 486 q 669 443 668 466 q 623 408 669 408 q 421 404 481 408 m 367 484 l 587 758 q 289 693 418 743 l 289 690 l 326 690 q 401 675 401 690 q 387 657 401 664 q 358 650 372 651 q 249 621 334 646 q 127 596 164 596 q 89 608 103 596 q 75 644 75 621 q 94 741 75 658 q 137 820 106 791 q 227 875 168 848 q 456 945 323 918 q 699 972 589 972 q 880 955 789 972 q 1031 899 970 938 q 1140 769 1103 852 q 1177 591 1177 685 q 1149 450 1177 519 q 1073 325 1121 381 q 968 223 1025 269 q 847 140 912 177 q 567 30 732 76 q 273 -16 401 -16 q 154 0 182 -16 q 122 74 122 16 q 144 175 122 122 q 192 262 167 228 q 256 345 216 296 l 296 393 l 293 396 q 238 390 271 396 q 178 378 204 385 q 149 372 151 372 q 140 385 140 372 q 155 430 140 400 q 193 464 170 460 q 367 484 288 479 z "},"":{"ha":1161,"x_min":66,"x_max":1239,"o":"m 764 265 l 1000 700 l 997 703 q 667 368 776 492 q 605 290 649 347 q 490 137 561 232 q 406 24 419 42 q 393 6 397 12 q 379 -7 389 1 q 361 -16 369 -16 q 294 17 336 -16 q 252 72 252 49 q 265 103 252 81 q 460 443 331 204 q 589 732 589 682 q 584 754 589 747 q 567 761 580 761 q 415 702 530 761 q 134 532 301 642 q 92 514 110 514 q 66 575 66 514 q 92 675 66 623 q 154 769 117 727 q 231 847 191 812 q 303 902 271 882 q 349 921 336 921 q 359 918 354 921 q 364 909 364 914 q 360 901 364 907 q 338 872 357 894 q 289 821 319 850 l 292 818 q 360 856 341 846 q 434 893 380 866 q 523 933 489 920 q 601 958 556 946 q 677 970 645 970 q 743 949 716 970 q 766 892 769 928 q 721 732 761 817 q 545 410 680 648 q 525 374 532 386 l 528 371 q 746 626 651 519 q 884 774 840 732 q 947 831 927 817 q 978 852 956 836 q 1020 881 1001 868 q 1060 907 1038 893 q 1099 929 1082 922 q 1125 937 1116 937 q 1165 919 1138 937 q 1215 868 1192 901 q 1239 806 1239 836 q 1208 721 1239 776 q 1135 608 1177 667 q 1031 455 1092 549 q 928 275 971 361 q 885 161 885 189 q 921 104 885 104 q 1056 195 958 104 q 1198 342 1154 286 q 1202 306 1200 326 q 1204 279 1204 286 q 1189 248 1204 267 q 1050 87 1118 156 q 932 -17 983 19 q 845 -70 882 -53 q 783 -86 808 -86 q 712 -51 735 -86 q 689 35 689 -16 q 764 265 689 127 m 828 1125 l 1008 1107 l 1011 1109 q 962 1158 962 1143 q 968 1172 962 1165 q 981 1178 975 1178 q 1045 1138 1004 1178 q 1086 1061 1086 1097 q 1070 1018 1086 1033 q 1026 1003 1055 1003 q 941 1013 998 1003 q 854 1022 884 1023 q 867 1011 861 1017 q 876 1003 873 1005 q 882 998 879 1000 q 886 993 885 995 q 887 989 886 991 q 888 983 888 987 q 883 974 888 979 q 873 970 879 970 q 836 989 863 970 q 821 999 833 991 q 803 1011 808 1008 q 789 1023 798 1015 q 778 1040 781 1031 q 775 1060 775 1049 q 786 1109 775 1093 q 828 1125 798 1125 z "},"":{"ha":887,"x_min":45,"x_max":939,"o":"m 768 764 l 770 762 q 895 750 849 785 q 937 640 935 718 q 914 496 939 572 q 845 349 889 420 q 738 212 801 277 q 605 98 675 146 q 454 21 535 50 q 296 -7 373 -7 q 229 2 261 -6 q 165 32 197 11 q 109 84 133 53 q 69 165 85 115 q 49 277 52 214 q 77 428 45 349 q 167 577 110 507 q 299 713 224 648 q 454 829 374 779 q 615 911 534 878 q 762 954 696 945 q 811 944 785 958 q 854 910 836 930 q 885 871 873 890 q 897 843 897 852 q 891 825 897 833 q 873 811 885 817 q 854 802 861 805 q 833 795 847 800 q 829 794 831 795 q 768 764 812 788 m 406 486 q 402 481 405 486 q 398 476 399 477 q 393 470 396 474 q 388 464 390 466 q 382 458 385 461 q 375 453 378 455 q 369 450 372 452 q 363 449 366 449 q 356 450 359 449 q 351 455 353 452 q 348 460 349 458 q 346 467 347 463 q 344 474 345 472 q 343 481 344 477 q 343 488 343 486 q 233 342 277 421 q 189 184 189 264 q 207 119 189 144 q 262 94 225 94 q 395 129 318 94 q 519 203 473 163 q 733 435 654 317 q 815 632 812 553 q 802 679 817 659 q 761 700 787 700 q 565 632 673 700 q 406 486 457 564 m 568 1165 l 650 1140 q 818 1080 789 1099 q 845 1055 832 1071 q 857 1023 857 1038 q 838 1011 857 1011 q 791 1022 819 1011 q 660 1051 746 1039 q 542 1057 593 1060 q 495 1062 500 1055 q 493 1114 490 1069 q 494 1131 494 1118 q 495 1148 494 1143 q 499 1160 496 1153 q 509 1171 503 1168 q 525 1174 515 1174 q 568 1165 539 1174 z "},"":{"ha":887,"x_min":45,"x_max":939,"o":"m 768 764 l 770 762 q 895 750 849 785 q 937 640 935 718 q 914 496 939 572 q 845 349 889 420 q 738 212 801 277 q 605 98 675 146 q 454 21 535 50 q 296 -7 373 -7 q 229 2 261 -6 q 165 32 197 11 q 109 84 133 53 q 69 165 85 115 q 49 277 52 214 q 77 428 45 349 q 167 577 110 507 q 299 713 224 648 q 454 829 374 779 q 615 911 534 878 q 762 954 696 945 q 811 944 785 958 q 854 910 836 930 q 885 871 873 890 q 897 843 897 852 q 891 825 897 833 q 873 811 885 817 q 854 802 861 805 q 833 795 847 800 q 829 794 831 795 q 768 764 812 788 m 406 486 q 402 481 405 486 q 398 476 399 477 q 393 470 396 474 q 388 464 390 466 q 382 458 385 461 q 375 453 378 455 q 369 450 372 452 q 363 449 366 449 q 356 450 359 449 q 351 455 353 452 q 348 460 349 458 q 346 467 347 463 q 344 474 345 472 q 343 481 344 477 q 343 488 343 486 q 233 342 277 421 q 189 184 189 264 q 207 119 189 144 q 262 94 225 94 q 395 129 318 94 q 519 203 473 163 q 733 435 654 317 q 815 632 812 553 q 802 679 817 659 q 761 700 787 700 q 565 632 673 700 q 406 486 457 564 m 774 1114 l 856 1139 q 899 1147 885 1147 q 912 1145 907 1147 q 921 1139 918 1142 q 926 1128 924 1135 q 929 1117 928 1122 q 929 1102 929 1112 q 930 1088 930 1093 q 928 1036 934 1043 q 882 1031 923 1028 q 764 1025 831 1034 q 632 996 677 1013 q 586 985 605 985 q 567 997 567 985 q 579 1028 567 1012 q 606 1054 591 1045 q 774 1114 634 1072 z "},"":{"ha":887,"x_min":45,"x_max":961,"o":"m 768 764 l 770 762 q 895 750 849 785 q 937 640 935 718 q 914 496 939 572 q 845 349 889 420 q 738 212 801 277 q 605 98 675 146 q 454 21 535 50 q 296 -7 373 -7 q 229 2 261 -6 q 165 32 197 11 q 109 84 133 53 q 69 165 85 115 q 49 277 52 214 q 77 428 45 349 q 167 577 110 507 q 299 713 224 648 q 454 829 374 779 q 615 911 534 878 q 762 954 696 945 q 811 944 785 958 q 854 910 836 930 q 885 871 873 890 q 897 843 897 852 q 891 825 897 833 q 873 811 885 817 q 854 802 861 805 q 833 795 847 800 q 829 794 831 795 q 768 764 812 788 m 406 486 q 402 481 405 486 q 398 476 399 477 q 393 470 396 474 q 388 464 390 466 q 382 458 385 461 q 375 453 378 455 q 369 450 372 452 q 363 449 366 449 q 356 450 359 449 q 351 455 353 452 q 348 460 349 458 q 346 467 347 463 q 344 474 345 472 q 343 481 344 477 q 343 488 343 486 q 233 342 277 421 q 189 184 189 264 q 207 119 189 144 q 262 94 225 94 q 395 129 318 94 q 519 203 473 163 q 733 435 654 317 q 815 632 812 553 q 802 679 817 659 q 761 700 787 700 q 565 632 673 700 q 406 486 457 564 m 703 1046 l 581 994 q 533 977 539 977 q 521 996 521 977 q 608 1076 521 1042 l 721 1121 q 835 1153 804 1153 q 847 1151 841 1153 q 861 1145 854 1149 q 872 1137 867 1141 q 885 1127 878 1134 q 895 1117 892 1120 q 905 1105 898 1114 q 914 1096 913 1097 q 925 1085 915 1095 q 942 1069 936 1076 q 955 1053 948 1063 q 961 1036 961 1043 q 956 1019 961 1027 q 946 1007 951 1011 q 932 997 942 1004 q 904 977 909 983 q 864 1009 890 985 q 814 1051 838 1033 q 772 1069 791 1069 q 703 1046 762 1069 z "},"":{"ha":887,"x_min":45,"x_max":939,"o":"m 768 764 l 770 762 q 895 750 849 785 q 937 640 935 718 q 914 496 939 572 q 845 349 889 420 q 738 212 801 277 q 605 98 675 146 q 454 21 535 50 q 296 -7 373 -7 q 229 2 261 -6 q 165 32 197 11 q 109 84 133 53 q 69 165 85 115 q 49 277 52 214 q 77 428 45 349 q 167 577 110 507 q 299 713 224 648 q 454 829 374 779 q 615 911 534 878 q 762 954 696 945 q 811 944 785 958 q 854 910 836 930 q 885 871 873 890 q 897 843 897 852 q 891 825 897 833 q 873 811 885 817 q 854 802 861 805 q 833 795 847 800 q 829 794 831 795 q 768 764 812 788 m 406 486 q 402 481 405 486 q 398 476 399 477 q 393 470 396 474 q 388 464 390 466 q 382 458 385 461 q 375 453 378 455 q 369 450 372 452 q 363 449 366 449 q 356 450 359 449 q 351 455 353 452 q 348 460 349 458 q 346 467 347 463 q 344 474 345 472 q 343 481 344 477 q 343 488 343 486 q 233 342 277 421 q 189 184 189 264 q 207 119 189 144 q 262 94 225 94 q 395 129 318 94 q 519 203 473 163 q 733 435 654 317 q 815 632 812 553 q 802 679 817 659 q 761 700 787 700 q 565 632 673 700 q 406 486 457 564 m 604 1139 l 785 1121 l 787 1124 q 739 1173 739 1157 q 745 1185 739 1179 q 757 1192 751 1192 q 821 1151 780 1192 q 863 1075 863 1111 q 847 1031 863 1046 q 803 1017 831 1017 q 718 1027 775 1017 q 631 1036 660 1037 q 642 1026 635 1031 q 650 1019 648 1021 q 656 1014 653 1017 q 660 1009 659 1010 q 662 1005 661 1008 q 664 1001 663 1003 q 664 997 664 1000 q 660 988 664 992 q 650 983 655 983 q 612 1003 640 983 q 596 1014 609 1006 q 579 1025 584 1021 q 566 1037 574 1029 q 555 1054 558 1045 q 551 1074 551 1063 q 563 1122 551 1106 q 604 1139 574 1139 z "},"":{"ha":887,"x_min":45,"x_max":989,"o":"m 768 764 l 770 762 q 895 750 849 785 q 937 640 935 718 q 914 496 939 572 q 845 349 889 420 q 738 212 801 277 q 605 98 675 146 q 454 21 535 50 q 296 -7 373 -7 q 229 2 261 -6 q 165 32 197 11 q 109 84 133 53 q 69 165 85 115 q 49 277 52 214 q 77 428 45 349 q 167 577 110 507 q 299 713 224 648 q 454 829 374 779 q 615 911 534 878 q 762 954 696 945 q 811 944 785 958 q 854 910 836 930 q 885 871 873 890 q 897 843 897 852 q 891 825 897 833 q 873 811 885 817 q 854 802 861 805 q 833 795 847 800 q 829 794 831 795 q 768 764 812 788 m 406 486 q 402 481 405 486 q 398 476 399 477 q 393 470 396 474 q 388 464 390 466 q 382 458 385 461 q 375 453 378 455 q 369 450 372 452 q 363 449 366 449 q 356 450 359 449 q 351 455 353 452 q 348 460 349 458 q 346 467 347 463 q 344 474 345 472 q 343 481 344 477 q 343 488 343 486 q 233 342 277 421 q 189 184 189 264 q 207 119 189 144 q 262 94 225 94 q 395 129 318 94 q 519 203 473 163 q 733 435 654 317 q 815 632 812 553 q 802 679 817 659 q 761 700 787 700 q 565 632 673 700 q 406 486 457 564 m 637 1025 q 577 1039 607 1025 q 550 1079 548 1053 q 557 1107 551 1090 q 575 1145 564 1125 q 608 1177 587 1164 q 653 1185 629 1189 q 678 1181 669 1183 q 701 1174 688 1179 q 719 1159 713 1168 q 724 1136 725 1149 q 696 1062 720 1100 q 637 1025 673 1025 m 901 1025 q 841 1039 871 1025 q 814 1079 812 1053 q 821 1107 814 1090 q 839 1145 827 1125 q 872 1177 851 1164 q 917 1185 892 1189 q 942 1181 932 1183 q 964 1174 951 1179 q 983 1159 977 1168 q 987 1136 989 1149 q 960 1062 983 1100 q 901 1025 937 1025 z "},"":{"ha":890,"x_min":193,"x_max":819,"o":"m 819 81 l 757 21 l 504 289 l 253 22 l 193 81 l 449 349 l 195 616 l 256 675 l 509 410 l 760 676 l 819 619 l 562 350 l 819 81 z "},"":{"ha":887,"x_min":-29,"x_max":1150,"o":"m 28 16 l 98 97 q 49 277 56 173 q 77 428 44 349 q 166 577 109 507 q 299 713 223 648 q 455 829 374 779 q 616 911 536 878 q 764 954 697 945 q 812 944 787 958 q 856 910 838 930 q 886 871 874 890 q 899 843 899 852 q 892 825 899 833 q 874 811 886 817 q 855 802 862 805 q 835 795 848 800 q 831 794 832 795 q 770 764 814 788 l 771 762 q 896 750 850 785 q 946 786 906 756 q 1022 838 986 816 q 1078 860 1058 860 q 1094 857 1086 860 q 1111 846 1101 854 q 1124 834 1120 838 q 1139 818 1128 830 q 1150 806 1149 806 l 932 677 q 936 661 935 669 q 938 646 937 652 q 938 629 938 641 q 937 614 937 618 q 872 393 937 513 q 724 192 808 273 q 533 56 639 111 q 323 -5 427 1 q 176 28 240 -9 q 152 5 174 25 q 124 -22 131 -15 q 104 -45 117 -30 q 86 -74 92 -61 q 80 -87 85 -77 q 74 -101 76 -97 q 67 -112 72 -105 q 59 -122 63 -119 q 47 -128 54 -125 q 32 -131 40 -131 q -11 -113 7 -131 q -29 -69 -29 -94 q -19 -36 -29 -53 q 1 -9 -8 -18 q 28 16 9 -1 m 189 178 l 796 686 q 784 696 790 693 q 771 699 778 699 q 762 700 764 699 q 565 631 674 699 q 406 486 456 564 q 402 481 405 486 q 398 476 399 477 q 393 470 396 474 q 388 464 390 466 q 382 458 385 461 q 375 453 378 455 q 369 450 372 452 q 363 449 366 449 q 351 455 355 449 q 345 473 347 461 q 342 488 342 486 q 189 178 186 329 m 804 589 l 239 97 q 253 95 245 95 q 273 95 260 94 q 290 96 285 96 q 422 142 332 96 q 554 233 513 189 q 659 339 614 286 q 757 467 705 393 q 807 586 783 519 l 804 589 z "},"":{"ha":1213,"x_min":64,"x_max":1296,"o":"m 810 288 l 924 481 l 921 484 q 332 -5 406 -18 q 234 43 267 6 q 201 138 201 80 q 216 197 201 163 q 245 257 230 231 q 292 323 260 282 q 335 378 323 365 q 376 427 346 391 q 473 538 425 484 q 548 621 521 592 q 596 675 574 650 q 627 712 618 700 q 635 730 635 724 q 631 741 635 736 q 621 745 627 745 q 609 742 617 745 q 591 734 601 739 q 581 729 582 730 q 536 710 564 722 q 498 694 507 699 q 466 680 489 690 q 417 656 444 669 q 350 624 391 644 q 244 572 309 604 q 103 528 156 528 q 73 533 83 528 q 66 557 64 539 q 91 635 73 594 q 142 721 109 677 q 218 803 175 766 q 323 870 261 841 q 454 909 385 899 q 592 940 478 913 q 753 966 707 966 q 802 950 782 966 q 830 909 822 934 q 838 856 838 884 q 831 803 838 827 q 810 756 823 779 q 788 720 798 733 q 755 677 779 707 q 721 635 731 648 q 529 410 656 567 q 401 222 401 253 q 429 197 401 197 q 599 308 466 197 q 799 485 732 418 q 919 603 857 542 q 1016 700 981 665 q 1088 772 1050 735 q 1145 827 1125 808 q 1184 861 1164 845 q 1214 882 1203 877 q 1234 888 1225 888 q 1276 858 1261 888 q 1291 799 1291 828 q 1273 745 1296 782 q 1149 568 1250 708 q 1026 396 1075 465 q 946 269 976 326 q 908 188 916 212 q 901 150 901 164 q 917 110 901 126 q 954 94 932 94 q 997 105 971 94 q 1045 130 1023 116 q 1100 167 1067 143 q 1151 205 1133 191 q 1199 245 1168 220 q 1234 273 1230 270 q 1240 228 1240 234 q 1195 171 1240 213 q 1089 85 1150 129 q 959 6 1029 41 q 847 -28 889 -28 q 768 3 798 -28 q 737 82 737 33 q 755 181 737 136 q 810 288 774 227 m 781 1165 l 863 1140 q 1031 1080 1002 1099 q 1057 1055 1045 1072 q 1069 1023 1069 1038 q 1050 1011 1069 1011 q 1004 1022 1031 1011 q 872 1051 960 1039 q 754 1057 805 1060 q 707 1062 713 1055 q 705 1114 702 1069 q 706 1131 706 1118 q 708 1148 707 1143 q 712 1160 709 1153 q 721 1171 715 1168 q 737 1174 727 1174 q 781 1165 751 1174 z "},"":{"ha":1213,"x_min":64,"x_max":1296,"o":"m 810 288 l 924 481 l 921 484 q 332 -5 406 -18 q 234 43 267 6 q 201 138 201 80 q 216 197 201 163 q 245 257 230 231 q 292 323 260 282 q 335 378 323 365 q 376 427 346 391 q 473 538 425 484 q 548 621 521 592 q 596 675 574 650 q 627 712 618 700 q 635 730 635 724 q 631 741 635 736 q 621 745 627 745 q 609 742 617 745 q 591 734 601 739 q 581 729 582 730 q 536 710 564 722 q 498 694 507 699 q 466 680 489 690 q 417 656 444 669 q 350 624 391 644 q 244 572 309 604 q 103 528 156 528 q 73 533 83 528 q 66 557 64 539 q 91 635 73 594 q 142 721 109 677 q 218 803 175 766 q 323 870 261 841 q 454 909 385 899 q 592 940 478 913 q 753 966 707 966 q 802 950 782 966 q 830 909 822 934 q 838 856 838 884 q 831 803 838 827 q 810 756 823 779 q 788 720 798 733 q 755 677 779 707 q 721 635 731 648 q 529 410 656 567 q 401 222 401 253 q 429 197 401 197 q 599 308 466 197 q 799 485 732 418 q 919 603 857 542 q 1016 700 981 665 q 1088 772 1050 735 q 1145 827 1125 808 q 1184 861 1164 845 q 1214 882 1203 877 q 1234 888 1225 888 q 1276 858 1261 888 q 1291 799 1291 828 q 1273 745 1296 782 q 1149 568 1250 708 q 1026 396 1075 465 q 946 269 976 326 q 908 188 916 212 q 901 150 901 164 q 917 110 901 126 q 954 94 932 94 q 997 105 971 94 q 1045 130 1023 116 q 1100 167 1067 143 q 1151 205 1133 191 q 1199 245 1168 220 q 1234 273 1230 270 q 1240 228 1240 234 q 1195 171 1240 213 q 1089 85 1150 129 q 959 6 1029 41 q 847 -28 889 -28 q 768 3 798 -28 q 737 82 737 33 q 755 181 737 136 q 810 288 774 227 m 1006 1114 l 1088 1139 q 1131 1147 1117 1147 q 1144 1145 1139 1147 q 1153 1139 1150 1142 q 1158 1128 1156 1135 q 1161 1117 1160 1122 q 1161 1102 1161 1112 q 1162 1088 1162 1093 q 1160 1036 1166 1043 q 1114 1031 1155 1028 q 996 1025 1063 1034 q 864 996 909 1013 q 818 985 837 985 q 799 997 799 985 q 811 1028 799 1012 q 838 1054 823 1045 q 1006 1114 866 1072 z "},"":{"ha":1213,"x_min":64,"x_max":1296,"o":"m 810 288 l 924 481 l 921 484 q 332 -5 406 -18 q 234 43 267 6 q 201 138 201 80 q 216 197 201 163 q 245 257 230 231 q 292 323 260 282 q 335 378 323 365 q 376 427 346 391 q 473 538 425 484 q 548 621 521 592 q 596 675 574 650 q 627 712 618 700 q 635 730 635 724 q 631 741 635 736 q 621 745 627 745 q 609 742 617 745 q 591 734 601 739 q 581 729 582 730 q 536 710 564 722 q 498 694 507 699 q 466 680 489 690 q 417 656 444 669 q 350 624 391 644 q 244 572 309 604 q 103 528 156 528 q 73 533 83 528 q 66 557 64 539 q 91 635 73 594 q 142 721 109 677 q 218 803 175 766 q 323 870 261 841 q 454 909 385 899 q 592 940 478 913 q 753 966 707 966 q 802 950 782 966 q 830 909 822 934 q 838 856 838 884 q 831 803 838 827 q 810 756 823 779 q 788 720 798 733 q 755 677 779 707 q 721 635 731 648 q 529 410 656 567 q 401 222 401 253 q 429 197 401 197 q 599 308 466 197 q 799 485 732 418 q 919 603 857 542 q 1016 700 981 665 q 1088 772 1050 735 q 1145 827 1125 808 q 1184 861 1164 845 q 1214 882 1203 877 q 1234 888 1225 888 q 1276 858 1261 888 q 1291 799 1291 828 q 1273 745 1296 782 q 1149 568 1250 708 q 1026 396 1075 465 q 946 269 976 326 q 908 188 916 212 q 901 150 901 164 q 917 110 901 126 q 954 94 932 94 q 997 105 971 94 q 1045 130 1023 116 q 1100 167 1067 143 q 1151 205 1133 191 q 1199 245 1168 220 q 1234 273 1230 270 q 1240 228 1240 234 q 1195 171 1240 213 q 1089 85 1150 129 q 959 6 1029 41 q 847 -28 889 -28 q 768 3 798 -28 q 737 82 737 33 q 755 181 737 136 q 810 288 774 227 m 893 1046 l 771 994 q 724 977 730 977 q 711 996 711 977 q 799 1076 711 1042 l 911 1121 q 1025 1153 994 1153 q 1037 1151 1031 1153 q 1050 1145 1044 1149 q 1062 1137 1057 1141 q 1075 1127 1067 1134 q 1085 1117 1082 1120 q 1095 1105 1088 1114 q 1104 1096 1103 1097 q 1116 1085 1105 1095 q 1132 1069 1126 1076 q 1145 1053 1139 1063 q 1152 1036 1152 1043 q 1146 1019 1152 1027 q 1137 1007 1141 1011 q 1122 997 1133 1004 q 1095 977 1100 983 q 1054 1009 1080 985 q 1004 1051 1028 1033 q 962 1069 981 1069 q 893 1046 952 1069 z "},"":{"ha":1213,"x_min":64,"x_max":1296,"o":"m 810 288 l 924 481 l 921 484 q 332 -5 406 -18 q 234 43 267 6 q 201 138 201 80 q 216 197 201 163 q 245 257 230 231 q 292 323 260 282 q 335 378 323 365 q 376 427 346 391 q 473 538 425 484 q 548 621 521 592 q 596 675 574 650 q 627 712 618 700 q 635 730 635 724 q 631 741 635 736 q 621 745 627 745 q 609 742 617 745 q 591 734 601 739 q 581 729 582 730 q 536 710 564 722 q 498 694 507 699 q 466 680 489 690 q 417 656 444 669 q 350 624 391 644 q 244 572 309 604 q 103 528 156 528 q 73 533 83 528 q 66 557 64 539 q 91 635 73 594 q 142 721 109 677 q 218 803 175 766 q 323 870 261 841 q 454 909 385 899 q 592 940 478 913 q 753 966 707 966 q 802 950 782 966 q 830 909 822 934 q 838 856 838 884 q 831 803 838 827 q 810 756 823 779 q 788 720 798 733 q 755 677 779 707 q 721 635 731 648 q 529 410 656 567 q 401 222 401 253 q 429 197 401 197 q 599 308 466 197 q 799 485 732 418 q 919 603 857 542 q 1016 700 981 665 q 1088 772 1050 735 q 1145 827 1125 808 q 1184 861 1164 845 q 1214 882 1203 877 q 1234 888 1225 888 q 1276 858 1261 888 q 1291 799 1291 828 q 1273 745 1296 782 q 1149 568 1250 708 q 1026 396 1075 465 q 946 269 976 326 q 908 188 916 212 q 901 150 901 164 q 917 110 901 126 q 954 94 932 94 q 997 105 971 94 q 1045 130 1023 116 q 1100 167 1067 143 q 1151 205 1133 191 q 1199 245 1168 220 q 1234 273 1230 270 q 1240 228 1240 234 q 1195 171 1240 213 q 1089 85 1150 129 q 959 6 1029 41 q 847 -28 889 -28 q 768 3 798 -28 q 737 82 737 33 q 755 181 737 136 q 810 288 774 227 m 893 1025 q 833 1039 863 1025 q 806 1079 804 1053 q 813 1107 806 1090 q 831 1145 819 1125 q 863 1177 842 1164 q 908 1185 884 1189 q 933 1181 924 1183 q 956 1174 943 1179 q 975 1159 969 1168 q 979 1136 981 1149 q 952 1062 975 1100 q 893 1025 928 1025 m 1157 1025 q 1097 1039 1126 1025 q 1069 1079 1067 1053 q 1077 1107 1070 1090 q 1095 1145 1083 1125 q 1127 1177 1107 1164 q 1173 1185 1148 1189 q 1198 1181 1188 1183 q 1220 1174 1207 1179 q 1239 1159 1233 1168 q 1243 1136 1244 1149 q 1216 1062 1239 1100 q 1157 1025 1192 1025 z "},"":{"ha":1030,"x_min":63,"x_max":1102,"o":"m 831 461 l 463 143 q 421 108 436 120 q 376 73 407 96 q 319 38 345 50 q 273 26 293 26 q 204 56 237 26 q 178 119 172 85 l 179 132 q 182 149 181 144 q 191 172 184 154 q 207 206 197 190 q 235 252 216 222 q 279 315 254 282 q 341 396 303 349 q 425 500 378 444 q 579 690 554 655 q 608 750 608 732 q 604 760 609 756 q 590 765 598 764 q 302 614 463 702 q 135 524 141 527 q 113 513 127 518 q 90 507 98 507 q 66 519 70 507 q 75 575 63 532 l 96 650 q 125 707 106 687 q 182 751 143 727 q 459 891 294 820 q 713 962 624 962 q 782 944 753 962 q 810 886 810 925 q 804 857 810 873 q 787 820 799 840 q 766 783 776 800 q 738 742 755 766 q 711 706 720 718 q 684 671 702 694 q 664 646 667 649 q 580 540 622 592 q 514 457 538 488 q 466 398 490 427 q 431 353 443 368 q 410 323 420 338 q 397 299 401 308 q 393 281 394 290 q 401 264 393 271 q 428 262 410 258 q 467 283 446 266 q 574 370 526 333 q 688 465 623 407 q 956 707 753 522 q 971 721 958 708 q 992 740 984 733 q 1014 755 1001 747 q 1034 762 1026 762 q 1078 733 1058 762 q 1099 679 1099 703 q 1092 653 1099 667 q 1063 608 1084 638 q 1017 545 1042 578 q 941 441 991 511 q 838 297 890 372 q 690 81 714 121 q 673 12 650 14 q 684 14 679 12 q 701 23 689 16 q 729 41 713 31 q 781 71 745 51 q 860 113 816 90 q 909 135 887 126 q 947 146 932 143 q 973 148 962 149 q 988 142 983 146 q 993 131 993 138 q 960 86 993 116 q 908 45 928 56 q 727 -101 827 -16 q 582 -241 628 -186 q 512 -312 536 -294 q 456 -335 481 -335 q 411 -315 428 -335 q 395 -267 395 -296 q 448 -114 395 -218 q 579 104 502 -10 q 722 311 656 219 q 833 458 789 403 l 831 461 m 942 1114 l 1023 1139 q 1067 1147 1053 1147 q 1081 1145 1075 1147 q 1089 1139 1086 1142 q 1095 1128 1093 1135 q 1097 1117 1097 1122 q 1098 1102 1097 1112 q 1099 1088 1098 1093 q 1097 1036 1102 1043 q 1050 1031 1091 1028 q 932 1025 999 1034 q 800 996 846 1013 q 754 985 773 985 q 734 997 734 985 q 747 1028 734 1012 q 774 1054 760 1044 q 942 1114 802 1072 z "},"":{"ha":850,"x_min":52,"x_max":1034,"o":"m 306 406 l 497 650 q 283 625 385 644 q 127 590 182 606 q 68 574 73 574 q 52 593 52 574 q 101 683 52 608 q 163 770 151 759 q 328 806 183 787 q 529 825 472 825 q 635 822 582 825 l 703 918 q 793 981 747 981 q 810 973 802 981 q 818 957 818 966 q 787 890 818 931 l 728 811 q 833 782 780 804 q 931 726 886 760 q 1005 644 977 692 q 1034 542 1034 595 q 1006 446 1034 496 q 922 348 979 396 q 789 260 866 299 q 606 197 713 221 q 379 174 498 174 q 258 182 326 174 l 199 82 q 217 76 210 82 q 224 58 224 70 q 181 -18 224 31 q 103 -66 139 -66 q 75 -52 85 -66 q 64 -17 64 -38 q 79 42 64 5 q 113 111 94 79 l 165 201 q 106 229 128 208 q 83 273 83 250 q 151 365 83 325 q 306 406 218 406 m 608 647 l 364 334 q 481 322 402 322 q 647 347 563 322 q 790 406 732 372 q 885 474 848 439 q 922 530 922 509 q 904 576 922 556 q 859 607 886 595 q 788 628 832 619 q 704 640 745 636 q 608 647 664 644 z "},"":{"ha":772,"x_min":-31,"x_max":794,"o":"m 404 433 l 286 427 l 113 -1 q 104 -22 111 -6 q 93 -49 98 -39 q 80 -75 88 -59 q 63 -99 71 -90 q 44 -115 56 -109 q 21 -122 33 -122 q -18 -103 -5 -122 q -31 -56 -31 -83 q -15 16 -31 -32 q 27 126 0 63 q 76 238 54 189 q 128 350 98 288 q 163 424 157 412 q 118 463 118 429 q 214 517 118 503 q 230 544 215 519 q 248 572 245 568 q 264 598 251 577 q 283 627 277 620 q 300 652 288 634 q 321 680 313 670 q 341 703 329 689 q 364 728 353 718 q 387 750 375 739 q 524 846 448 805 q 667 886 601 886 q 759 855 724 886 q 794 765 794 823 q 773 702 794 732 q 720 648 751 671 q 643 602 688 625 q 561 564 598 579 q 480 532 523 549 q 419 505 438 515 l 422 503 q 607 489 545 509 q 691 431 661 471 q 721 335 721 391 q 678 200 721 267 q 571 86 635 134 q 432 9 507 39 q 293 -20 357 -20 q 220 -3 244 -20 q 196 58 196 13 q 243 151 196 123 q 283 165 253 157 q 326 172 313 172 q 336 168 331 172 q 340 158 340 163 q 330 139 340 144 l 334 136 q 564 323 564 178 q 537 391 564 365 q 477 427 511 418 q 404 433 443 435 m 343 542 l 546 619 q 583 636 567 627 q 617 657 600 644 q 645 689 635 671 q 654 728 654 707 q 636 769 654 753 q 593 785 618 785 q 515 755 557 785 q 440 689 472 725 q 343 542 395 642 z "},"":{"ha":676,"x_min":-44,"x_max":686,"o":"m 429 385 q 264 326 334 355 q 156 271 195 296 q 94 220 117 246 q 65 174 71 193 q 58 131 58 154 q 61 119 60 125 q 70 107 63 114 q 86 103 77 101 q 136 121 114 109 q 432 382 220 168 l 429 385 m 354 197 l 227 94 q 79 1 110 1 q 32 27 60 1 q -19 92 3 52 q -43 165 -41 132 q -7 268 -44 215 q 91 365 31 321 q 220 444 151 408 q 358 499 290 479 q 473 521 425 519 q 539 497 515 522 q 564 454 564 473 q 515 419 564 435 q 555 363 555 403 q 525 306 555 345 q 465 225 495 268 q 435 155 435 183 q 447 130 435 138 q 478 122 460 122 q 535 138 505 122 q 617 191 566 153 q 675 233 669 229 l 686 182 q 527 44 634 122 q 372 -35 419 -35 q 322 -14 339 -35 q 306 39 306 7 q 357 195 306 91 l 354 197 m 233 718 l 315 693 q 484 633 455 652 q 510 608 498 625 q 522 576 522 591 q 503 564 522 564 q 457 575 486 564 q 325 604 412 592 q 207 610 261 612 q 160 614 165 607 q 158 667 155 622 q 159 681 159 671 q 160 695 159 690 q 162 707 161 700 q 167 718 164 714 q 176 724 170 721 q 191 726 182 726 q 233 718 206 726 z "},"":{"ha":676,"x_min":-44,"x_max":686,"o":"m 429 385 q 264 326 334 355 q 156 271 195 296 q 94 220 117 246 q 65 174 71 193 q 58 131 58 154 q 61 119 60 125 q 70 107 63 114 q 86 103 77 101 q 136 121 114 109 q 432 382 220 168 l 429 385 m 354 197 l 227 94 q 79 1 110 1 q 32 27 60 1 q -19 92 3 52 q -43 165 -41 132 q -7 268 -44 215 q 91 365 31 321 q 220 444 151 408 q 358 499 290 479 q 473 521 425 519 q 539 497 515 522 q 564 454 564 473 q 515 419 564 435 q 555 363 555 403 q 525 306 555 345 q 465 225 495 268 q 435 155 435 183 q 447 130 435 138 q 478 122 460 122 q 535 138 505 122 q 617 191 566 153 q 675 233 669 229 l 686 182 q 527 44 634 122 q 372 -35 419 -35 q 322 -14 339 -35 q 306 39 306 7 q 357 195 306 91 l 354 197 m 460 694 l 542 720 q 585 728 569 728 q 598 725 593 728 q 607 719 604 722 q 612 709 610 715 q 615 697 614 702 q 615 682 615 692 q 616 668 616 673 q 617 656 616 664 q 614 616 620 622 q 568 611 608 608 q 450 606 514 614 q 318 576 363 593 q 272 566 291 566 q 253 578 253 566 q 265 609 253 593 q 292 635 277 626 q 460 694 320 653 z "},"":{"ha":676,"x_min":-44,"x_max":686,"o":"m 429 385 q 264 326 334 355 q 156 271 195 296 q 94 220 117 246 q 65 174 71 193 q 58 131 58 154 q 61 119 60 125 q 70 107 63 114 q 86 103 77 101 q 136 121 114 109 q 432 382 220 168 l 429 385 m 354 197 l 227 94 q 79 1 110 1 q 32 27 60 1 q -19 92 3 52 q -43 165 -41 132 q -7 268 -44 215 q 91 365 31 321 q 220 444 151 408 q 358 499 290 479 q 473 521 425 519 q 539 497 515 522 q 564 454 564 473 q 515 419 564 435 q 555 363 555 403 q 525 306 555 345 q 465 225 495 268 q 435 155 435 183 q 447 130 435 138 q 478 122 460 122 q 535 138 505 122 q 617 191 566 153 q 675 233 669 229 l 686 182 q 527 44 634 122 q 372 -35 419 -35 q 322 -14 339 -35 q 306 39 306 7 q 357 195 306 91 l 354 197 m 347 627 l 225 575 q 178 557 182 557 q 165 576 165 557 q 253 657 165 623 l 366 701 q 479 733 449 733 q 495 730 487 733 q 509 724 503 727 q 523 712 515 720 q 535 701 532 704 q 548 687 539 697 q 558 676 557 677 q 570 665 559 675 q 586 649 580 656 q 599 633 593 643 q 606 616 606 623 q 600 600 606 608 q 591 588 595 591 q 576 578 587 585 q 549 557 555 564 q 508 589 534 565 q 458 631 482 613 q 416 650 435 650 q 347 627 405 650 z "},"":{"ha":676,"x_min":-44,"x_max":686,"o":"m 429 385 q 264 326 334 355 q 156 271 195 296 q 94 220 117 246 q 65 174 71 193 q 58 131 58 154 q 61 119 60 125 q 70 107 63 114 q 86 103 77 101 q 136 121 114 109 q 432 382 220 168 l 429 385 m 354 197 l 227 94 q 79 1 110 1 q 32 27 60 1 q -19 92 3 52 q -43 165 -41 132 q -7 268 -44 215 q 91 365 31 321 q 220 444 151 408 q 358 499 290 479 q 473 521 425 519 q 539 497 515 522 q 564 454 564 473 q 515 419 564 435 q 555 363 555 403 q 525 306 555 345 q 465 225 495 268 q 435 155 435 183 q 447 130 435 138 q 478 122 460 122 q 535 138 505 122 q 617 191 566 153 q 675 233 669 229 l 686 182 q 527 44 634 122 q 372 -35 419 -35 q 322 -14 339 -35 q 306 39 306 7 q 357 195 306 91 l 354 197 m 313 692 l 493 673 l 496 676 q 447 725 447 710 q 453 738 447 732 q 465 745 459 745 q 530 705 488 745 q 571 628 571 665 q 555 585 571 600 q 511 570 540 570 q 426 579 484 570 q 339 589 368 589 q 352 577 345 583 q 361 569 358 572 q 367 564 363 567 q 370 559 370 562 q 372 555 371 557 q 372 550 372 553 q 368 541 372 545 q 358 536 363 536 q 321 555 347 536 q 305 566 318 557 q 287 578 292 574 q 274 590 282 582 q 263 607 266 598 q 260 627 260 616 q 271 675 260 659 q 313 692 282 692 z "},"":{"ha":676,"x_min":-44,"x_max":686,"o":"m 429 385 q 264 326 334 355 q 156 271 195 296 q 94 220 117 246 q 65 174 71 193 q 58 131 58 154 q 61 119 60 125 q 70 107 63 114 q 86 103 77 101 q 136 121 114 109 q 432 382 220 168 l 429 385 m 354 197 l 227 94 q 79 1 110 1 q 32 27 60 1 q -19 92 3 52 q -43 165 -41 132 q -7 268 -44 215 q 91 365 31 321 q 220 444 151 408 q 358 499 290 479 q 473 521 425 519 q 539 497 515 522 q 564 454 564 473 q 515 419 564 435 q 555 363 555 403 q 525 306 555 345 q 465 225 495 268 q 435 155 435 183 q 447 130 435 138 q 478 122 460 122 q 535 138 505 122 q 617 191 566 153 q 675 233 669 229 l 686 182 q 527 44 634 122 q 372 -35 419 -35 q 322 -14 339 -35 q 306 39 306 7 q 357 195 306 91 l 354 197 m 302 619 q 242 633 272 619 q 215 673 213 648 q 222 702 216 684 q 240 739 229 720 q 273 771 252 759 q 318 779 294 783 q 343 775 334 777 q 366 768 353 773 q 384 753 378 763 q 389 730 390 744 q 361 657 385 694 q 302 619 338 619 m 567 619 q 507 633 536 619 q 479 673 477 648 q 487 702 480 684 q 505 739 493 720 q 537 771 516 759 q 582 779 557 783 q 607 775 598 777 q 630 768 616 773 q 649 753 643 763 q 653 730 654 744 q 626 657 649 694 q 567 619 602 619 z "},"":{"ha":676,"x_min":-44,"x_max":686,"o":"m 429 385 q 264 326 334 355 q 156 271 195 296 q 94 220 117 246 q 65 174 71 193 q 58 131 58 154 q 61 119 60 125 q 70 107 63 114 q 86 103 77 101 q 136 121 114 109 q 432 382 220 168 l 429 385 m 354 197 l 227 94 q 79 1 110 1 q 32 27 60 1 q -19 92 3 52 q -43 165 -41 132 q -7 268 -44 215 q 91 365 31 321 q 220 444 151 408 q 358 499 290 479 q 473 521 425 519 q 539 497 515 522 q 564 454 564 473 q 515 419 564 435 q 555 363 555 403 q 525 306 555 345 q 465 225 495 268 q 435 155 435 183 q 447 130 435 138 q 478 122 460 122 q 535 138 505 122 q 617 191 566 153 q 675 233 669 229 l 686 182 q 527 44 634 122 q 372 -35 419 -35 q 322 -14 339 -35 q 306 39 306 7 q 357 195 306 91 l 354 197 m 595 786 l 644 758 q 659 715 659 744 q 647 643 659 677 q 607 585 635 610 q 539 561 579 561 q 467 591 498 561 q 435 661 435 621 q 459 730 435 694 q 511 785 484 765 q 553 806 538 806 q 567 803 559 806 q 583 793 574 800 q 595 786 592 787 m 568 736 q 519 685 535 711 q 504 621 504 659 q 508 614 504 618 q 511 607 511 609 q 521 615 513 609 q 530 624 528 622 q 539 632 532 626 q 547 640 545 637 q 554 648 549 642 q 561 657 559 654 q 565 666 562 661 q 569 677 568 672 q 571 688 570 682 q 572 701 572 694 q 568 736 572 720 z "},"":{"ha":872,"x_min":-31,"x_max":892,"o":"m 163 143 l 220 182 q 441 386 336 262 l 439 389 q 186 289 274 343 q 141 260 157 271 q 106 230 125 248 q 79 188 87 211 q 71 138 71 165 q 100 113 71 113 q 163 143 119 113 m 515 269 q 658 352 597 297 q 717 431 718 408 q 713 443 717 438 q 703 446 709 448 q 595 383 648 431 q 515 269 543 335 m 90 3 q 15 58 61 3 q -31 161 -31 113 q -12 241 -31 202 q 37 313 6 281 q 101 370 68 345 q 171 415 134 394 q 334 490 239 453 q 484 526 429 526 q 531 515 513 526 q 568 478 549 504 q 742 526 656 526 q 839 460 839 526 q 830 415 839 438 q 799 365 822 393 q 739 311 775 337 q 644 255 703 284 q 507 201 584 227 l 504 171 q 528 117 504 134 q 590 100 553 100 q 632 104 610 100 q 679 122 653 109 q 720 143 704 135 q 766 173 736 151 q 805 202 796 195 q 846 234 814 208 q 879 260 878 259 l 892 207 q 787 103 844 151 q 656 16 731 54 q 517 -22 581 -22 q 445 -1 486 -22 q 389 45 404 20 q 368 95 374 67 q 363 146 362 122 q 364 200 364 171 q 287 139 352 192 q 165 44 222 86 q 90 3 108 3 z "},"":{"ha":498,"x_min":-4,"x_max":526,"o":"m 269 349 l 153 261 q 111 223 125 241 q 97 179 97 205 q 125 128 97 151 q 203 104 153 104 q 280 118 240 104 q 369 163 321 132 q 439 210 418 195 q 510 264 461 226 l 526 210 q 381 78 463 140 q 222 -5 300 17 l 186 -77 q 244 -80 216 -75 q 294 -104 272 -85 q 317 -154 317 -123 q 273 -229 317 -205 q 174 -249 230 -252 q 118 -241 153 -248 q 50 -218 83 -234 q 16 -183 16 -202 q 19 -173 16 -178 q 28 -168 23 -168 q 68 -183 36 -168 q 123 -199 100 -199 q 172 -185 149 -199 q 195 -149 195 -172 q 115 -103 195 -103 l 160 -17 q 154 -18 159 -18 q 66 12 102 -18 q 13 86 29 41 q -4 184 -4 131 q 11 281 -4 241 q 52 348 26 321 q 127 412 77 374 q 266 495 183 455 q 401 534 348 534 q 464 471 464 534 q 435 390 464 435 q 371 317 406 346 q 317 288 336 288 q 283 307 295 288 q 269 349 271 326 z "},"":{"ha":496,"x_min":-13,"x_max":515,"o":"m 503 260 l 515 207 q 411 103 467 151 q 280 16 355 54 q 140 -22 205 -22 q 30 31 69 -22 q -11 160 -9 85 q 21 294 -13 227 q 107 412 54 361 q 230 495 161 463 q 366 526 299 527 q 465 460 465 526 q 450 402 465 432 q 399 339 434 373 q 295 269 363 304 q 131 201 226 233 l 127 171 q 150 117 125 134 q 214 100 176 100 q 255 104 234 100 q 302 122 277 109 q 344 143 328 135 q 390 173 360 151 q 429 202 420 195 q 470 234 437 208 q 503 260 502 259 m 139 269 q 245 323 195 288 q 319 388 295 359 q 343 431 344 418 q 338 443 343 438 q 326 446 333 448 q 219 383 272 431 q 139 269 166 335 m 143 718 l 225 693 q 393 633 365 652 q 420 608 408 625 q 432 576 432 591 q 412 564 432 564 q 367 575 396 564 q 235 604 322 592 q 117 610 171 612 q 70 614 75 607 q 68 667 64 622 q 69 681 68 671 q 70 695 69 690 q 72 707 70 701 q 77 718 74 714 q 86 724 80 721 q 100 726 92 726 q 143 718 116 726 z "},"":{"ha":496,"x_min":-13,"x_max":530,"o":"m 503 260 l 515 207 q 411 103 467 151 q 280 16 355 54 q 140 -22 205 -22 q 30 31 69 -22 q -11 160 -9 85 q 21 294 -13 227 q 107 412 54 361 q 230 495 161 463 q 366 526 299 527 q 465 460 465 526 q 450 402 465 432 q 399 339 434 373 q 295 269 363 304 q 131 201 226 233 l 127 171 q 150 117 125 134 q 214 100 176 100 q 255 104 234 100 q 302 122 277 109 q 344 143 328 135 q 390 173 360 151 q 429 202 420 195 q 470 234 437 208 q 503 260 502 259 m 139 269 q 245 323 195 288 q 319 388 295 359 q 343 431 344 418 q 338 443 343 438 q 326 446 333 448 q 219 383 272 431 q 139 269 166 335 m 370 694 l 452 720 q 494 728 479 728 q 508 725 503 728 q 517 719 514 722 q 522 709 520 715 q 525 697 524 702 q 525 682 525 692 q 526 668 526 673 q 527 656 526 664 q 524 616 530 622 q 478 611 517 608 q 359 606 423 614 q 228 576 273 593 q 182 566 201 566 q 163 578 163 566 q 175 609 163 593 q 201 635 187 626 q 370 694 230 653 z "},"":{"ha":496,"x_min":-13,"x_max":515,"o":"m 503 260 l 515 207 q 411 103 467 151 q 280 16 355 54 q 140 -22 205 -22 q 30 31 69 -22 q -11 160 -9 85 q 21 294 -13 227 q 107 412 54 361 q 230 495 161 463 q 366 526 299 527 q 465 460 465 526 q 450 402 465 432 q 399 339 434 373 q 295 269 363 304 q 131 201 226 233 l 127 171 q 150 117 125 134 q 214 100 176 100 q 255 104 234 100 q 302 122 277 109 q 344 143 328 135 q 390 173 360 151 q 429 202 420 195 q 470 234 437 208 q 503 260 502 259 m 139 269 q 245 323 195 288 q 319 388 295 359 q 343 431 344 418 q 338 443 343 438 q 326 446 333 448 q 219 383 272 431 q 139 269 166 335 m 257 627 l 135 575 q 87 557 92 557 q 75 576 75 557 q 163 657 75 623 l 275 701 q 389 733 359 733 q 401 731 395 733 q 414 725 408 730 q 426 718 421 721 q 438 707 431 714 q 449 697 446 700 q 459 686 452 694 q 468 676 467 677 q 479 665 469 675 q 496 649 490 656 q 509 633 503 643 q 515 616 515 623 q 510 600 515 608 q 501 588 505 591 q 486 578 497 585 q 458 557 465 564 q 418 589 444 565 q 368 631 392 613 q 326 650 345 650 q 257 627 315 650 z "},"":{"ha":496,"x_min":-13,"x_max":564,"o":"m 503 260 l 515 207 q 411 103 467 151 q 280 16 355 54 q 140 -22 205 -22 q 30 31 69 -22 q -11 160 -9 85 q 21 294 -13 227 q 107 412 54 361 q 230 495 161 463 q 366 526 299 527 q 465 460 465 526 q 450 402 465 432 q 399 339 434 373 q 295 269 363 304 q 131 201 226 233 l 127 171 q 150 117 125 134 q 214 100 176 100 q 255 104 234 100 q 302 122 277 109 q 344 143 328 135 q 390 173 360 151 q 429 202 420 195 q 470 234 437 208 q 503 260 502 259 m 139 269 q 245 323 195 288 q 319 388 295 359 q 343 431 344 418 q 338 443 343 438 q 326 446 333 448 q 219 383 272 431 q 139 269 166 335 m 212 619 q 152 633 182 619 q 125 673 123 648 q 132 702 125 684 q 150 739 138 720 q 183 771 162 759 q 228 779 203 783 q 253 775 243 777 q 275 768 262 773 q 294 753 288 763 q 298 730 300 744 q 271 657 294 694 q 212 619 248 619 m 476 619 q 416 633 446 619 q 389 673 387 648 q 396 702 389 684 q 414 739 402 720 q 447 771 426 759 q 492 779 467 783 q 517 775 507 777 q 539 768 526 773 q 558 753 552 763 q 562 730 564 744 q 535 657 558 694 q 476 619 511 619 z "},"":{"ha":386,"x_min":-18,"x_max":392,"o":"m 379 233 l 392 180 q 334 116 365 147 q 264 52 304 85 q 182 -1 224 19 q 102 -21 139 -21 q 35 6 63 -21 q -6 70 6 34 q -18 144 -18 106 q 10 268 -18 205 q 79 376 39 331 q 163 450 119 421 q 239 479 208 479 q 280 470 261 479 q 300 440 300 460 q 231 320 300 394 q 104 207 163 247 q 178 119 87 119 q 234 133 203 119 q 284 160 264 146 q 336 200 304 174 q 379 233 368 225 m 87 718 l 170 693 q 338 633 309 652 q 364 608 352 625 q 376 576 376 591 q 357 564 376 564 q 311 575 340 564 q 179 604 267 592 q 61 610 115 612 q 14 614 20 607 q 12 667 9 622 q 13 681 13 671 q 14 695 14 690 q 17 707 15 700 q 21 718 18 714 q 31 724 24 721 q 45 726 37 726 q 87 718 60 726 z "},"":{"ha":386,"x_min":-18,"x_max":475,"o":"m 379 233 l 392 180 q 334 116 365 147 q 264 52 304 85 q 182 -1 224 19 q 102 -21 139 -21 q 35 6 63 -21 q -6 70 6 34 q -18 144 -18 106 q 10 268 -18 205 q 79 376 39 331 q 163 450 119 421 q 239 479 208 479 q 280 470 261 479 q 300 440 300 460 q 231 320 300 394 q 104 207 163 247 q 178 119 87 119 q 234 133 203 119 q 284 160 264 146 q 336 200 304 174 q 379 233 368 225 m 314 694 l 396 720 q 439 728 423 728 q 453 725 447 728 q 461 719 458 722 q 467 709 465 715 q 469 697 469 702 q 470 682 469 692 q 471 668 470 673 q 471 656 471 664 q 469 616 474 622 q 422 611 462 608 q 304 606 368 614 q 172 576 217 593 q 126 566 145 566 q 107 578 107 566 q 119 609 107 593 q 146 635 132 626 q 314 694 174 653 z "},"":{"ha":386,"x_min":-18,"x_max":460,"o":"m 379 233 l 392 180 q 334 116 365 147 q 264 52 304 85 q 182 -1 224 19 q 102 -21 139 -21 q 35 6 63 -21 q -6 70 6 34 q -18 144 -18 106 q 10 268 -18 205 q 79 376 39 331 q 163 450 119 421 q 239 479 208 479 q 280 470 261 479 q 300 440 300 460 q 231 320 300 394 q 104 207 163 247 q 178 119 87 119 q 234 133 203 119 q 284 160 264 146 q 336 200 304 174 q 379 233 368 225 m 201 627 l 79 575 q 32 557 37 557 q 20 576 20 557 q 107 657 20 623 l 220 701 q 334 733 303 733 q 349 730 341 733 q 363 724 357 727 q 377 712 369 720 q 390 701 386 704 q 402 687 393 697 q 412 676 411 677 q 424 665 414 675 q 440 649 434 656 q 453 633 447 643 q 460 616 460 623 q 454 600 460 608 q 445 588 449 591 q 431 578 441 585 q 403 557 409 564 q 362 589 389 565 q 313 631 336 613 q 271 650 289 650 q 201 627 259 650 z "},"":{"ha":386,"x_min":-18,"x_max":509,"o":"m 379 233 l 392 180 q 334 116 365 147 q 264 52 304 85 q 182 -1 224 19 q 102 -21 139 -21 q 35 6 63 -21 q -6 70 6 34 q -18 144 -18 106 q 10 268 -18 205 q 79 376 39 331 q 163 450 119 421 q 239 479 208 479 q 280 470 261 479 q 300 440 300 460 q 231 320 300 394 q 104 207 163 247 q 178 119 87 119 q 234 133 203 119 q 284 160 264 146 q 336 200 304 174 q 379 233 368 225 m 157 619 q 97 633 126 619 q 69 673 67 648 q 76 702 70 684 q 95 739 83 720 q 127 771 106 759 q 172 779 148 783 q 197 775 188 777 q 220 768 207 773 q 238 753 233 763 q 243 730 244 744 q 215 657 239 694 q 157 619 192 619 m 421 619 q 361 633 391 619 q 334 673 332 648 q 341 702 334 684 q 359 739 347 720 q 391 771 370 759 q 436 779 412 783 q 461 775 452 777 q 484 768 471 773 q 503 753 497 763 q 507 730 509 744 q 480 657 503 694 q 421 619 456 619 z "},"":{"ha":696,"x_min":-16,"x_max":681,"o":"m 553 267 l 567 208 q 468 122 519 148 q 342 96 417 96 q 127 -8 240 -8 q 27 46 70 -8 q -16 191 -16 100 q 16 321 -16 265 q 110 425 47 376 q 240 498 164 469 q 370 526 315 526 q 399 520 390 526 q 415 501 408 515 l 418 501 q 435 623 435 559 q 429 692 435 658 l 317 652 q 279 640 286 640 q 261 660 272 640 q 250 688 250 680 q 268 707 250 700 l 408 758 q 368 815 391 789 q 329 854 344 842 q 314 869 314 866 q 329 897 314 880 q 357 914 343 914 q 426 874 376 914 q 503 793 477 835 l 604 829 q 656 844 644 844 q 672 823 664 844 q 681 793 681 802 q 652 772 681 783 l 530 729 q 554 570 554 648 q 514 381 554 480 q 410 193 475 283 q 432 192 418 192 q 447 193 439 192 q 463 198 455 195 q 477 204 471 201 q 491 213 483 206 q 504 222 500 219 q 517 233 508 225 q 529 244 527 241 q 542 256 532 246 q 553 267 551 265 m 86 146 q 147 93 86 93 q 198 107 176 93 q 252 149 221 121 q 326 264 288 189 q 385 403 363 339 q 242 358 310 394 q 130 266 174 323 q 86 146 86 209 z "},"":{"ha":639,"x_min":-22,"x_max":661,"o":"m 567 205 l 650 275 l 661 214 q 596 151 645 199 q 511 70 547 102 q 427 7 475 37 q 343 -22 378 -22 q 286 4 306 -22 q 265 69 265 31 q 272 112 265 89 q 285 153 278 136 q 309 197 292 170 q 333 236 326 224 q 361 276 340 247 q 385 309 382 304 l 382 311 q 168 98 267 227 q 89 16 117 34 q 58 4 71 4 q 21 18 37 4 q -3 54 5 32 q -15 98 -12 77 q -20 139 -19 119 q 29 298 -22 208 q 144 443 80 389 q 168 457 157 454 q 199 460 179 460 q 237 456 221 459 q 260 451 252 454 q 271 444 267 449 q 275 437 275 439 q 275 431 275 435 q 275 429 275 430 q 248 375 275 411 q 188 307 220 340 q 127 243 155 275 q 100 201 100 212 q 104 191 100 195 q 115 186 109 186 q 143 205 127 186 q 287 347 195 271 q 454 471 378 423 q 550 518 529 518 q 572 492 562 518 q 593 416 588 452 q 575 379 593 401 q 532 330 557 356 q 483 277 507 304 q 440 219 458 250 q 422 161 422 188 q 430 144 422 152 q 447 136 437 136 q 567 205 484 136 m 293 692 l 473 673 l 476 676 q 428 725 428 709 q 434 738 428 732 q 446 745 439 745 q 510 705 469 745 q 551 628 551 665 q 536 585 551 600 q 492 570 520 570 q 406 579 464 570 q 319 589 349 589 q 332 577 326 583 q 341 569 338 572 q 347 564 344 567 q 351 559 350 562 q 352 555 351 557 q 353 550 353 553 q 349 541 353 545 q 339 536 345 536 q 301 555 328 536 q 286 566 298 557 q 268 578 273 574 q 254 590 262 582 q 243 607 246 598 q 240 627 240 616 q 251 675 240 659 q 293 692 262 692 z "},"":{"ha":550,"x_min":-19,"x_max":567,"o":"m 553 267 l 567 208 q 468 122 519 148 q 342 96 417 96 q 127 -8 240 -8 q 29 46 71 -8 q -17 191 -13 100 q 14 320 -19 264 q 110 424 47 375 q 235 496 165 469 q 370 526 305 523 q 421 515 397 528 q 446 476 446 502 q 440 459 446 467 q 430 448 435 451 q 414 439 425 444 q 453 411 443 431 q 464 357 464 391 q 463 332 464 344 q 457 307 461 319 q 451 284 454 294 q 442 260 448 275 q 432 239 435 245 q 421 215 429 233 q 410 193 412 198 q 453 196 431 189 q 487 213 474 203 q 522 241 500 222 q 553 267 544 260 m 297 375 q 268 358 290 371 q 233 338 245 346 q 202 319 221 331 q 169 296 184 307 q 143 273 155 285 q 103 213 119 250 q 86 146 86 177 q 147 93 86 93 q 189 102 169 93 q 221 120 210 111 q 254 149 233 130 q 237 212 237 189 q 254 284 237 243 q 284 349 270 324 q 297 375 298 374 m 170 718 l 252 693 q 419 633 390 652 q 446 608 433 624 q 458 576 458 591 q 439 564 458 564 q 393 575 422 564 q 261 604 349 592 q 143 610 197 612 q 96 614 102 607 q 94 667 91 622 q 95 681 95 671 q 96 695 96 690 q 98 707 96 701 q 103 718 100 714 q 112 724 106 721 q 126 726 118 726 q 170 718 142 726 z "},"":{"ha":550,"x_min":-19,"x_max":567,"o":"m 553 267 l 567 208 q 468 122 519 148 q 342 96 417 96 q 127 -8 240 -8 q 29 46 71 -8 q -17 191 -13 100 q 14 320 -19 264 q 110 424 47 375 q 235 496 165 469 q 370 526 305 523 q 421 515 397 528 q 446 476 446 502 q 440 459 446 467 q 430 448 435 451 q 414 439 425 444 q 453 411 443 431 q 464 357 464 391 q 463 332 464 344 q 457 307 461 319 q 451 284 454 294 q 442 260 448 275 q 432 239 435 245 q 421 215 429 233 q 410 193 412 198 q 453 196 431 189 q 487 213 474 203 q 522 241 500 222 q 553 267 544 260 m 297 375 q 268 358 290 371 q 233 338 245 346 q 202 319 221 331 q 169 296 184 307 q 143 273 155 285 q 103 213 119 250 q 86 146 86 177 q 147 93 86 93 q 189 102 169 93 q 221 120 210 111 q 254 149 233 130 q 237 212 237 189 q 254 284 237 243 q 284 349 270 324 q 297 375 298 374 m 396 694 l 478 720 q 521 728 505 728 q 535 725 529 728 q 544 719 541 722 q 549 709 547 715 q 551 697 551 702 q 552 682 551 692 q 553 668 552 673 q 551 616 556 623 q 504 611 545 608 q 386 606 450 614 q 254 576 300 593 q 208 566 227 566 q 189 578 189 566 q 201 609 189 593 q 228 635 214 626 q 396 694 256 653 z "},"":{"ha":550,"x_min":-19,"x_max":567,"o":"m 553 267 l 567 208 q 468 122 519 148 q 342 96 417 96 q 127 -8 240 -8 q 29 46 71 -8 q -17 191 -13 100 q 14 320 -19 264 q 110 424 47 375 q 235 496 165 469 q 370 526 305 523 q 421 515 397 528 q 446 476 446 502 q 440 459 446 467 q 430 448 435 451 q 414 439 425 444 q 453 411 443 431 q 464 357 464 391 q 463 332 464 344 q 457 307 461 319 q 451 284 454 294 q 442 260 448 275 q 432 239 435 245 q 421 215 429 233 q 410 193 412 198 q 453 196 431 189 q 487 213 474 203 q 522 241 500 222 q 553 267 544 260 m 297 375 q 268 358 290 371 q 233 338 245 346 q 202 319 221 331 q 169 296 184 307 q 143 273 155 285 q 103 213 119 250 q 86 146 86 177 q 147 93 86 93 q 189 102 169 93 q 221 120 210 111 q 254 149 233 130 q 237 212 237 189 q 254 284 237 243 q 284 349 270 324 q 297 375 298 374 m 283 627 l 161 575 q 114 557 119 557 q 102 576 102 557 q 189 657 102 623 l 301 701 q 415 733 385 733 q 428 731 421 733 q 441 725 434 730 q 453 718 448 721 q 465 707 458 714 q 475 697 472 700 q 486 686 478 694 q 494 676 493 677 q 506 665 496 675 q 523 649 516 656 q 535 633 529 643 q 542 616 542 623 q 536 600 542 608 q 527 588 531 591 q 513 578 524 585 q 485 557 491 564 q 445 589 471 565 q 395 631 418 613 q 353 650 371 650 q 283 627 341 650 z "},"":{"ha":550,"x_min":-19,"x_max":567,"o":"m 553 267 l 567 208 q 468 122 519 148 q 342 96 417 96 q 127 -8 240 -8 q 29 46 71 -8 q -17 191 -13 100 q 14 320 -19 264 q 110 424 47 375 q 235 496 165 469 q 370 526 305 523 q 421 515 397 528 q 446 476 446 502 q 440 459 446 467 q 430 448 435 451 q 414 439 425 444 q 453 411 443 431 q 464 357 464 391 q 463 332 464 344 q 457 307 461 319 q 451 284 454 294 q 442 260 448 275 q 432 239 435 245 q 421 215 429 233 q 410 193 412 198 q 453 196 431 189 q 487 213 474 203 q 522 241 500 222 q 553 267 544 260 m 297 375 q 268 358 290 371 q 233 338 245 346 q 202 319 221 331 q 169 296 184 307 q 143 273 155 285 q 103 213 119 250 q 86 146 86 177 q 147 93 86 93 q 189 102 169 93 q 221 120 210 111 q 254 149 233 130 q 237 212 237 189 q 254 284 237 243 q 284 349 270 324 q 297 375 298 374 m 249 692 l 429 673 l 432 676 q 383 725 383 710 q 389 738 383 732 q 401 745 395 745 q 466 705 425 745 q 507 628 507 665 q 491 585 507 600 q 447 570 475 570 q 362 579 419 570 q 275 589 304 589 q 288 577 281 583 q 297 569 294 572 q 303 564 300 567 q 307 559 306 562 q 308 555 307 557 q 309 550 309 553 q 304 541 309 545 q 294 536 300 536 q 257 555 283 536 q 241 566 254 557 q 223 578 229 574 q 210 590 218 582 q 199 607 202 598 q 196 627 196 616 q 207 675 196 659 q 249 692 218 692 z "},"":{"ha":550,"x_min":-19,"x_max":590,"o":"m 553 267 l 567 208 q 468 122 519 148 q 342 96 417 96 q 127 -8 240 -8 q 29 46 71 -8 q -17 191 -13 100 q 14 320 -19 264 q 110 424 47 375 q 235 496 165 469 q 370 526 305 523 q 421 515 397 528 q 446 476 446 502 q 440 459 446 467 q 430 448 435 451 q 414 439 425 444 q 453 411 443 431 q 464 357 464 391 q 463 332 464 344 q 457 307 461 319 q 451 284 454 294 q 442 260 448 275 q 432 239 435 245 q 421 215 429 233 q 410 193 412 198 q 453 196 431 189 q 487 213 474 203 q 522 241 500 222 q 553 267 544 260 m 297 375 q 268 358 290 371 q 233 338 245 346 q 202 319 221 331 q 169 296 184 307 q 143 273 155 285 q 103 213 119 250 q 86 146 86 177 q 147 93 86 93 q 189 102 169 93 q 221 120 210 111 q 254 149 233 130 q 237 212 237 189 q 254 284 237 243 q 284 349 270 324 q 297 375 298 374 m 239 619 q 179 633 208 619 q 151 673 149 648 q 158 702 152 684 q 177 739 165 720 q 209 771 189 759 q 254 779 230 783 q 279 775 270 777 q 302 768 289 773 q 320 753 315 763 q 325 730 326 744 q 297 657 321 694 q 239 619 274 619 m 503 619 q 443 633 472 619 q 415 673 413 648 q 422 702 416 684 q 440 739 429 720 q 473 771 452 759 q 518 779 494 783 q 543 775 534 777 q 566 768 553 773 q 584 753 578 763 q 589 730 590 744 q 561 657 585 694 q 503 619 538 619 z "},"":{"ha":887,"x_min":187,"x_max":821,"o":"m 507 524 l 505 524 q 461 544 481 524 q 441 593 441 564 q 462 642 441 621 q 507 663 482 663 q 554 642 534 663 q 574 593 574 621 q 554 544 574 564 q 507 524 534 524 m 821 319 l 187 319 l 187 403 l 821 403 l 821 319 m 507 199 l 509 199 q 552 178 532 199 q 571 129 571 157 q 551 79 571 101 q 507 57 532 57 q 459 79 479 57 q 439 129 439 100 q 458 178 439 158 q 507 199 478 199 z "},"":{"ha":550,"x_min":-19,"x_max":567,"o":"m 386 525 l 428 575 q 442 596 437 590 q 456 607 447 602 q 476 610 465 612 q 505 600 488 608 l 555 595 l 418 437 q 454 410 444 430 q 464 357 464 390 q 463 332 464 344 q 457 307 461 319 q 451 284 454 294 q 442 260 448 275 q 432 239 435 245 q 421 215 429 233 q 410 193 412 198 q 453 196 431 189 q 487 213 474 203 q 522 241 500 222 q 553 267 544 260 l 567 208 q 468 122 519 148 q 342 96 417 96 q 131 -8 242 -6 l 92 -89 q 56 -139 87 -132 q 14 -89 16 -125 q 45 5 12 -54 l 53 21 q -17 191 -11 74 q 14 320 -19 264 q 110 424 47 375 q 235 496 165 469 q 370 526 305 523 q 386 525 380 526 m 297 375 q 268 358 290 371 q 233 338 245 346 q 202 319 221 331 q 169 296 184 307 q 143 273 155 285 q 103 213 119 250 q 86 146 86 177 q 147 93 86 93 q 189 102 169 93 q 221 120 210 111 q 254 149 233 130 q 237 212 237 189 q 254 284 237 243 q 284 349 270 324 q 297 375 298 374 z "},"":{"ha":663,"x_min":-22,"x_max":684,"o":"m 257 245 l 395 370 l 422 395 q 469 438 450 420 q 517 478 489 455 q 565 515 545 502 q 595 528 585 528 q 607 524 602 528 q 618 503 612 521 q 627 452 624 485 q 617 418 628 437 q 596 391 606 400 q 570 367 587 382 q 475 261 524 326 q 427 154 427 195 q 461 123 427 123 q 675 254 512 123 l 684 195 q 644 155 678 189 q 591 104 609 121 q 536 56 572 87 q 475 9 500 26 q 418 -20 450 -7 q 363 -33 387 -33 q 303 -6 326 -33 q 281 58 281 20 q 310 175 281 98 l 307 178 q 248 117 297 169 q 158 35 198 64 q 83 5 118 5 q 7 49 36 5 q -22 143 -22 93 q 37 332 -22 237 q 171 475 97 427 q 232 490 196 490 q 248 491 234 490 q 272 492 262 492 q 294 489 282 492 q 312 480 307 487 q 317 461 318 473 q 295 423 315 446 q 261 387 276 399 q 198 320 216 336 q 155 288 182 307 q 98 234 117 260 q 79 168 79 208 q 90 147 79 147 q 161 176 111 147 q 257 245 211 204 m 227 718 l 309 693 q 476 633 447 652 q 503 608 490 624 q 515 576 515 591 q 496 564 515 564 q 450 575 479 564 q 318 604 406 592 q 200 610 254 612 q 153 614 159 607 q 151 667 148 622 q 152 681 152 671 q 153 695 153 690 q 155 707 153 701 q 160 718 157 714 q 169 724 163 721 q 183 726 175 726 q 227 718 199 726 z "},"":{"ha":663,"x_min":-22,"x_max":684,"o":"m 257 245 l 395 370 l 422 395 q 469 438 450 420 q 517 478 489 455 q 565 515 545 502 q 595 528 585 528 q 607 524 602 528 q 618 503 612 521 q 627 452 624 485 q 617 418 628 437 q 596 391 606 400 q 570 367 587 382 q 475 261 524 326 q 427 154 427 195 q 461 123 427 123 q 675 254 512 123 l 684 195 q 644 155 678 189 q 591 104 609 121 q 536 56 572 87 q 475 9 500 26 q 418 -20 450 -7 q 363 -33 387 -33 q 303 -6 326 -33 q 281 58 281 20 q 310 175 281 98 l 307 178 q 248 117 297 169 q 158 35 198 64 q 83 5 118 5 q 7 49 36 5 q -22 143 -22 93 q 37 332 -22 237 q 171 475 97 427 q 232 490 196 490 q 248 491 234 490 q 272 492 262 492 q 294 489 282 492 q 312 480 307 487 q 317 461 318 473 q 295 423 315 446 q 261 387 276 399 q 198 320 216 336 q 155 288 182 307 q 98 234 117 260 q 79 168 79 208 q 90 147 79 147 q 161 176 111 147 q 257 245 211 204 m 453 694 l 534 720 q 578 728 562 728 q 592 725 586 728 q 601 719 597 722 q 606 709 604 715 q 608 697 608 702 q 609 682 608 692 q 610 668 609 673 q 608 616 613 623 q 561 611 602 608 q 443 606 507 614 q 311 576 357 593 q 265 566 284 566 q 245 578 245 566 q 258 609 245 593 q 285 635 271 625 q 453 694 313 653 z "},"":{"ha":663,"x_min":-22,"x_max":684,"o":"m 257 245 l 395 370 l 422 395 q 469 438 450 420 q 517 478 489 455 q 565 515 545 502 q 595 528 585 528 q 607 524 602 528 q 618 503 612 521 q 627 452 624 485 q 617 418 628 437 q 596 391 606 400 q 570 367 587 382 q 475 261 524 326 q 427 154 427 195 q 461 123 427 123 q 675 254 512 123 l 684 195 q 644 155 678 189 q 591 104 609 121 q 536 56 572 87 q 475 9 500 26 q 418 -20 450 -7 q 363 -33 387 -33 q 303 -6 326 -33 q 281 58 281 20 q 310 175 281 98 l 307 178 q 248 117 297 169 q 158 35 198 64 q 83 5 118 5 q 7 49 36 5 q -22 143 -22 93 q 37 332 -22 237 q 171 475 97 427 q 232 490 196 490 q 248 491 234 490 q 272 492 262 492 q 294 489 282 492 q 312 480 307 487 q 317 461 318 473 q 295 423 315 446 q 261 387 276 399 q 198 320 216 336 q 155 288 182 307 q 98 234 117 260 q 79 168 79 208 q 90 147 79 147 q 161 176 111 147 q 257 245 211 204 m 340 627 l 218 575 q 171 557 176 557 q 158 576 158 557 q 245 657 158 623 l 358 701 q 472 733 441 733 q 485 731 478 733 q 498 725 491 730 q 510 718 505 721 q 522 707 515 714 q 532 697 529 700 q 543 686 535 694 q 551 676 550 677 q 563 665 553 675 q 579 649 573 656 q 592 633 586 643 q 599 616 599 623 q 593 600 599 608 q 584 588 588 591 q 570 578 581 585 q 542 557 548 564 q 502 589 528 565 q 452 631 475 613 q 410 650 428 650 q 340 627 398 650 z "},"":{"ha":663,"x_min":-22,"x_max":684,"o":"m 257 245 l 395 370 l 422 395 q 469 438 450 420 q 517 478 489 455 q 565 515 545 502 q 595 528 585 528 q 607 524 602 528 q 618 503 612 521 q 627 452 624 485 q 617 418 628 437 q 596 391 606 400 q 570 367 587 382 q 475 261 524 326 q 427 154 427 195 q 461 123 427 123 q 675 254 512 123 l 684 195 q 644 155 678 189 q 591 104 609 121 q 536 56 572 87 q 475 9 500 26 q 418 -20 450 -7 q 363 -33 387 -33 q 303 -6 326 -33 q 281 58 281 20 q 310 175 281 98 l 307 178 q 248 117 297 169 q 158 35 198 64 q 83 5 118 5 q 7 49 36 5 q -22 143 -22 93 q 37 332 -22 237 q 171 475 97 427 q 232 490 196 490 q 248 491 234 490 q 272 492 262 492 q 294 489 282 492 q 312 480 307 487 q 317 461 318 473 q 295 423 315 446 q 261 387 276 399 q 198 320 216 336 q 155 288 182 307 q 98 234 117 260 q 79 168 79 208 q 90 147 79 147 q 161 176 111 147 q 257 245 211 204 m 296 619 q 236 633 265 619 q 208 673 206 648 q 215 702 209 684 q 234 739 222 720 q 266 771 245 759 q 311 779 287 783 q 336 775 327 777 q 359 768 346 773 q 377 753 372 763 q 382 730 383 744 q 354 657 378 694 q 296 619 331 619 m 559 619 q 499 633 529 619 q 472 673 470 648 q 479 702 473 684 q 497 739 486 720 q 530 771 509 759 q 575 779 551 783 q 600 775 591 777 q 623 768 610 773 q 641 753 635 763 q 646 730 647 744 q 618 657 642 694 q 559 619 595 619 z "},"":{"ha":614,"x_min":-11,"x_max":646,"o":"m 646 229 l 228 -231 q 217 -243 226 -233 q 202 -262 209 -254 q 185 -279 195 -270 q 167 -294 176 -289 q 153 -300 159 -300 q 122 -267 134 -300 q 111 -208 111 -234 q 149 -125 111 -188 l 335 189 l 332 192 q 178 70 244 118 q 100 22 112 22 q 29 70 65 25 q -9 186 -7 115 q 13 285 -11 233 q 73 379 37 337 q 148 456 109 421 q 218 510 186 491 q 261 530 249 530 q 299 506 277 530 q 321 467 321 481 q 246 353 321 432 q 118 233 171 275 q 92 153 94 199 q 144 166 118 155 q 198 198 171 178 q 243 233 225 218 q 290 275 262 249 q 369 349 327 309 q 436 414 411 389 q 487 461 462 438 q 526 495 511 484 q 549 507 541 506 q 575 484 564 510 q 586 437 586 458 q 529 315 586 400 l 323 9 l 326 7 l 635 281 l 646 229 m 428 694 l 510 720 q 553 728 537 728 q 567 725 561 728 q 575 719 572 722 q 581 709 578 715 q 583 697 583 702 q 584 682 583 692 q 585 668 584 673 q 585 656 585 664 q 583 616 588 622 q 536 611 576 608 q 418 606 481 614 q 286 576 332 593 q 240 566 259 566 q 221 578 221 566 q 233 609 221 593 q 260 635 245 626 q 428 694 288 653 z "},"":{"ha":677,"x_min":-142,"x_max":689,"o":"m 304 143 l 403 260 q 437 328 437 303 q 422 347 437 347 q 315 292 399 347 q 187 157 255 248 q 304 143 250 161 m -53 142 l -58 207 l 216 503 q 513 838 301 593 q 593 880 549 880 q 635 870 611 880 q 660 843 660 859 q 625 798 660 837 q 591 758 606 774 l 392 529 q 272 361 300 422 l 275 358 q 422 450 343 407 q 550 493 500 493 q 593 474 577 493 q 608 428 608 456 q 554 296 608 370 q 383 118 500 222 q 405 117 391 118 q 424 117 418 117 q 532 145 484 117 q 679 260 581 173 l 689 196 q 606 122 645 153 q 519 59 568 90 q 418 12 471 28 q 311 -4 365 -4 q 212 24 267 -4 q 149 16 170 16 q 93 24 130 16 l -37 -232 q -65 -272 -48 -254 q -100 -290 -82 -290 q -131 -271 -121 -290 q -140 -228 -140 -252 q -54 -8 -142 -133 q 170 349 25 104 l 167 351 l -53 142 z "},"":{"ha":614,"x_min":-11,"x_max":646,"o":"m 646 229 l 228 -231 q 217 -243 226 -233 q 202 -262 209 -254 q 185 -279 195 -270 q 167 -294 176 -289 q 153 -300 159 -300 q 122 -267 134 -300 q 111 -208 111 -234 q 149 -125 111 -188 l 335 189 l 332 192 q 178 70 244 118 q 100 22 112 22 q 29 70 65 25 q -9 186 -7 115 q 13 285 -11 233 q 73 379 37 337 q 148 456 109 421 q 218 510 186 491 q 261 530 249 530 q 299 506 277 530 q 321 467 321 481 q 246 353 321 432 q 118 233 171 275 q 92 153 94 199 q 144 166 118 155 q 198 198 171 178 q 243 233 225 218 q 290 275 262 249 q 369 349 327 309 q 436 414 411 389 q 487 461 462 438 q 526 495 511 484 q 549 507 541 506 q 575 484 564 510 q 586 437 586 458 q 529 315 586 400 l 323 9 l 326 7 l 635 281 l 646 229 m 271 619 q 211 633 240 619 q 183 673 181 648 q 190 702 184 684 q 209 739 197 720 q 241 771 220 759 q 286 779 262 783 q 311 775 302 777 q 334 768 321 773 q 352 753 347 763 q 357 730 358 744 q 329 657 353 694 q 271 619 306 619 m 534 619 q 474 633 504 619 q 447 673 445 648 q 454 702 448 684 q 472 739 460 720 q 505 771 484 759 q 550 779 526 783 q 575 775 566 777 q 597 768 585 773 q 616 753 610 763 q 621 730 622 744 q 593 657 616 694 q 534 619 570 619 z "},"":{"ha":386,"x_min":-18,"x_max":392,"o":"m 379 233 l 392 180 q 334 116 365 147 q 264 52 304 85 q 182 -1 224 19 q 102 -21 139 -21 q 35 6 63 -21 q -6 70 6 34 q -18 144 -18 106 q 10 268 -18 205 q 79 376 39 331 q 163 450 119 421 q 239 479 208 479 q 280 470 261 479 q 300 440 300 460 q 231 320 300 394 q 104 207 163 247 q 178 119 87 119 q 234 133 203 119 q 284 160 264 146 q 336 200 304 174 q 379 233 368 225 z "},"":{"ha":972,"x_min":-78,"x_max":1032,"o":"m 106 40 l 75 26 q 43 14 66 23 q 1 -1 20 4 q -35 -7 -18 -7 q -78 22 -78 -7 q -72 45 -78 31 q -53 78 -65 60 q -32 108 -41 96 q -8 139 -23 120 q 8 160 6 158 q 37 193 27 186 q 52 199 44 197 q 145 213 83 206 q 231 225 206 220 l 304 310 l 301 313 q 191 271 261 304 q 207 318 201 303 q 224 348 212 333 q 254 370 237 363 q 302 383 272 377 l 376 397 l 635 705 q 697 773 656 731 q 789 861 739 814 q 888 940 839 907 q 962 972 937 972 q 1014 944 996 972 q 1032 882 1032 916 q 1012 802 1032 850 q 971 715 992 753 q 916 622 949 677 q 873 551 882 567 q 899 532 899 548 q 821 452 899 505 q 802 438 818 450 q 775 418 786 427 q 748 400 764 410 q 720 385 732 390 q 700 379 707 379 q 668 421 668 379 q 687 505 668 458 q 737 598 706 551 q 796 681 768 646 q 854 751 824 717 q 862 764 860 758 q 863 774 865 770 q 857 778 862 778 q 625 546 826 778 l 510 412 q 584 410 548 416 q 627 379 621 404 q 602 342 634 352 q 571 339 592 340 q 543 338 551 339 l 458 332 l 436 329 l 347 228 q 905 110 700 159 l 832 36 q 769 -20 787 -9 q 675 -35 736 -41 q 476 1 630 -31 q 106 40 273 45 z "},"":{"ha":416,"x_min":-52,"x_max":503,"o":"m 64 476 l 86 490 q 144 581 124 557 q 329 782 247 702 q 443 861 411 861 q 465 844 458 861 q 471 810 472 827 q 435 656 463 721 q 494 647 479 665 q 496 622 503 635 q 472 599 490 610 q 431 578 460 591 q 397 564 401 566 l 380 555 q 123 264 304 439 q 112 220 114 246 q 114 168 109 193 q 183 109 137 109 q 422 248 269 109 l 441 205 q 405 167 412 174 q 365 129 397 160 q 317 85 333 97 q 271 49 302 73 q 218 15 239 25 q 168 -4 196 5 q 115 -14 140 -14 q 53 2 79 -14 q 15 46 28 18 q -3 103 3 75 q -8 167 -8 132 q 32 371 -8 269 l 29 374 q -52 309 -47 313 q -40 376 -48 353 q -9 421 -32 399 q 64 476 14 444 m 153 395 l 155 392 q 286 546 227 458 q 366 696 346 634 q 260 590 317 672 q 153 395 204 508 z "},"":{"ha":1611,"x_min":61,"x_max":1693,"o":"m 1689 949 l 1691 890 q 1693 856 1693 867 q 1691 832 1693 845 q 1684 815 1688 820 q 1670 803 1681 810 q 1649 791 1660 795 q 1615 781 1637 787 q 1533 745 1577 768 q 1459 706 1488 722 q 1421 690 1430 690 q 1410 694 1415 690 q 1406 704 1406 698 q 1428 737 1406 714 q 1474 781 1451 760 q 1499 803 1498 802 l 1499 800 l 1501 800 l 1501 803 q 1322 790 1408 804 q 1176 755 1236 777 q 1073 708 1117 733 q 1008 660 1028 683 q 990 623 987 637 q 1002 600 993 606 q 1432 570 1052 562 q 1525 539 1525 570 q 1507 492 1525 522 q 1474 449 1489 462 q 1341 412 1450 428 q 1153 367 1240 396 q 1010 308 1066 338 q 914 245 954 277 q 857 189 874 214 q 839 147 839 163 q 869 117 839 128 q 956 103 899 105 q 1283 151 1100 96 q 1372 188 1328 165 q 1479 248 1417 210 q 1563 298 1541 286 q 1553 170 1568 216 q 1482 77 1539 123 q 1245 -44 1387 -3 q 970 -82 1104 -85 q 779 -52 882 -80 q 709 11 737 -39 q 682 106 681 60 q 707 186 682 130 l 704 189 q 514 62 618 109 q 313 17 410 15 q 246 26 278 18 q 182 56 214 35 q 126 108 150 77 q 85 188 102 139 q 65 300 68 237 q 94 451 61 372 q 183 601 126 530 q 315 737 240 671 q 471 852 391 803 q 632 935 551 902 q 779 978 713 968 q 828 968 802 981 q 871 934 853 954 q 902 895 890 914 q 914 867 914 876 q 853 821 914 840 q 850 819 852 820 l 846 818 q 812 803 833 813 q 783 789 791 792 l 786 786 l 839 791 q 896 781 862 791 q 960 845 926 817 q 1031 892 994 873 q 1096 922 1069 911 q 1160 945 1122 932 q 1493 987 1282 985 q 1663 971 1620 991 q 1689 949 1683 962 m 422 510 q 419 505 422 509 q 414 499 416 501 q 410 493 413 498 q 404 487 406 489 q 398 481 401 484 q 392 476 395 478 q 386 473 389 475 q 379 472 382 472 q 372 473 375 472 q 368 478 370 475 q 364 484 366 481 q 362 491 363 486 q 360 498 361 496 q 360 505 360 500 q 359 511 359 510 q 249 366 293 445 q 205 208 205 288 q 224 143 205 168 q 279 118 242 118 q 412 152 335 118 q 536 227 490 186 q 751 459 671 341 q 833 656 830 576 q 819 702 835 682 q 778 722 804 722 q 582 655 690 722 q 422 510 474 587 m 818 311 l 814 309 l 817 306 q 882 352 847 331 q 942 387 918 374 q 1012 416 966 399 q 1074 437 1058 432 q 1147 459 1090 443 q 1214 478 1203 475 l 1214 481 l 1111 489 q 929 528 989 500 q 914 471 924 499 q 883 409 903 444 q 853 362 862 375 q 818 311 844 349 z "},"":{"ha":786,"x_min":-16,"x_max":806,"o":"m 429 269 q 572 352 511 297 q 631 431 632 408 q 627 443 631 438 q 616 446 623 448 q 509 383 562 431 q 429 269 456 335 m 793 260 l 806 207 q 701 103 758 151 q 570 16 645 54 q 431 -22 495 -22 q 348 0 379 -22 q 293 69 317 22 q 278 51 286 60 q 269 39 271 41 q 261 32 267 37 q 252 23 256 26 q 236 14 247 20 q 122 -26 170 -26 q 56 -1 85 -26 q 13 64 28 24 q -8 141 -1 103 q -16 212 -16 179 q 106 422 -16 336 q 230 486 158 460 q 361 513 302 513 q 415 499 397 513 q 446 453 433 486 q 656 526 543 526 q 753 460 753 526 q 738 402 753 432 q 687 339 722 373 q 583 269 652 304 q 418 201 514 233 l 415 171 q 440 117 415 134 q 504 100 466 100 q 546 104 524 100 q 592 122 567 109 q 634 143 618 135 q 680 173 650 151 q 719 202 710 195 q 760 234 728 208 q 793 260 792 259 m 326 379 q 261 354 290 366 q 198 322 233 342 q 140 279 163 302 q 102 225 117 257 q 86 155 86 193 q 92 120 86 140 q 109 81 97 99 q 136 62 121 62 q 227 100 163 62 q 248 116 238 105 q 275 158 257 127 q 335 340 275 259 q 326 379 337 359 z "},"":{"ha":989,"x_min":8,"x_max":1055,"o":"m 342 595 q 347 578 342 583 q 627 494 371 556 q 711 475 666 486 q 864 402 812 451 q 917 300 917 354 q 889 195 917 243 q 817 115 861 147 q 710 58 772 83 q 586 18 648 33 q 455 -6 524 3 q 333 -18 386 -15 q 232 -21 280 -21 q 8 60 8 -21 q 34 122 8 80 q 79 183 60 165 q 137 209 92 193 q 199 224 182 224 q 210 214 210 224 q 186 187 210 201 q 163 167 178 182 l 163 164 q 354 165 264 160 q 505 181 443 170 q 619 207 568 192 q 702 238 671 222 q 755 269 734 254 q 786 295 777 284 q 794 311 794 306 q 359 446 794 378 q 343 449 347 448 q 291 460 313 454 q 247 480 269 467 q 213 514 225 492 q 201 566 201 536 q 215 663 201 602 q 245 750 229 723 q 316 812 262 778 q 446 878 369 846 q 629 931 522 909 q 844 953 736 953 q 1019 933 925 953 q 1049 919 1042 928 q 1055 888 1055 910 q 1049 824 1055 849 q 1027 781 1043 799 q 992 753 1011 764 q 939 729 973 743 q 876 702 895 713 q 814 661 856 691 q 779 647 789 647 q 757 668 757 647 q 766 683 757 671 q 800 718 774 694 q 859 765 825 742 l 856 768 q 666 749 755 765 q 520 711 577 732 q 421 666 463 690 q 361 624 379 642 q 342 595 342 606 m 745 1088 l 867 1139 q 914 1157 909 1157 q 926 1137 926 1157 q 839 1057 926 1092 l 726 1013 q 612 981 643 981 q 600 982 606 981 q 587 988 593 984 q 575 996 580 993 q 563 1007 570 1000 q 552 1017 555 1014 q 542 1028 549 1020 q 533 1038 534 1036 q 522 1048 532 1038 q 505 1064 511 1058 q 493 1081 499 1071 q 486 1097 486 1090 q 492 1114 486 1106 q 501 1125 497 1122 q 515 1136 505 1128 q 543 1157 537 1149 q 583 1125 557 1149 q 633 1082 609 1101 q 675 1064 656 1064 q 745 1088 686 1064 z "},"":{"ha":498,"x_min":-125,"x_max":578,"o":"m 211 397 l 11 210 q 45 202 29 209 q 75 180 60 195 q 98 156 90 165 q 119 127 105 147 q 205 196 184 168 q 229 283 227 224 q 211 397 224 321 m 400 175 l 484 239 l 497 186 q 422 117 461 150 q 335 50 382 83 q 238 -2 287 17 q 150 -20 189 -22 q 11 25 75 -16 q -71 139 -53 67 q -102 121 -89 121 q -118 129 -111 121 q -125 147 -125 138 q -124 155 -125 151 q -120 163 -123 159 q -115 171 -117 168 q -109 178 -113 174 q -103 184 -105 182 q -97 191 -101 186 q -92 196 -92 195 l 210 472 q 233 536 212 509 q 289 562 254 562 q 329 552 319 562 q 343 511 340 541 q 357 438 345 492 q 370 350 370 385 q 318 208 370 272 q 189 97 267 144 q 225 94 208 94 q 257 96 243 94 q 289 105 271 98 q 316 118 306 113 q 345 135 327 123 q 371 153 362 146 q 400 175 380 160 m 396 682 l 518 733 q 566 751 561 751 q 578 732 578 751 q 490 652 578 686 l 378 607 q 264 575 294 575 q 251 577 258 575 q 238 583 245 578 q 226 591 231 587 q 214 601 221 594 q 204 611 207 608 q 193 623 201 614 q 184 632 186 631 q 173 643 184 633 q 157 659 163 652 q 144 675 151 665 q 138 692 138 685 q 143 709 138 701 q 152 720 149 717 q 167 730 156 723 q 195 751 189 744 q 235 719 209 743 q 284 677 260 695 q 326 659 308 659 q 396 682 337 659 z "},"":{"ha":1030,"x_min":63,"x_max":1136,"o":"m 831 461 l 463 143 q 421 108 436 120 q 376 73 407 96 q 319 38 345 50 q 273 26 293 26 q 204 56 237 26 q 178 119 172 85 l 179 132 q 182 149 181 144 q 191 172 184 154 q 207 206 197 190 q 235 252 216 222 q 279 315 254 282 q 341 396 303 349 q 425 500 378 444 q 579 690 554 655 q 608 750 608 732 q 604 760 609 756 q 590 765 598 764 q 302 614 463 702 q 135 524 141 527 q 113 513 127 518 q 90 507 98 507 q 66 519 70 507 q 75 575 63 532 l 96 650 q 125 707 106 687 q 182 751 143 727 q 459 891 294 820 q 713 962 624 962 q 782 944 753 962 q 810 886 810 925 q 804 857 810 873 q 787 820 799 840 q 766 783 776 800 q 738 742 755 766 q 711 706 720 718 q 684 671 702 694 q 664 646 667 649 q 580 540 622 592 q 514 457 538 488 q 466 398 490 427 q 431 353 443 368 q 410 323 420 338 q 397 299 401 308 q 393 281 394 290 q 401 264 393 271 q 428 262 410 258 q 467 283 446 266 q 574 370 526 333 q 688 465 623 407 q 956 707 753 522 q 971 721 958 708 q 992 740 984 733 q 1014 755 1001 747 q 1034 762 1026 762 q 1078 733 1058 762 q 1099 679 1099 703 q 1092 653 1099 667 q 1063 608 1084 638 q 1017 545 1042 578 q 941 441 991 511 q 838 297 890 372 q 690 81 714 121 q 673 12 650 14 q 684 14 679 12 q 701 23 689 16 q 729 41 713 31 q 781 71 745 51 q 860 113 816 90 q 909 135 887 126 q 947 146 932 143 q 973 148 962 149 q 988 142 983 146 q 993 131 993 138 q 960 86 993 116 q 908 45 928 56 q 727 -101 827 -16 q 582 -241 628 -186 q 512 -312 536 -294 q 456 -335 481 -335 q 411 -315 428 -335 q 395 -267 395 -296 q 448 -114 395 -218 q 579 104 502 -10 q 722 311 656 219 q 833 458 789 403 l 831 461 m 785 1025 q 725 1039 754 1025 q 697 1079 695 1053 q 704 1107 698 1090 q 723 1145 711 1125 q 755 1177 734 1164 q 800 1185 776 1189 q 825 1181 816 1183 q 848 1174 835 1179 q 866 1159 861 1168 q 871 1136 872 1149 q 843 1062 867 1100 q 785 1025 820 1025 m 1048 1025 q 988 1039 1018 1025 q 961 1079 959 1053 q 968 1107 962 1090 q 986 1145 975 1125 q 1019 1177 998 1164 q 1064 1185 1040 1189 q 1089 1181 1080 1183 q 1112 1174 1099 1179 q 1130 1159 1124 1168 q 1135 1136 1136 1149 q 1107 1062 1131 1100 q 1048 1025 1084 1025 z "},"":{"ha":894,"x_min":75,"x_max":971,"o":"m 469 296 l 325 232 q 253 199 283 214 q 216 178 224 184 q 201 171 208 173 q 184 168 195 168 q 163 187 163 168 q 166 205 163 191 q 179 245 170 219 q 199 300 188 272 q 202 309 199 302 q 205 317 204 315 q 208 325 205 319 q 212 332 210 330 q 215 338 213 334 q 220 345 218 342 q 227 351 223 348 q 235 358 231 355 q 350 425 269 384 q 509 502 431 466 q 595 542 587 538 q 775 648 736 620 q 814 710 814 676 q 797 737 814 726 q 764 747 781 747 q 518 685 663 747 q 83 456 373 623 q 91 557 85 516 q 109 638 96 598 q 143 708 121 678 q 200 768 165 739 q 285 827 235 798 q 512 917 375 878 q 750 956 648 956 q 971 789 971 956 q 954 705 971 744 q 912 639 937 666 q 847 584 887 612 q 774 540 807 557 q 696 499 742 523 q 625 461 650 476 q 751 411 709 446 q 803 298 792 376 q 874 316 850 314 q 902 314 899 318 q 904 302 905 310 q 904 301 904 302 q 899 284 904 291 q 872 267 895 278 q 803 239 850 256 q 575 -115 768 55 q 379 -244 509 -175 q 192 -314 250 -314 q 120 -284 165 -314 q 75 -228 75 -254 q 98 -164 75 -202 q 170 -76 121 -126 q 288 27 219 -26 q 457 140 356 81 q 676 252 559 199 q 671 280 676 266 q 652 307 666 294 q 615 325 637 320 q 555 324 593 330 q 469 296 517 317 m 657 167 q 488 67 571 124 q 351 -38 405 11 q 263 -126 296 -87 q 229 -178 229 -164 q 235 -188 229 -183 q 245 -192 241 -192 q 340 -156 278 -192 q 465 -69 401 -121 q 584 48 528 -17 q 657 167 639 114 m 708 1088 l 831 1139 q 878 1157 873 1157 q 890 1137 890 1157 q 803 1057 890 1092 l 690 1013 q 576 981 607 981 q 564 982 570 981 q 551 988 557 984 q 539 996 544 993 q 527 1007 534 1000 q 516 1017 519 1014 q 506 1028 513 1020 q 497 1038 498 1036 q 486 1048 496 1038 q 469 1064 475 1058 q 457 1081 463 1071 q 450 1097 450 1090 q 456 1114 450 1106 q 465 1125 461 1122 q 479 1136 469 1128 q 507 1157 501 1149 q 547 1125 522 1149 q 597 1082 573 1101 q 639 1064 621 1064 q 708 1088 648 1064 z "}}}
